<?xml version="1.0" encoding="UTF-8" standalone="no"?>
<!DOCTYPE svg PUBLIC "-//W3C//DTD SVG 1.1//EN" "http://www.w3.org/Graphics/SVG/1.1/DTD/svg11.dtd">
<!-- Created with Vectornator (http://vectornator.io/) -->
<svg height="100%" stroke-miterlimit="10" style="fill-rule:nonzero;clip-rule:evenodd;stroke-linecap:round;stroke-linejoin:round;" version="1.1" viewBox="0 0 2500 1536" width="100%" xml:space="preserve" xmlns="http://www.w3.org/2000/svg" xmlns:xlink="http://www.w3.org/1999/xlink">
<defs/>
<clipPath id="ArtboardFrame">
<rect height="1536" width="2500" x="0" y="0"/>
</clipPath>
<g clip-path="url(#ArtboardFrame)" id="Ebene-1">
<g opacity="1">
<path d="M2428.25 22.1562C2408.88 21.5133 2392.4 31.3591 2389.59 46.3125C2379.12 89.5164 2367.35 132.408 2353.69 174.719C2342.28 210.045 2329.77 245.011 2315.88 279.438C2304.15 308.5 2291.46 337.192 2277.75 365.375C2266.19 389.134 2253.85 412.474 2240.78 435.438C2228.44 457.136 2215.29 478.401 2201.47 499.188C2142.82 587.379 2070.28 667.233 1983.25 728.125C1962.36 742.743 1940.67 756.275 1918.22 768.375C1900.44 777.955 1882.27 786.734 1863.72 794.719C1846.58 802.096 1829.23 808.896 1811.53 814.812C1778.05 826.001 1743.6 834.378 1708.69 839.562C1716.59 801.489 1720.66 762.544 1720.72 723.688C1720.8 672.657 1714.55 621.492 1700.75 572.312C1690.2 534.694 1675.2 498.063 1654.62 464.781C1646.19 451.137 1636.76 438.139 1626.53 425.781C1594.54 387.119 1554.2 355.265 1507.91 335.531C1473.63 320.921 1436.57 313.079 1399.31 312.562C1336.26 311.689 1273.19 331.672 1222.56 369.375C1205.59 382.018 1190.07 396.587 1176.47 412.812C1161.44 430.749 1148.78 450.69 1139.03 471.969C1128.38 495.224 1121.19 520.039 1117.88 545.406C1115.79 561.375 1115.21 577.547 1116.16 593.625C1116.89 606.135 1118.53 618.596 1121.03 630.875C1135.53 702.104 1178.27 763.762 1229.5 813.875C1252.5 836.373 1277.73 856.601 1304.62 874.25C1326.73 888.752 1349.92 901.577 1373.97 912.562C1397.2 923.177 1421.2 932.11 1445.69 939.375C1481.52 950.006 1518.26 956.81 1555.28 960.25C1555.06 960.558 1554.85 960.881 1554.62 961.188C1542.73 977.297 1529.26 992.294 1515.03 1006.38C1472.74 1048.23 1422.88 1081.98 1369.97 1108.94C1314.54 1137.18 1255.71 1158.28 1195.44 1173.5C1157.66 1183.04 1119.22 1189.96 1080.69 1195.59C1030.8 1202.89 980.436 1207.04 930.062 1208.88C854.291 1211.64 778.339 1209.03 702.844 1202.16C654.737 1197.78 606.807 1191.65 559.094 1184.12C454.459 1167.62 350.951 1144.18 249 1115.5C211.067 1104.83 173.381 1093.36 135.844 1081.38C108.857 1072.81 77.69 1095.11 66.25 1131.16C54.81 1167.2 67.419 1203.34 94.4062 1211.91C125.238 1221.78 156.188 1231.35 187.281 1240.38C265.605 1263.11 344.792 1282.9 424.75 1299C545.307 1323.27 667.743 1339.12 790.719 1343.03C895.618 1346.36 1001.19 1340.71 1104.56 1322.06C1135.89 1316.41 1166.96 1309.26 1197.72 1301.09C1231.28 1292.19 1264.4 1281.82 1296.97 1269.78C1356.6 1247.74 1414.21 1219.74 1467.19 1184.47C1496.77 1164.78 1524.85 1142.85 1550.94 1118.72C1585.8 1086.48 1617.11 1050.12 1642.06 1009.66C1651.91 993.688 1660.78 977.15 1668.75 960.188C1721.23 955.348 1773.18 944.078 1822.97 926.844C1842.47 920.095 1861.75 912.587 1880.56 904.094C1910.71 890.479 1939.82 874.638 1967.97 857.281C2066.87 796.298 2151.77 714.442 2221.78 622.062C2239.53 598.638 2256.34 574.492 2272.25 549.781C2291.12 520.478 2308.74 490.365 2325.16 459.625C2343.54 425.207 2360.46 390.011 2376 354.219C2394.57 311.442 2411.2 267.814 2426 223.594C2443.82 170.365 2459.07 116.34 2472.25 61.7812C2475.45 44.6917 2459.55 27.37 2436.72 23.0938C2433.87 22.5592 2431.02 22.2481 2428.25 22.1562ZM1373.38 433.375C1393.72 432.839 1414.15 435.169 1433.84 440.312C1453.95 445.563 1473.29 453.743 1491.12 464.406C1504.1 472.163 1516.28 481.22 1527.53 491.312C1542.92 505.126 1556.78 520.839 1568.47 537.906C1585.08 562.156 1597.17 589.314 1605.91 617.312C1621.71 667.958 1626.34 721.711 1621.97 774.469C1620.23 795.449 1616.82 816.41 1611.75 836.844C1611.05 839.662 1610.2 842.448 1609.44 845.25C1527.49 842.4 1446.31 820.65 1375.69 778.344C1350.77 763.415 1327.44 746.029 1305.94 726.5C1296.37 717.808 1287.25 708.609 1278.53 699.062C1271.73 691.611 1265.19 683.904 1259 675.938C1253.88 669.355 1249.02 662.592 1244.44 655.625C1231.36 635.742 1220.52 614.086 1214.66 590.938C1210.92 576.18 1209.36 560.701 1211.41 545.562C1212.1 540.403 1213.24 535.285 1214.78 530.312C1224.73 498.3 1251.53 473.668 1280.19 457.938C1290.78 452.125 1301.93 447.377 1313.41 443.625C1332.77 437.295 1353.03 433.911 1373.38 433.375Z" fill="#769a89" stroke="none"/>
</g>
<g opacity="1">
<path d="M562.656 1004C548.83 1008 534.836 1011.37 520.781 1014.47C505.435 1017.85 490.026 1020.9 474.562 1023.69C455.694 1027.09 436.755 1030.13 417.781 1032.88C409.512 1034.07 401.232 1035.27 392.938 1036.28C386.195 1037.11 379.418 1037.91 372.656 1038.56C366.452 1039.16 360.226 1039.57 354.031 1040.25C341.548 1041.62 329.101 1043.42 316.656 1045.09C303.265 1046.9 289.88 1048.63 276.469 1050.28C236.968 1055.14 197.368 1059.17 157.781 1063.25C137.998 1065.29 118.226 1067.39 98.4375 1069.38C94.312 1069.79 90.1891 1070.19 86.0625 1070.59C81.7834 1071.01 77.2699 1071.19 73.0938 1072.31C71.7375 1072.68 70.3732 1073.06 69.0625 1073.56C67.0974 1074.32 65.1161 1075.06 63.2812 1076.09C60.3531 1077.74 57.3856 1079.4 54.8438 1081.59C50.6507 1085.22 46.3666 1088.91 43.2188 1093.47C38.5363 1100.26 34.2096 1107.5 31.5625 1115.31C28.7599 1123.58 27.4695 1132.37 27.0625 1141.09C26.7696 1147.37 28.1116 1153.65 29.5 1159.78C30.3466 1163.52 32.0666 1167.01 33.7188 1170.47C34.7376 1172.6 36.1147 1174.53 37.4688 1176.47C38.3564 1177.74 39.4066 1178.91 40.4375 1180.06C43.405 1183.39 46.9986 1185.79 50.5625 1188.34C52.996 1190.09 55.4144 1191.84 57.8438 1193.59C63.2627 1197.5 68.6911 1201.41 74.0938 1205.34C92.3353 1218.61 110.256 1232.32 128 1246.25C147.105 1261.24 166.029 1276.49 185.094 1291.53C195.229 1299.53 205.392 1307.49 215.562 1315.44C220.944 1319.64 226.384 1323.73 231.719 1328C237.127 1332.32 242.562 1336.67 247.812 1341.19C252.652 1345.35 257.395 1349.64 262.25 1353.78C276.885 1366.26 291.742 1378.5 306.469 1390.88C328.831 1409.66 351.074 1428.58 372.531 1448.41C380.489 1455.76 388.333 1463.25 395.906 1471C402.536 1477.78 409.002 1484.77 414.812 1492.28C435.807 1509.17 471.127 1500.1 493.688 1472.06C516.248 1444.02 517.525 1407.61 496.531 1390.72C484.775 1375.42 471.312 1361.5 457.5 1348.06C440.544 1331.57 422.867 1315.81 404.844 1300.5C384.571 1283.28 364.01 1266.41 342.875 1250.25C337.787 1246.36 332.687 1242.46 327.531 1238.66C321.896 1234.5 316.046 1230.65 310.406 1226.5C305.713 1223.05 301.052 1219.53 296.375 1216.06C290.299 1211.55 284.385 1206.84 278.344 1202.28C265.284 1192.43 252.122 1182.68 238.844 1173.12C238.212 1172.67 237.57 1172.23 236.938 1171.78C237.177 1171.75 237.417 1171.72 237.656 1171.69C259.901 1168.67 282.137 1165.69 304.375 1162.62C319.352 1160.56 334.361 1158.58 349.25 1155.94C356.198 1154.7 363.102 1153.11 370.031 1151.78C389.261 1148.09 408.549 1144.73 427.812 1141.22C451.023 1136.98 474.198 1132.71 497.312 1127.97C521.177 1123.08 544.998 1117.7 568.375 1110.81C590.456 1109.63 607.078 1084.77 605.5 1055.28C603.922 1025.79 584.737 1002.82 562.656 1004Z" fill="#769a89" stroke="none"/>
</g>
</g>
<g id="Ebene-1-kopieren" visibility="hidden">
<g opacity="1">
<path d="M1979.16 111.844C1968.49 111.572 1959.45 115.548 1955.66 123.25C1929.04 231.081 1893.69 336.99 1845.56 437.219C1838.73 451.45 1831.75 465.637 1824.31 479.562C1816.13 494.889 1807.7 510.077 1798.91 525.062C1794.1 533.255 1789.13 541.37 1784.22 549.5C1780.3 555.989 1776.47 562.539 1772.5 569C1747.4 609.862 1720.18 649.358 1690.38 686.938C1659.68 725.647 1626.28 762.214 1590.47 796.25C1555.12 829.843 1517.52 860.982 1478.06 889.625C1444.61 913.911 1409.81 936.353 1373.78 956.625C1323.94 984.664 1271.77 1008.61 1217.88 1027.75C1151.28 1051.4 1082.15 1067.62 1012.34 1078.28C984.371 1082.55 956.281 1085.92 928.094 1088.41C913.638 1089.68 899.151 1090.8 884.656 1091.53C875.808 1091.98 866.95 1092.25 858.094 1092.47C852.757 1092.6 847.401 1092.75 842.062 1092.78C827.738 1092.88 813.41 1092.46 799.094 1092.06C784.642 1091.66 770.221 1091.13 755.781 1090.41C656.458 1085.44 557.773 1070.72 461.094 1047.5C418.905 1037.37 377.195 1025.46 335.844 1012.34C310.587 1008.27 285.267 1034.92 279.312 1071.88C273.358 1108.83 289.025 1142.09 314.281 1146.16C353.291 1158.61 392.578 1170.04 432.312 1179.97C495.797 1195.83 560.179 1208.03 625.125 1216.06C668.921 1221.48 713.001 1225.04 757.125 1226.16C770.34 1226.49 783.562 1226.7 796.781 1226.59C811.791 1226.47 826.785 1225.83 841.781 1225.25C856.194 1224.7 870.606 1224.06 885 1223.12C902.069 1222.02 919.132 1220.87 936.156 1219.19C979.319 1214.92 1022.26 1208.4 1064.69 1199.38C1123.34 1186.9 1180.93 1169.65 1237.06 1148.59C1307.67 1122.1 1375.96 1089.2 1440.06 1049.41C1486.77 1020.41 1531.06 987.819 1572.81 952.062C1612.28 918.264 1649.15 881.5 1683.75 842.75C1730.47 790.417 1772.82 734.214 1810.81 675.25C1818.3 663.631 1825.57 651.879 1832.69 640.031C1836.17 634.242 1839.66 628.433 1843 622.562C1851.07 608.378 1858.63 593.901 1866.12 579.406C1872.76 566.571 1879.13 553.624 1885.44 540.625C1892.05 527.002 1898.53 513.324 1904.78 499.531C1937.97 426.308 1966.02 350.803 1989.25 273.844C2001.06 234.708 2011.54 195.212 2020.97 155.438C2027.04 143.114 2017.34 125.921 1999.31 117.031C1992.55 113.698 1985.55 112.007 1979.16 111.844Z" fill="#769a89" stroke="none"/>
</g>
<g opacity="1">
<path d="M774.062 937.312C772.721 937.27 771.358 937.328 770 937.469C745.068 946.551 718.897 952.536 692.844 957.375C672.363 961.179 651.742 964.25 631.062 966.75C621.806 967.869 612.536 968.935 603.25 969.781C596.647 970.383 590.025 970.945 583.406 971.344C577.278 971.713 571.125 971.9 565 972.312C561.663 972.537 558.334 972.88 555 973.156C544.964 973.986 534.935 974.939 524.906 975.844C505.852 977.563 486.797 979.132 467.719 980.562C438.819 982.729 409.887 984.439 381 986.781C368.413 987.802 355.832 988.88 343.281 990.281C330.586 991.699 317.875 993.266 305.344 995.781C294.857 997.886 284.334 1000.72 274.969 1006.03C269.068 1009.38 263.597 1013.59 258.969 1018.56C257.397 1020.25 255.85 1021.99 254.438 1023.81C252.802 1025.92 251.251 1028.08 249.844 1030.34C248.177 1033.03 246.59 1035.79 245.25 1038.66C243.647 1042.08 242.191 1045.59 241.031 1049.19C239.834 1052.91 238.833 1056.71 238.188 1060.56C237.471 1064.84 237.043 1069.17 236.938 1073.5C236.849 1077.13 237.172 1080.77 237.594 1084.38C237.903 1087.02 238.491 1089.6 239.125 1092.19C239.615 1094.18 240.277 1096.16 240.969 1098.09C241.534 1099.68 242.211 1101.22 242.906 1102.75C248.907 1115.95 260.227 1125.5 271.469 1134.16C286.277 1145.55 301.778 1156.01 317.125 1166.66C327.101 1173.58 337.001 1180.61 346.938 1187.59C364.88 1200.2 382.707 1212.98 400.688 1225.53C410.524 1232.4 420.334 1239.27 430.156 1246.16C436.039 1250.28 442.017 1254.31 447.812 1258.56C452.768 1262.19 457.726 1265.81 462.594 1269.56C467.917 1273.66 473.034 1278.03 478.312 1282.19C495.393 1295.64 512.51 1309.02 529.344 1322.78C541.731 1332.91 553.864 1343.37 565.594 1354.25C572.815 1360.95 579.909 1367.79 586.75 1374.88C593.177 1381.54 599.404 1388.39 605.188 1395.62C610.732 1402.56 615.893 1409.82 620.094 1417.66C638.099 1436.47 673.058 1432.21 698.188 1408.16C723.317 1384.11 729.099 1349.38 711.094 1330.56C700.202 1310.06 685.964 1291.57 670.406 1274.41C656.87 1259.48 642.355 1245.45 627.219 1232.16C604.664 1212.34 581.167 1193.55 556.719 1176.12C551.531 1172.43 546.335 1168.73 541.062 1165.16C535.34 1161.27 529.453 1157.63 523.688 1153.81C518.911 1150.65 514.195 1147.38 509.438 1144.19C503.265 1140.05 497.202 1135.75 491.062 1131.56C480.941 1124.65 470.682 1117.93 460.406 1111.25C454.338 1107.31 448.19 1103.51 442.062 1099.66C444.823 1099.4 447.583 1099.13 450.344 1098.88C470.069 1097.02 489.806 1095.3 509.531 1093.44C524.957 1091.98 540.376 1090.48 555.75 1088.53C563.226 1087.59 570.615 1086.08 578.062 1084.94C597.986 1081.87 617.937 1078.99 637.844 1075.81C658.452 1072.53 678.982 1068.92 699.438 1064.78C727.013 1059.2 754.46 1052.33 780.875 1042.56C802.605 1040.32 817.781 1014.96 814.781 985.938C811.969 958.726 794.181 937.953 774.062 937.312Z" fill="#769a89" stroke="none"/>
</g>
</g>
<g id="Ebene-1-kopieren-kopieren" visibility="hidden">
<g opacity="1">
<path d="M2035.5 199.969C2022.34 200.056 2011.46 205.87 2008.75 215.469C2005.8 235.256 2001.95 254.887 1997.03 274.281C1973.07 368.751 1927.04 456.543 1869.12 534.531C1857.21 550.577 1844.57 566.141 1831.56 581.312C1826.31 587.435 1820.94 593.465 1815.62 599.531C1810.82 605.013 1806.08 610.535 1801.22 615.969C1788.43 630.283 1775.31 644.322 1761.88 658.031C1734.6 685.856 1705.81 712.173 1676 737.25C1650.36 758.816 1623.72 779.203 1596.47 798.688C1550.93 831.253 1503.5 861.143 1454.84 888.812C1372.33 935.732 1285.92 976.147 1196.22 1007.34C1130.22 1030.3 1062.38 1048.09 993.844 1061.59C966.59 1066.96 939.215 1071.68 911.719 1075.62C897.606 1077.65 883.46 1079.59 869.281 1081.09C856.549 1082.44 843.8 1083.53 831.031 1084.47C816.443 1085.54 801.775 1085.99 787.156 1086.41C772.624 1086.82 758.133 1087.17 743.594 1087.25C645.209 1087.78 546.516 1077.21 451.375 1051.66C412.978 1041.34 375.343 1028.5 338.594 1013.34C313.717 1008.24 287.473 1033.6 280 1070C272.527 1106.4 286.654 1140.05 311.531 1145.16C363.593 1166.75 417.265 1183.9 472.219 1196.44C546.378 1213.36 622.438 1221.94 698.469 1223.09C728.031 1223.54 757.621 1222.84 787.125 1220.91C801.968 1219.93 816.793 1218.42 831.594 1216.97C845.935 1215.56 860.225 1214 874.531 1212.28C888.89 1210.55 903.255 1208.71 917.562 1206.59C961.197 1200.14 1004.53 1191.41 1047.31 1180.69C1105.64 1166.07 1162.89 1147.55 1219.28 1126.75C1272.75 1107.02 1325.34 1084.75 1376.62 1059.91C1415.9 1040.88 1454.52 1020.38 1492.03 998.062C1518.14 982.528 1543.86 966.286 1569 949.219C1620.59 914.196 1669.91 875.976 1717.06 835.188C1747.14 809.169 1776.14 781.874 1803.94 753.438C1818.75 738.287 1833.19 722.788 1847.22 706.906C1852.82 700.568 1858.4 694.211 1863.78 687.688C1869.13 681.209 1874.3 674.588 1879.47 667.969C1892.93 650.731 1905.81 633.042 1918.34 615.125C1944.93 577.138 1969.35 537.628 1990.78 496.5C2017.1 446 2038.83 393.021 2054.59 338.281C2064.38 304.288 2071.68 269.625 2076.56 234.594C2080.17 221.796 2067.91 207.154 2049.19 201.875C2044.51 200.555 2039.89 199.94 2035.5 199.969Z" fill="#769a89" stroke="none"/>
</g>
<g opacity="1">
<path d="M780.719 932.25C728.821 942.159 676.809 951.686 624.5 959.188C611.84 961.003 599.179 962.698 586.469 964.125C579.79 964.875 573.053 965.287 566.375 966.031C559.958 966.746 553.559 967.627 547.156 968.469C538.739 969.575 530.322 970.851 521.906 971.969C504.495 974.281 487.082 976.434 469.625 978.375C437.06 981.997 404.386 984.739 371.719 987.25C354.313 988.588 336.886 989.744 319.531 991.656C305.853 993.164 291.872 995.156 279.469 1001.47C272.458 1005.04 266.077 1009.79 260.625 1015.47C259.148 1017.01 257.719 1018.59 256.375 1020.25C254.91 1022.05 253.491 1023.89 252.188 1025.81C250.74 1027.95 249.382 1030.15 248.125 1032.41C246.881 1034.64 245.732 1036.95 244.688 1039.28C243.646 1041.61 242.715 1043.97 241.875 1046.38C241.031 1048.79 240.295 1051.24 239.656 1053.72C239.025 1056.17 238.451 1058.63 238.062 1061.12C237.562 1064.35 237.163 1067.62 237 1070.88C236.835 1074.17 236.882 1077.49 237.094 1080.78C237.269 1083.52 237.672 1086.24 238.156 1088.94C238.568 1091.23 239.136 1093.51 239.781 1095.75C240.346 1097.71 241.04 1099.63 241.781 1101.53C242.382 1103.07 243.057 1104.57 243.781 1106.06C251.317 1121.54 265.336 1132.01 278.875 1141.91C285.559 1146.79 292.308 1151.54 299.094 1156.28C308.215 1162.66 317.336 1169.07 326.375 1175.56C348.207 1191.25 369.637 1207.48 391.125 1223.62C401.669 1231.55 412.217 1239.47 422.75 1247.41C428.26 1251.56 433.815 1255.62 439.25 1259.88C444.511 1263.99 449.819 1268.12 454.938 1272.41C459.84 1276.51 464.619 1280.75 469.531 1284.84C484.364 1297.21 499.43 1309.32 514.344 1321.59C523.637 1329.24 532.987 1336.82 542.25 1344.5C573.64 1370.54 604.781 1396.87 635.531 1423.66C659.201 1438.04 693.972 1424.08 713.188 1392.47C732.403 1360.85 728.794 1323.57 705.125 1309.19C659.907 1269.46 614.023 1230.38 566.438 1193.5C555.788 1185.25 545.056 1177.07 534.125 1169.19C528.359 1165.03 522.402 1161.14 516.625 1157C505.828 1149.26 495.221 1141.28 484.5 1133.44C474.823 1126.36 465.05 1119.42 455.219 1112.56C448.609 1107.95 441.886 1103.51 435.188 1099.03C448.481 1097.43 461.781 1095.85 475.062 1094.12C490.894 1092.07 506.689 1089.93 522.5 1087.72C532.698 1086.29 542.902 1084.8 553.062 1083.12C556.006 1082.64 558.942 1082.2 561.875 1081.66C568.761 1080.39 575.597 1078.78 582.469 1077.44C595.794 1074.84 609.141 1072.36 622.5 1069.94C674.914 1060.44 727.32 1050.94 779.594 1040.69C802.017 1040.92 820.443 1016.83 820.75 986.875C821.057 956.924 803.142 932.48 780.719 932.25Z" fill="#769a89" stroke="none"/>
</g>
</g>
<g id="Ebene-1-kopieren-kopieren_2" visibility="hidden">
<g opacity="1">
<path d="M2000.72 103.969C1990.22 104.077 1978.02 109.631 1968.16 119.812C1952.38 136.103 1948.62 158.031 1959.75 168.812C1989.62 232.295 2012.37 299.558 2021.75 369.281C2027.44 411.606 2028.36 454.668 2023.16 497.094C2021.34 511.895 2018.92 526.664 2015.66 541.219C2011.97 557.653 2007.27 573.853 2001.81 589.781C1998.29 600.049 1994.29 610.126 1990.16 620.156C1987.27 627.156 1984.34 634.117 1981.19 641C1974.17 656.299 1966.39 671.258 1957.94 685.812C1950.12 699.27 1941.66 712.329 1932.72 725.062C1892.8 781.897 1842.01 830.683 1786.09 871.625C1767.34 885.356 1747.98 898.194 1728.19 910.375C1706.69 923.604 1684.67 935.941 1662.19 947.406C1644.61 956.37 1626.81 964.892 1608.78 972.906C1522.58 1011.22 1431.85 1039 1339.34 1057.25C1278.33 1069.28 1216.5 1076.92 1154.53 1081.88C1138.88 1083.13 1123.21 1084.22 1107.53 1085.09C1076.47 1086.82 1045.39 1087.94 1014.28 1088.41C995.754 1088.68 977.215 1088.85 958.688 1088.5C945.686 1088.25 932.681 1087.94 919.688 1087.41C903.53 1086.74 887.387 1085.55 871.25 1084.53C840.181 1082.58 809.146 1080.11 778.156 1077.16C679.777 1067.77 581.964 1052.95 485.156 1033.09C443.2 1024.49 401.485 1014.86 359.938 1004.47C334.465 1001.16 309.876 1028.7 305.031 1065.97C300.187 1103.24 316.903 1136.13 342.375 1139.44C420.08 1159.03 498.472 1175.82 577.531 1188.97C605.161 1193.56 632.888 1197.62 660.656 1201.28C698.992 1206.34 737.455 1210.55 776 1213.66C806.425 1216.11 836.927 1218.04 867.438 1219.03C883.037 1219.54 898.644 1219.7 914.25 1219.84C930.298 1220 946.325 1220.22 962.375 1220.19C976.219 1220.16 990.063 1220.2 1003.91 1220C1024.62 1219.7 1045.35 1219.03 1066.03 1218C1096.26 1216.49 1126.45 1214.25 1156.56 1211.25C1189.31 1207.98 1221.94 1203.6 1254.44 1198.44C1318.66 1188.22 1382.35 1174.62 1445.03 1157.28C1499.06 1142.34 1552.28 1124.34 1603.94 1102.53C1633.71 1089.96 1662.96 1076.16 1691.47 1060.94C1715.51 1048.1 1739.1 1034.35 1761.97 1019.53C1817.37 983.634 1868.98 941.869 1914.75 894.25C1949.84 857.74 1981.36 817.718 2007.84 774.531C2022.47 750.683 2035.67 725.975 2047.03 700.406C2050.59 692.391 2054.06 684.31 2057.22 676.125C2070.17 642.563 2079.75 607.737 2086.72 572.469C2090.06 555.57 2092.81 538.524 2094.75 521.406C2101.36 463.134 2100.15 404.229 2091.62 346.219C2083.42 290.422 2068.57 235.656 2048.53 182.969C2039.08 158.122 2028.41 133.787 2016.88 109.844C2012.7 105.801 2007.02 103.904 2000.72 103.969Z" fill="#769a89" stroke="none"/>
</g>
<g opacity="1">
<path d="M769.812 887.688C768.466 887.62 767.086 887.634 765.719 887.75C713.484 905.331 660.98 922.227 607.75 936.562C595.004 939.995 582.224 943.256 569.375 946.281C562.602 947.876 555.765 949.199 548.969 950.688C542.442 952.118 535.966 953.813 529.469 955.375C520.521 957.526 511.601 959.896 502.656 962.062C485.692 966.171 468.696 970.047 451.625 973.688C419.271 980.588 386.645 986.271 353.969 991.406C339.668 993.654 325.338 995.719 311.062 998.125C295.351 1000.77 278.637 1003.65 265.688 1013.59C262.219 1016.26 258.968 1019.27 256.125 1022.59C254.702 1024.26 253.325 1025.96 252.062 1027.75C250.512 1029.95 249.028 1032.18 247.719 1034.53C246.15 1037.35 244.66 1040.24 243.438 1043.22C242.04 1046.63 240.814 1050.09 239.875 1053.66C238.876 1057.45 238.085 1061.33 237.625 1065.22C237.176 1069.02 237.05 1072.83 237.156 1076.66C237.252 1080.09 237.658 1083.52 238.25 1086.91C238.75 1089.76 239.513 1092.56 240.406 1095.31C241.133 1097.55 242.139 1099.69 243.094 1101.84C243.5 1102.76 244.033 1103.61 244.5 1104.5C244.53 1104.56 244.56 1104.63 244.594 1104.69C245.087 1105.5 245.557 1106.32 246.062 1107.12C249.229 1112.18 253.399 1116.6 258.031 1120.34C263.997 1125.16 270.759 1128.89 277.562 1132.38C284.544 1135.95 291.64 1139.28 298.719 1142.66C316.875 1151.31 334.921 1160.3 352.375 1170.31C360.643 1175.06 368.754 1180.08 376.781 1185.22C396.961 1198.14 416.384 1212.21 435.375 1226.81C445.703 1234.75 455.866 1242.91 465.875 1251.25C471.211 1255.69 476.568 1260.13 481.75 1264.75C486.709 1269.17 491.629 1273.66 496.375 1278.31C501.102 1282.94 505.626 1287.77 510.25 1292.5C519.503 1301.97 528.804 1311.42 537.844 1321.09C550.252 1334.37 562.46 1347.85 574.25 1361.69C601.545 1393.71 626.991 1427.24 650.75 1461.97C670.772 1479.56 706.061 1472.15 729.562 1445.41C753.064 1418.66 755.866 1382.72 735.844 1365.12C708.811 1325.29 679.827 1286.82 648.062 1250.62C636.325 1237.25 624.289 1224.13 611.75 1211.5C601.866 1201.54 591.774 1191.79 581.312 1182.44C575.954 1177.65 570.364 1173.14 564.875 1168.5C559.323 1163.81 553.815 1159.05 548.25 1154.38C541.925 1149.06 535.663 1143.67 529.219 1138.5C513.324 1125.75 496.939 1113.69 480.031 1102.31C472.864 1097.49 465.556 1092.86 458.188 1088.34C475.626 1084.35 493.018 1080.18 510.375 1075.84C524.049 1072.43 537.689 1068.92 551.219 1064.97C558.225 1062.92 565.143 1060.51 572.094 1058.28C585.799 1053.89 599.588 1049.73 613.344 1045.5C667.365 1028.9 721.207 1011.8 774.688 993.531C796.556 991.678 812.288 966.523 809.812 937.312C807.492 909.928 790.009 888.704 769.812 887.688Z" fill="#769a89" stroke="none"/>
</g>
</g>
<g id="Ebene-1-kopieren-kopieren-kopieren" visibility="hidden">
<g opacity="1">
<path d="M2150.56 120.5C2144.62 121.067 2139.47 123.401 2135.94 127.625C2108.82 194.662 2081.11 261.504 2051.97 327.688C2024.83 389.306 1996.49 450.416 1965.84 510.375C1951.89 537.677 1937.05 564.503 1922.12 591.281C1918.04 598.608 1914.09 605.987 1910 613.312C1899.72 631.749 1889.19 650.062 1878.38 668.188C1849.43 716.689 1818 763.863 1783.16 808.344C1739.89 863.58 1691.08 914.888 1636.09 958.594C1611.8 977.905 1586.37 995.782 1559.84 1011.91C1525.41 1032.84 1489.18 1050.81 1451.69 1065.56C1410.97 1081.58 1368.77 1093.77 1325.91 1102.53C1304.07 1106.99 1282.01 1110.47 1259.91 1113.25C1221.35 1118.1 1182.59 1120.58 1143.75 1121.56C1114.37 1122.31 1084.97 1122.19 1055.59 1121.28C1034.83 1120.64 1014.08 1119.65 993.344 1118.38C981.518 1117.65 969.68 1116.86 957.875 1115.84C942.394 1114.52 926.898 1113.05 911.469 1111.22C900.677 1109.94 889.925 1108.49 879.156 1107.03C850.275 1103.11 821.395 1099.04 792.594 1094.56C754.965 1088.71 717.441 1082.29 680 1075.34C649.443 1069.67 618.959 1063.58 588.531 1057.25C511.963 1041.33 435.819 1023.51 359.969 1004.47C334.499 1001.15 309.89 1028.67 305.031 1065.94C300.172 1103.21 316.905 1136.12 342.375 1139.44C446.128 1165.69 550.41 1189.75 655.656 1209.25C698.682 1217.22 741.878 1224.39 785.219 1230.44C802.253 1232.81 819.291 1235.01 836.375 1237C843.533 1237.83 850.703 1238.66 857.875 1239.38C873.092 1240.88 888.325 1242.17 903.562 1243.44C919.497 1244.77 935.425 1246.11 951.375 1247.25C962.472 1248.04 973.55 1248.86 984.656 1249.53C1006.16 1250.83 1027.71 1251.77 1049.25 1252.19C1080.92 1252.8 1112.64 1252.52 1144.28 1251C1188.82 1248.86 1233.29 1244.35 1277.31 1237.22C1363.37 1223.27 1448.09 1199.01 1526.56 1160.69C1569.29 1139.82 1609.94 1114.88 1648.03 1086.44C1674.81 1066.45 1700.2 1044.53 1724.34 1021.44C1760.7 986.67 1793.83 948.605 1824.72 908.938C1854.37 870.863 1881.88 831.126 1907.66 790.344C1926.87 759.949 1945.27 729 1962.78 697.594C1969.62 685.328 1976.49 673.057 1982.97 660.594C1997.69 632.261 2011.61 603.49 2025.31 574.656C2031.32 562.027 2037.35 549.429 2043.25 536.75C2064.46 491.159 2084.93 445.233 2104.78 399.031C2136.28 325.7 2166.36 251.749 2195.62 177.5C2205.04 166.235 2199.3 145.96 2182.81 132.188C2172.51 123.58 2160.46 119.556 2150.56 120.5Z" fill="#769a89" stroke="none"/>
</g>
<g opacity="1">
<path d="M808.812 895.75C807.481 895.746 806.156 895.821 804.812 896C779.987 906.134 754.893 915.649 729.406 924C705.341 931.886 681.006 939.039 656.438 945.188C643.04 948.54 629.589 951.559 616.031 954.188C609.227 955.506 602.346 956.433 595.531 957.688C589.409 958.814 583.304 960.061 577.188 961.219C563.228 963.861 549.295 966.647 535.281 969C507.895 973.597 480.392 977.325 452.781 980.281C434.693 982.218 416.566 983.896 398.438 985.406C380.661 986.887 362.889 988.188 345.125 989.812C337.614 990.499 330.088 991.24 322.625 992.344C315.451 993.405 308.277 994.843 301.562 997.656C296.165 999.918 291.143 1002.92 286.688 1006.75C285.112 1008.1 283.56 1009.53 282.125 1011.03C280.41 1012.83 278.763 1014.69 277.25 1016.66C275.486 1018.95 273.802 1021.33 272.312 1023.81C270.645 1026.59 269.104 1029.45 267.781 1032.41C266.382 1035.53 265.164 1038.76 264.156 1042.03C263.159 1045.27 262.38 1048.6 261.781 1051.94C261.226 1055.04 260.908 1058.17 260.719 1061.31C260.552 1064.08 260.578 1066.85 260.719 1069.62C260.838 1071.98 261.109 1074.32 261.469 1076.66C261.768 1078.6 262.209 1080.53 262.688 1082.44C263.409 1085.32 264.4 1088.15 265.562 1090.88C268.646 1098.12 273.517 1104.48 278.688 1110.34C283.973 1116.34 289.664 1121.98 295.438 1127.5C306.249 1137.84 317.349 1147.91 328.562 1157.81C355.491 1181.59 382.415 1205.34 410.219 1228.09C421.922 1237.67 433.764 1247.08 445.719 1256.34C451.345 1260.7 457.057 1264.93 462.688 1269.28C466.243 1272.03 469.775 1274.85 473.312 1277.62C481.04 1283.68 488.499 1290.06 496.219 1296.12C506.999 1304.59 517.926 1312.86 528.938 1321.03C578.898 1358.08 630.483 1392.94 682.656 1426.78C707.789 1439.24 741.643 1422.1 758.281 1388.53C774.92 1354.96 768.039 1317.64 742.906 1305.19C707.097 1281.75 671.687 1257.72 636.531 1233.31C627.051 1226.73 617.64 1220.06 608.188 1213.44C591.901 1202.03 575.642 1190.58 559.281 1179.28C553.736 1175.45 548.042 1171.82 542.469 1168.03C537.457 1164.62 532.58 1161 527.656 1157.47C521.113 1152.77 514.756 1147.83 508.312 1143C496.549 1134.18 484.802 1125.31 473.031 1116.5C464.851 1110.37 456.705 1104.21 448.531 1098.06C461.233 1096.39 473.958 1094.8 486.625 1092.84C507.57 1089.62 528.452 1086.13 549.281 1082.22C558.459 1080.5 567.659 1078.81 576.781 1076.81C583.285 1075.39 589.827 1073.98 596.281 1072.34C602.914 1070.66 609.476 1068.69 616.062 1066.84C625.251 1064.26 634.45 1061.74 643.656 1059.22C689.066 1046.78 734.073 1032.56 778.156 1016C791.748 1010.89 805.209 1005.52 818.625 999.969C840.117 997.111 854.442 971.52 850.625 942.812C847.047 915.899 828.79 895.803 808.812 895.75Z" fill="#769a89" stroke="none"/>
</g>
</g>
<g id="Ebene-1-kopieren-kopieren-kopieren-kopieren" visibility="hidden">
<g opacity="1">
<path d="M2413.97 54.4062C2411.75 54.4539 2409.55 54.8068 2407.41 55.5C2337.49 104.689 2266.68 152.558 2194.62 198.562C2175.42 210.826 2156.18 223.07 2136.78 235.031C2120.52 245.057 2104.23 255.012 2087.88 264.875C2079.5 269.927 2071.13 274.987 2062.69 279.938C2044.99 290.322 2027.22 300.577 2009.38 310.719C2000.92 315.525 1992.37 320.202 1983.97 325.094C1960.42 338.799 1936.98 352.671 1913.38 366.281C1884.56 382.9 1855.53 399.206 1826.38 415.219C1799.58 429.934 1772.66 444.414 1745.59 458.625C1678.04 494.092 1609.66 527.96 1541.06 561.344C1445.48 607.86 1349.15 652.974 1251.28 694.5C1181.34 724.175 1110.57 751.863 1039.62 779.031C1011.06 789.968 982.466 800.839 953.812 811.531C939.32 816.939 924.862 822.403 910.312 827.656C897.189 832.395 884.013 837.014 870.844 841.625C855.496 846.999 839.989 851.953 824.562 857.094C795.62 866.739 766.755 876.573 737.781 886.125C699.15 898.862 660.466 911.472 621.656 923.656C529.544 952.575 436.855 979.628 343.594 1004.59C318.173 1007.44 300.955 1039.93 305.125 1077.12C309.295 1114.32 333.298 1142.16 358.719 1139.31C455.333 1113.64 551.353 1085.82 646.594 1055.44C684.458 1043.36 722.213 1030.97 759.781 1018C788.116 1008.22 816.434 998.294 844.531 987.844C859.149 982.407 873.649 976.668 888.25 971.188C902.416 965.87 916.588 960.545 930.75 955.219C945.393 949.712 960.065 944.312 974.688 938.75C1005.49 927.033 1036.17 915.027 1066.72 902.656C1118.32 881.76 1169.54 859.926 1220.53 837.594C1238.41 829.766 1256.22 821.8 1274.06 813.906C1302.08 801.513 1330.02 788.943 1357.91 776.25C1427.96 744.363 1497.64 711.666 1566.47 677.188C1635.8 642.455 1704.15 605.853 1772 568.312C1797.78 554.047 1823.54 539.695 1849.19 525.188C1878.07 508.848 1906.84 492.314 1935.56 475.688C1961.22 460.832 1986.84 445.899 2012.16 430.469C2016.63 427.742 2021.04 424.892 2025.47 422.094C2034.8 416.198 2044.1 410.253 2053.41 404.312C2066.26 396.103 2079.06 387.788 2091.91 379.562C2104.72 371.355 2117.52 363.157 2130.31 354.906C2234.15 287.923 2336.56 218.717 2436.81 146.469C2453.98 140.923 2461.3 116.062 2453.19 90.9375C2446.09 68.9532 2429.51 54.0728 2413.97 54.4062Z" fill="#769a89" stroke="none"/>
</g>
<g opacity="1">
<path d="M655.031 755.062C652.456 754.975 649.846 755.204 647.281 755.812C632.137 764.265 617.165 773.002 602.375 782.062C571.672 800.872 541.71 820.841 511.969 841.125C501.437 848.308 490.954 855.559 480.406 862.719C474.844 866.494 469.171 870.092 463.656 873.938C458.177 877.758 452.782 881.775 447.438 885.781C441.787 890.018 436.223 894.351 430.625 898.656C415.521 910.273 400.51 922.027 385.562 933.844C360.185 953.906 335.02 974.205 310.031 994.75C301.709 1001.59 293.407 1008.47 285.062 1015.28C282.211 1017.61 279.365 1019.94 276.469 1022.22C275.485 1022.99 274.47 1023.75 273.469 1024.5C273.182 1024.71 272.916 1024.92 272.625 1025.12C272.528 1025.19 272.216 1025.41 272.312 1025.34C272.223 1025.4 272.12 1025.44 272.031 1025.5C270.848 1026.3 269.663 1027.07 268.531 1027.94C267.165 1028.98 265.833 1030.06 264.562 1031.22C263.032 1032.62 261.546 1034.06 260.156 1035.59C258.501 1037.43 256.892 1039.32 255.438 1041.31C253.746 1043.63 252.14 1046.04 250.719 1048.53C249.133 1051.31 247.686 1054.18 246.438 1057.12C245.119 1060.24 243.966 1063.44 243.031 1066.69C242.106 1069.91 241.377 1073.19 240.844 1076.5C240.348 1079.57 240.071 1082.67 239.938 1085.78C239.82 1088.53 239.906 1091.29 240.094 1094.03C240.254 1096.37 240.6 1098.72 241 1101.03C241.334 1102.96 241.799 1104.86 242.312 1106.75C242.738 1108.32 243.256 1109.85 243.812 1111.38C245.351 1115.59 247.367 1119.24 249.812 1122.91C260.292 1138.61 279.055 1144.52 296.406 1148.94C308.084 1151.91 319.907 1154.17 331.719 1156.53C351.609 1160.51 371.561 1164.14 391.438 1168.19C415.18 1173.02 438.872 1178.16 462.594 1183.09C474.896 1185.65 487.2 1188.18 499.5 1190.75C505.868 1192.08 512.242 1193.34 518.594 1194.75C525.054 1196.18 531.541 1197.71 537.938 1199.41C543.894 1200.98 549.801 1202.8 555.75 1204.41C567.882 1207.68 580.048 1210.78 592.188 1214.03C610.211 1218.85 628.233 1223.71 646.125 1229C670.962 1236.35 695.661 1244.22 720.031 1253C731.08 1256.98 742.058 1261.19 752.969 1265.53C779.572 1275.16 811.54 1254.16 824.406 1218.62C837.272 1183.09 826.134 1146.48 799.531 1136.84C750.257 1116.98 699.677 1100.59 648.188 1087.5C638.223 1084.97 628.216 1082.58 618.188 1080.31C608.915 1078.22 599.595 1076.19 590.25 1074.44C583.922 1073.25 577.562 1072.29 571.219 1071.19C565.591 1070.21 559.99 1069.05 554.375 1068C545.028 1066.25 535.72 1064.23 526.375 1062.47C510.241 1059.43 494.089 1056.7 477.875 1054.12C463.496 1051.85 449.041 1049.93 434.625 1047.91C426.071 1046.7 417.52 1045.47 408.969 1044.25C412.833 1041.04 416.65 1037.76 420.531 1034.56C435.684 1022.09 451.02 1009.85 466.5 997.781C473.374 992.423 480.365 987.195 487.219 981.812C491.503 978.448 495.845 975.158 500.094 971.75C505.263 967.604 510.246 963.245 515.438 959.125C524.277 952.109 533.279 945.284 542.344 938.562C583.393 908.123 626.34 880.178 670.844 855.062C691.362 850.197 702.718 824.031 696.219 796.625C690.532 772.644 673.058 755.675 655.031 755.062Z" fill="#769a89" stroke="none"/>
</g>
</g>
<g id="Ebene-1-kopieren_2" opacity="0.5" visibility="hidden">
<g opacity="1">
<path d="M1964.47 105.5C1959.85 105.781 1956.02 107.443 1953.66 110.562C1945.17 134.334 1936.43 158.023 1927.31 181.562C1922.21 194.738 1917.12 207.925 1911.69 220.969C1907.82 230.246 1903.79 239.47 1899.72 248.656C1892.21 265.576 1884.38 282.339 1876.19 298.938C1870.96 309.525 1865.71 320.093 1860.44 330.656C1857.33 336.884 1854.09 343.046 1851.06 349.312C1835.43 381.683 1819.1 413.752 1802.06 445.406C1790.83 466.27 1779.36 487.001 1767.31 507.406C1742.03 550.212 1714.57 591.838 1684.38 631.344C1681.26 635.415 1678.04 639.399 1674.84 643.406C1670.46 648.905 1666.08 654.42 1661.56 659.812C1657.42 664.759 1653.13 669.587 1648.84 674.406C1645.2 678.506 1641.61 682.667 1637.88 686.688C1626.29 699.16 1614.53 711.482 1602.53 723.562C1597.75 728.375 1592.84 733.088 1588.03 737.875C1582.55 743.337 1577.08 748.795 1571.53 754.188C1568.45 757.184 1565.3 760.097 1562.22 763.094C1553.77 771.304 1545.22 779.413 1536.59 787.438C1533.06 790.728 1529.56 794.071 1526 797.344C1512.84 809.455 1499.45 821.334 1485.81 832.906C1456.75 857.573 1426.47 880.851 1395.12 902.531C1373.97 917.16 1352.31 931.126 1330.09 944.094C1266.8 981.046 1199.42 1010.86 1129.59 1033.12C1077.54 1049.72 1024.2 1062 970.344 1071.06C957.112 1073.29 943.833 1075.3 930.531 1077.06C923.802 1077.95 917.042 1078.95 910.281 1079.56C906.207 1079.93 902.114 1080.12 898.031 1080.38C889.795 1080.9 881.556 1081.31 873.312 1081.69C848.385 1082.84 823.454 1083.55 798.5 1083.72C751.084 1084.03 703.681 1082.4 656.406 1078.69C628.946 1076.53 601.578 1073.62 574.25 1070.19C550.541 1066.61 526.296 1096.86 520.125 1137.75C513.954 1178.64 528.166 1214.7 551.875 1218.28C590.715 1221.9 629.686 1224.47 668.688 1225.44C691.021 1225.99 713.353 1225.99 735.688 1225.53C752.391 1225.19 769.105 1224.6 785.781 1223.56C811.376 1221.98 836.912 1219.62 862.344 1216.31C871.926 1215.07 881.515 1213.61 891.062 1212.12C894.37 1211.61 897.657 1211.01 900.969 1210.53C905.189 1209.92 909.429 1209.47 913.656 1208.91C921.102 1207.92 928.541 1206.87 935.969 1205.75C963.248 1201.63 990.415 1196.7 1017.34 1190.69C1078.96 1176.93 1139.47 1158.21 1198.09 1134.78C1248.54 1114.62 1297.6 1090.84 1344.72 1063.81C1369.48 1049.61 1393.8 1034.64 1417.44 1018.62C1445.96 999.297 1473.51 978.632 1500.12 956.75C1522.63 938.249 1544.56 918.98 1565.44 898.656C1579.78 884.694 1593.64 870.252 1607.06 855.406C1612.04 849.897 1617.04 844.389 1621.88 838.75C1638.83 818.97 1654.92 798.46 1670.72 777.75C1687.41 755.861 1703.7 733.687 1719.78 711.344C1738.15 685.819 1756.22 660.063 1773.59 633.844C1785.35 616.093 1796.79 598.145 1808.03 580.062C1842.62 524.416 1874.47 467.071 1902.66 407.906C1905.26 402.441 1907.63 396.871 1910.09 391.344C1916.56 376.863 1922.72 362.275 1928.72 347.594C1935.6 330.752 1942.49 313.903 1949.22 297C1953.2 287.002 1957.14 276.995 1961.12 267C1967.29 251.537 1973.49 236.098 1979.47 220.562C1988.49 197.141 1997.16 173.574 2005.59 149.938C2011.9 141.618 2005.38 126.059 1991.03 115.188C1982.06 108.393 1972.17 105.031 1964.47 105.5Z" fill="#769a89" stroke="none"/>
</g>
<g opacity="1">
<path d="M853.938 883.938C852.178 883.865 850.434 884.076 848.75 884.594C841.504 892.274 833.524 899.18 825.219 905.688C820.575 909.326 815.856 912.973 810.969 916.281C809.132 917.525 807.205 918.655 805.312 919.812C802.271 921.673 799.23 923.498 796.125 925.25C792.607 927.234 789.081 929.256 785.469 931.062C780.668 933.463 775.731 935.591 770.875 937.875C768.133 939.165 765.42 940.564 762.688 941.875C760.327 943.007 757.912 944.033 755.594 945.25C753.177 946.519 750.824 947.956 748.438 949.281C743.575 951.981 738.688 954.636 733.812 957.312C725.899 961.656 717.982 965.95 710.062 970.281C699.509 976.054 688.977 981.895 678.25 987.344C666.111 993.51 653.811 999.395 641.375 1004.94C634.794 1007.87 628.184 1010.71 621.5 1013.41C619.062 1014.39 616.653 1015.4 614.188 1016.31C611.405 1017.34 608.579 1018.29 605.781 1019.28C603.424 1020.11 601.065 1020.98 598.688 1021.75C596.008 1022.62 593.269 1023.35 590.562 1024.12C579.836 1027.21 569 1029.83 558.188 1032.59C555.251 1033.34 552.296 1034 549.375 1034.81C546.887 1035.5 544.412 1036.3 541.938 1037.03C539.037 1037.89 536.107 1038.69 533.219 1039.59C530.529 1040.43 527.891 1041.39 525.219 1042.28C520.202 1043.96 515.191 1045.66 510.219 1047.47C505.859 1049.05 501.506 1050.61 497.156 1052.22C493.58 1053.54 489.764 1054.68 486.469 1056.66C485.223 1057.4 483.959 1058.17 482.812 1059.06C480.973 1060.49 479.121 1061.92 477.531 1063.62C474.773 1066.59 471.922 1069.55 469.812 1073C466.099 1079.08 462.418 1085.31 460.156 1092.06C456.955 1101.62 454.548 1111.53 453.562 1121.56C452.697 1130.37 453.443 1139.33 454.625 1148.09C455.338 1153.38 457.289 1158.45 459.188 1163.44C460.248 1166.22 461.888 1168.75 463.469 1171.28C464.411 1172.79 465.592 1174.15 466.75 1175.5C467.5 1176.37 468.344 1177.16 469.188 1177.94C471.67 1180.24 474.44 1181.66 477.312 1183.28C479.203 1184.35 481.083 1185.4 482.969 1186.47C490.727 1190.88 498.465 1195.34 506.219 1199.75C523.225 1209.43 540.271 1219.05 557.125 1229C567.361 1235.04 577.483 1241.27 587.562 1247.56C607.42 1259.97 627.052 1272.79 646.406 1285.97C661.075 1295.96 675.53 1306.24 689.938 1316.59C699.54 1323.5 709.181 1330.37 718.688 1337.41C721.674 1339.62 724.629 1341.85 727.594 1344.09C729.278 1345.37 731.046 1346.57 732.656 1347.94C734.306 1349.34 735.872 1350.85 737.469 1352.31C740.258 1354.86 743.024 1357.42 745.812 1359.97C754.207 1367.64 762.679 1375.25 771.062 1382.94C784.095 1394.88 797.006 1406.92 809.344 1419.59C820.476 1431.03 831.071 1442.9 840.375 1455.88C860.052 1465.97 890.119 1446.66 907.531 1412.72C924.943 1378.78 923.115 1343.06 903.438 1332.97C885.341 1310.56 864.158 1290.98 841.844 1272.84C829.938 1263.17 817.691 1253.83 805.031 1245.16C799.834 1241.6 794.614 1238.07 789.281 1234.72C786.153 1232.75 783.016 1230.79 779.875 1228.84C778.527 1228.01 777.136 1227.22 775.812 1226.34C773.994 1225.14 772.258 1223.79 770.5 1222.5C768.282 1220.88 766.04 1219.27 763.812 1217.66C754.405 1210.86 744.981 1204.09 735.406 1197.53C719.178 1186.41 702.732 1175.6 686.219 1164.91C672.977 1156.33 659.729 1147.76 646.406 1139.31C637.474 1133.65 628.535 1128 619.594 1122.34C621.468 1121.45 623.306 1120.47 625.188 1119.59C645.382 1110.19 665.752 1101.13 686.156 1092.19C696.82 1087.51 707.513 1082.9 718.062 1077.97C729.112 1072.81 740.068 1067.4 750.812 1061.62C754.244 1059.78 757.657 1057.89 761.062 1056C762.756 1055.06 764.468 1054.16 766.125 1053.16C768.674 1051.61 771.144 1049.9 773.625 1048.25C776.485 1046.35 779.348 1044.45 782.156 1042.47C787 1039.06 791.71 1035.44 796.438 1031.88C798.764 1030.12 801.147 1028.47 803.5 1026.75C806.908 1024.26 810.3 1021.74 813.688 1019.22C817.745 1016.2 821.76 1013.12 825.812 1010.09C828.246 1008.28 830.745 1006.59 833.188 1004.78C837.334 1001.72 841.445 998.566 845.469 995.344C855.757 987.107 865.539 978.301 874.594 968.719C888.064 964.58 893.2 942.388 886.062 919.156C879.817 898.829 866.257 884.445 853.938 883.938Z" fill="#769a89" stroke="none"/>
</g>
</g>
</svg>
