<?xml version="1.0" encoding="UTF-8" standalone="no"?>
<!DOCTYPE svg PUBLIC "-//W3C//DTD SVG 1.1//EN" "http://www.w3.org/Graphics/SVG/1.1/DTD/svg11.dtd">
<!-- Created with Vectornator (http://vectornator.io/) -->
<svg height="100%" stroke-miterlimit="10" style="fill-rule:nonzero;clip-rule:evenodd;stroke-linecap:round;stroke-linejoin:round;" version="1.1" viewBox="0 0 2500 1536" width="100%" xml:space="preserve" xmlns="http://www.w3.org/2000/svg" xmlns:xlink="http://www.w3.org/1999/xlink">
<defs/>
<clipPath id="ArtboardFrame">
<rect height="1536" width="2500" x="0" y="0"/>
</clipPath>
<g clip-path="url(#ArtboardFrame)" id="Ebene-1" visibility="hidden">
<g opacity="1">
<path d="M2428.25 22.1562C2408.88 21.5133 2392.4 31.3591 2389.59 46.3125C2379.12 89.5164 2367.35 132.408 2353.69 174.719C2342.28 210.045 2329.77 245.011 2315.88 279.438C2304.15 308.5 2291.46 337.192 2277.75 365.375C2266.19 389.134 2253.85 412.474 2240.78 435.438C2228.44 457.136 2215.29 478.401 2201.47 499.188C2142.82 587.379 2070.28 667.233 1983.25 728.125C1962.36 742.743 1940.67 756.275 1918.22 768.375C1900.44 777.955 1882.27 786.734 1863.72 794.719C1846.58 802.096 1829.23 808.896 1811.53 814.812C1778.05 826.001 1743.6 834.378 1708.69 839.562C1716.59 801.489 1720.66 762.544 1720.72 723.688C1720.8 672.657 1714.55 621.492 1700.75 572.312C1690.2 534.694 1675.2 498.063 1654.62 464.781C1646.19 451.137 1636.76 438.139 1626.53 425.781C1594.54 387.119 1554.2 355.265 1507.91 335.531C1473.63 320.921 1436.57 313.079 1399.31 312.562C1336.26 311.689 1273.19 331.672 1222.56 369.375C1205.59 382.018 1190.07 396.587 1176.47 412.812C1161.44 430.749 1148.78 450.69 1139.03 471.969C1128.38 495.224 1121.19 520.039 1117.88 545.406C1115.79 561.375 1115.21 577.547 1116.16 593.625C1116.89 606.135 1118.53 618.596 1121.03 630.875C1135.53 702.104 1178.27 763.762 1229.5 813.875C1252.5 836.373 1277.73 856.601 1304.62 874.25C1326.73 888.752 1349.92 901.577 1373.97 912.562C1397.2 923.177 1421.2 932.11 1445.69 939.375C1481.52 950.006 1518.26 956.81 1555.28 960.25C1555.06 960.558 1554.85 960.881 1554.62 961.188C1542.73 977.297 1529.26 992.294 1515.03 1006.38C1472.74 1048.23 1422.88 1081.98 1369.97 1108.94C1314.54 1137.18 1255.71 1158.28 1195.44 1173.5C1157.66 1183.04 1119.22 1189.96 1080.69 1195.59C1030.8 1202.89 980.436 1207.04 930.062 1208.88C854.291 1211.64 778.339 1209.03 702.844 1202.16C654.737 1197.78 606.807 1191.65 559.094 1184.12C454.459 1167.62 350.951 1144.18 249 1115.5C211.067 1104.83 173.381 1093.36 135.844 1081.38C108.857 1072.81 77.69 1095.11 66.25 1131.16C54.81 1167.2 67.419 1203.34 94.4062 1211.91C125.238 1221.78 156.188 1231.35 187.281 1240.38C265.605 1263.11 344.792 1282.9 424.75 1299C545.307 1323.27 667.743 1339.12 790.719 1343.03C895.618 1346.36 1001.19 1340.71 1104.56 1322.06C1135.89 1316.41 1166.96 1309.26 1197.72 1301.09C1231.28 1292.19 1264.4 1281.82 1296.97 1269.78C1356.6 1247.74 1414.21 1219.74 1467.19 1184.47C1496.77 1164.78 1524.85 1142.85 1550.94 1118.72C1585.8 1086.48 1617.11 1050.12 1642.06 1009.66C1651.91 993.688 1660.78 977.15 1668.75 960.188C1721.23 955.348 1773.18 944.078 1822.97 926.844C1842.47 920.095 1861.75 912.587 1880.56 904.094C1910.71 890.479 1939.82 874.638 1967.97 857.281C2066.87 796.298 2151.77 714.442 2221.78 622.062C2239.53 598.638 2256.34 574.492 2272.25 549.781C2291.12 520.478 2308.74 490.365 2325.16 459.625C2343.54 425.207 2360.46 390.011 2376 354.219C2394.57 311.442 2411.2 267.814 2426 223.594C2443.82 170.365 2459.07 116.34 2472.25 61.7812C2475.45 44.6917 2459.55 27.37 2436.72 23.0938C2433.87 22.5592 2431.02 22.2481 2428.25 22.1562ZM1373.38 433.375C1393.72 432.839 1414.15 435.169 1433.84 440.312C1453.95 445.563 1473.29 453.743 1491.12 464.406C1504.1 472.163 1516.28 481.22 1527.53 491.312C1542.92 505.126 1556.78 520.839 1568.47 537.906C1585.08 562.156 1597.17 589.314 1605.91 617.312C1621.71 667.958 1626.34 721.711 1621.97 774.469C1620.23 795.449 1616.82 816.41 1611.75 836.844C1611.05 839.662 1610.2 842.448 1609.44 845.25C1527.49 842.4 1446.31 820.65 1375.69 778.344C1350.77 763.415 1327.44 746.029 1305.94 726.5C1296.37 717.808 1287.25 708.609 1278.53 699.062C1271.73 691.611 1265.19 683.904 1259 675.938C1253.88 669.355 1249.02 662.592 1244.44 655.625C1231.36 635.742 1220.52 614.086 1214.66 590.938C1210.92 576.18 1209.36 560.701 1211.41 545.562C1212.1 540.403 1213.24 535.285 1214.78 530.312C1224.73 498.3 1251.53 473.668 1280.19 457.938C1290.78 452.125 1301.93 447.377 1313.41 443.625C1332.77 437.295 1353.03 433.911 1373.38 433.375Z" fill="#769a89" stroke="none"/>
</g>
<g opacity="1">
<path d="M562.656 1004C548.83 1008 534.836 1011.37 520.781 1014.47C505.435 1017.85 490.026 1020.9 474.562 1023.69C455.694 1027.09 436.755 1030.13 417.781 1032.88C409.512 1034.07 401.232 1035.27 392.938 1036.28C386.195 1037.11 379.418 1037.91 372.656 1038.56C366.452 1039.16 360.226 1039.57 354.031 1040.25C341.548 1041.62 329.101 1043.42 316.656 1045.09C303.265 1046.9 289.88 1048.63 276.469 1050.28C236.968 1055.14 197.368 1059.17 157.781 1063.25C137.998 1065.29 118.226 1067.39 98.4375 1069.38C94.312 1069.79 90.1891 1070.19 86.0625 1070.59C81.7834 1071.01 77.2699 1071.19 73.0938 1072.31C71.7375 1072.68 70.3732 1073.06 69.0625 1073.56C67.0974 1074.32 65.1161 1075.06 63.2812 1076.09C60.3531 1077.74 57.3856 1079.4 54.8438 1081.59C50.6507 1085.22 46.3666 1088.91 43.2188 1093.47C38.5363 1100.26 34.2096 1107.5 31.5625 1115.31C28.7599 1123.58 27.4695 1132.37 27.0625 1141.09C26.7696 1147.37 28.1116 1153.65 29.5 1159.78C30.3466 1163.52 32.0666 1167.01 33.7188 1170.47C34.7376 1172.6 36.1147 1174.53 37.4688 1176.47C38.3564 1177.74 39.4066 1178.91 40.4375 1180.06C43.405 1183.39 46.9986 1185.79 50.5625 1188.34C52.996 1190.09 55.4144 1191.84 57.8438 1193.59C63.2627 1197.5 68.6911 1201.41 74.0938 1205.34C92.3353 1218.61 110.256 1232.32 128 1246.25C147.105 1261.24 166.029 1276.49 185.094 1291.53C195.229 1299.53 205.392 1307.49 215.562 1315.44C220.944 1319.64 226.384 1323.73 231.719 1328C237.127 1332.32 242.562 1336.67 247.812 1341.19C252.652 1345.35 257.395 1349.64 262.25 1353.78C276.885 1366.26 291.742 1378.5 306.469 1390.88C328.831 1409.66 351.074 1428.58 372.531 1448.41C380.489 1455.76 388.333 1463.25 395.906 1471C402.536 1477.78 409.002 1484.77 414.812 1492.28C435.807 1509.17 471.127 1500.1 493.688 1472.06C516.248 1444.02 517.525 1407.61 496.531 1390.72C484.775 1375.42 471.312 1361.5 457.5 1348.06C440.544 1331.57 422.867 1315.81 404.844 1300.5C384.571 1283.28 364.01 1266.41 342.875 1250.25C337.787 1246.36 332.687 1242.46 327.531 1238.66C321.896 1234.5 316.046 1230.65 310.406 1226.5C305.713 1223.05 301.052 1219.53 296.375 1216.06C290.299 1211.55 284.385 1206.84 278.344 1202.28C265.284 1192.43 252.122 1182.68 238.844 1173.12C238.212 1172.67 237.57 1172.23 236.938 1171.78C237.177 1171.75 237.417 1171.72 237.656 1171.69C259.901 1168.67 282.137 1165.69 304.375 1162.62C319.352 1160.56 334.361 1158.58 349.25 1155.94C356.198 1154.7 363.102 1153.11 370.031 1151.78C389.261 1148.09 408.549 1144.73 427.812 1141.22C451.023 1136.98 474.198 1132.71 497.312 1127.97C521.177 1123.08 544.998 1117.7 568.375 1110.81C590.456 1109.63 607.078 1084.77 605.5 1055.28C603.922 1025.79 584.737 1002.82 562.656 1004Z" fill="#769a89" stroke="none"/>
</g>
</g>
<g id="Ebene-1-kopieren-kopieren" visibility="hidden">
<g opacity="1">
<path d="M2346.88 62.5312C2333.71 62.579 2322.83 68.3745 2320.09 77.9688C2318.47 88.8327 2316.49 99.6421 2314 110.344C2297.71 180.393 2264.17 245.749 2223.94 304.938C2198.68 342.1 2170.49 377.164 2140.31 410.438C2131.97 419.638 2123.5 428.749 2114.84 437.656C2098.86 454.102 2082.29 470.017 2065.41 485.531C2058.47 491.905 2051.44 498.164 2044.44 504.469C2038.9 509.459 2033.41 514.506 2027.84 519.469C2016.54 529.55 2005.09 539.488 1993.53 549.281C1968.9 570.153 1943.67 590.269 1917.91 609.719C1802.49 696.849 1676.87 769.735 1547.5 834C1458.2 878.359 1366.51 917.91 1272.59 951.438C1259.83 955.994 1246.98 960.356 1234.12 964.656C1183.68 981.535 1132.62 996.449 1081.19 1010C1035.47 1022.05 989.392 1032.83 943.031 1042.12C924.023 1045.94 904.994 1049.66 885.875 1052.88C869.886 1055.57 853.849 1057.98 837.781 1060.16C820.825 1062.45 803.766 1064.16 786.75 1065.94C687.87 1076.28 588.142 1079.66 489.094 1069.56C428.748 1063.41 368.738 1052.19 310.875 1033.81C291.894 1027.78 273.226 1020.92 254.812 1013.34C229.931 1008.25 203.706 1033.62 196.25 1070.03C188.794 1106.44 202.931 1140.09 227.812 1145.19C247.996 1153.53 268.474 1161.1 289.281 1167.75C370.029 1193.55 454.467 1206.61 539 1210.91C614.764 1214.76 690.831 1211.8 766.188 1203.25C775.524 1202.19 784.845 1201.08 794.156 1199.81C816.541 1196.77 838.872 1193.11 861.156 1189.41C924.94 1178.82 988.31 1165.85 1050.88 1149.5C1149.09 1123.83 1245.31 1090.94 1339.81 1053.97C1391.38 1033.79 1442.41 1012.15 1492.72 989C1536.46 968.866 1579.73 947.574 1622.19 924.844C1697.33 884.613 1770.34 840.507 1840.81 792.562C1885.32 762.281 1928.89 730.661 1971.25 697.438C1994.48 679.221 2017.3 660.46 2039.66 641.188C2049.97 632.294 2060.17 623.255 2070.25 614.094C2075.24 609.559 2080.27 605.049 2085.16 600.406C2093.67 592.32 2101.99 584.008 2110.28 575.688C2126.58 559.319 2142.46 542.565 2158 525.469C2169.15 513.196 2180.21 500.842 2190.97 488.219C2218.7 455.688 2244.87 421.799 2268.84 386.406C2285.41 361.945 2300.77 336.664 2314.84 310.688C2339.41 265.348 2359.63 217.481 2373.31 167.719C2379.68 144.57 2384.51 121.049 2387.88 97.2812C2391.52 84.4889 2379.31 69.806 2360.59 64.4688C2355.91 63.1344 2351.26 62.5153 2346.88 62.5312Z" fill="#769a89" stroke="none"/>
</g>
<g opacity="1">
<path d="M574.594 915.062C522.696 924.971 470.715 934.53 418.406 942.031C405.747 943.847 393.054 945.511 380.344 946.938C373.665 947.687 366.96 948.1 360.281 948.844C353.864 949.559 347.434 950.471 341.031 951.312C332.614 952.419 324.229 953.663 315.812 954.781C298.401 957.094 280.957 959.246 263.5 961.188C230.935 964.809 198.261 967.552 165.594 970.062C148.188 971.4 130.761 972.556 113.406 974.469C99.728 975.976 85.7468 977.969 73.3438 984.281C66.3328 987.849 59.9519 992.606 54.5 998.281C53.0227 999.819 51.594 1001.41 50.25 1003.06C48.7849 1004.87 47.3969 1006.73 46.0938 1008.66C44.6463 1010.79 43.2886 1012.99 42.0312 1015.25C40.7868 1017.48 39.6386 1019.76 38.5938 1022.09C37.5524 1024.42 36.6213 1026.78 35.7812 1029.19C34.9372 1031.6 34.1701 1034.08 33.5312 1036.56C32.9003 1039.01 32.3568 1041.47 31.9688 1043.97C31.4678 1047.19 31.0377 1050.43 30.875 1053.69C30.7104 1056.99 30.7573 1060.3 30.9688 1063.59C31.1444 1066.33 31.5468 1069.05 32.0312 1071.75C32.4429 1074.04 33.0111 1076.32 33.6562 1078.56C34.2211 1080.52 34.9155 1082.44 35.6562 1084.34C36.2572 1085.89 36.9629 1087.39 37.6875 1088.88C45.2228 1104.35 59.2111 1114.82 72.75 1124.72C79.4339 1129.61 86.2139 1134.38 93 1139.12C102.121 1145.5 111.211 1151.88 120.25 1158.38C142.082 1174.06 163.512 1190.29 185 1206.44C195.544 1214.36 206.092 1222.28 216.625 1230.22C222.135 1234.37 227.721 1238.44 233.156 1242.69C238.417 1246.8 243.694 1250.93 248.812 1255.22C253.715 1259.33 258.525 1263.56 263.438 1267.66C278.271 1280.03 293.305 1292.17 308.219 1304.44C317.512 1312.08 326.862 1319.66 336.125 1327.34C367.515 1353.38 398.656 1379.71 429.406 1406.5C453.076 1420.89 487.847 1406.9 507.062 1375.28C526.278 1343.67 522.669 1306.39 499 1292C453.782 1252.27 407.929 1213.2 360.344 1176.31C349.694 1168.06 338.963 1159.91 328.031 1152.03C322.265 1147.88 316.308 1143.98 310.531 1139.84C299.734 1132.11 289.096 1124.12 278.375 1116.28C268.698 1109.2 258.925 1102.24 249.094 1095.38C242.496 1090.77 235.78 1086.35 229.094 1081.88C242.377 1080.27 255.666 1078.66 268.938 1076.94C284.769 1074.88 300.595 1072.74 316.406 1070.53C326.605 1069.11 336.777 1067.64 346.938 1065.97C349.881 1065.48 352.848 1065.04 355.781 1064.5C362.667 1063.23 369.472 1061.59 376.344 1060.25C389.669 1057.65 403.016 1055.17 416.375 1052.75C468.789 1043.25 521.226 1033.78 573.5 1023.53C595.923 1023.76 614.35 999.67 614.656 969.719C614.963 939.768 597.017 915.292 574.594 915.062Z" fill="#769a89" stroke="none"/>
</g>
</g>
<g id="Ebene-1-kopieren" visibility="hidden">
<g opacity="1">
<path d="M1925.25 481.406C1912.09 481.527 1901.24 487.398 1898.56 497C1895.22 519.535 1890.9 541.911 1885.31 564C1876.36 599.356 1864.41 633.875 1849.34 667.094C1834.64 699.527 1816.89 730.529 1796.5 759.719C1790.2 768.744 1783.66 777.661 1776.81 786.281C1766.65 799.073 1755.89 811.426 1744.69 823.312C1739.61 828.699 1734.37 833.939 1729.22 839.25C1712.43 856.542 1694.97 873.151 1676.59 888.75C1640.7 919.221 1601.69 946.022 1560.72 969.188C1526.22 988.69 1490.28 1005.65 1453.56 1020.53C1439.93 1026.06 1426.25 1031.39 1412.41 1036.38C1367.95 1052.38 1322.62 1065.73 1276.69 1076.78C1236.83 1086.37 1196.45 1093.83 1155.84 1099.41C1107.53 1106.04 1058.87 1109.79 1010.12 1111.28C948.411 1113.17 886.531 1112.16 824.906 1108.34C810.952 1107.48 797.002 1106.29 783.094 1104.88C770.507 1103.6 757.957 1101.96 745.406 1100.38C727.055 1098.06 708.688 1095.76 690.375 1093.16C664.259 1089.44 638.237 1085.25 612.25 1080.72C582.604 1075.55 553.093 1069.56 523.719 1063.03C487.666 1055.02 451.814 1046.2 416.219 1036.34C389.27 1028.89 362.493 1020.81 335.844 1012.34C310.589 1008.27 285.274 1034.92 279.312 1071.88C273.351 1108.83 288.995 1142.08 314.25 1146.16C365.011 1162.4 416.252 1177.07 468.062 1189.59C507.197 1199.05 546.647 1207.27 586.281 1214.34C636.212 1223.26 686.522 1230.22 737.062 1234.56C750.136 1235.69 763.248 1236.39 776.344 1237.19C786.408 1237.8 796.463 1238.52 806.531 1239.09C826.115 1240.21 845.704 1241.25 865.312 1241.84C901.03 1242.92 936.792 1242.82 972.5 1241.47C1020.94 1239.63 1069.29 1235.3 1117.38 1229.22C1213.65 1217.04 1309.25 1197.47 1401 1165.5C1412.81 1161.39 1424.54 1156.99 1436.19 1152.44C1449.99 1147.05 1463.69 1141.41 1477.25 1135.44C1526.56 1113.71 1574.07 1088.02 1619.31 1058.75C1652.44 1037.32 1684.17 1013.75 1714.16 988.094C1735.04 970.227 1755.18 951.382 1773.91 931.25C1779.47 925.266 1784.81 919.041 1790.09 912.812C1803.01 897.596 1815.23 881.83 1826.97 865.688C1856.52 825.049 1882.37 781.664 1903.25 735.938C1920.82 697.465 1935.18 657.589 1946.19 616.75C1955.11 583.624 1961.73 549.917 1966.41 515.938C1969.98 503.135 1957.67 488.511 1938.94 483.281C1934.25 481.974 1929.64 481.366 1925.25 481.406Z" fill="#769a89" stroke="none"/>
</g>
<g opacity="1">
<path d="M774.062 937.312C772.721 937.27 771.358 937.328 770 937.469C745.068 946.551 718.897 952.536 692.844 957.375C672.363 961.179 651.742 964.25 631.062 966.75C621.806 967.869 612.536 968.935 603.25 969.781C596.647 970.383 590.025 970.945 583.406 971.344C577.278 971.713 571.125 971.9 565 972.312C561.663 972.537 558.334 972.88 555 973.156C544.964 973.986 534.935 974.939 524.906 975.844C505.852 977.563 486.797 979.132 467.719 980.562C438.819 982.729 409.887 984.439 381 986.781C368.413 987.802 355.832 988.88 343.281 990.281C330.586 991.699 317.875 993.266 305.344 995.781C294.857 997.886 284.334 1000.72 274.969 1006.03C269.068 1009.38 263.597 1013.59 258.969 1018.56C257.397 1020.25 255.85 1021.99 254.438 1023.81C252.802 1025.92 251.251 1028.08 249.844 1030.34C248.177 1033.03 246.59 1035.79 245.25 1038.66C243.647 1042.08 242.191 1045.59 241.031 1049.19C239.834 1052.91 238.833 1056.71 238.188 1060.56C237.471 1064.84 237.043 1069.17 236.938 1073.5C236.849 1077.13 237.172 1080.77 237.594 1084.38C237.903 1087.02 238.491 1089.6 239.125 1092.19C239.615 1094.18 240.277 1096.16 240.969 1098.09C241.534 1099.68 242.211 1101.22 242.906 1102.75C248.907 1115.95 260.227 1125.5 271.469 1134.16C286.277 1145.55 301.778 1156.01 317.125 1166.66C327.101 1173.58 337.001 1180.61 346.938 1187.59C364.88 1200.2 382.707 1212.98 400.688 1225.53C410.524 1232.4 420.334 1239.27 430.156 1246.16C436.039 1250.28 442.017 1254.31 447.812 1258.56C452.768 1262.19 457.726 1265.81 462.594 1269.56C467.917 1273.66 473.034 1278.03 478.312 1282.19C495.393 1295.64 512.51 1309.02 529.344 1322.78C541.731 1332.91 553.864 1343.37 565.594 1354.25C572.815 1360.95 579.909 1367.79 586.75 1374.88C593.177 1381.54 599.404 1388.39 605.188 1395.62C610.732 1402.56 615.893 1409.82 620.094 1417.66C638.099 1436.47 673.058 1432.21 698.188 1408.16C723.317 1384.11 729.099 1349.38 711.094 1330.56C700.202 1310.06 685.964 1291.57 670.406 1274.41C656.87 1259.48 642.355 1245.45 627.219 1232.16C604.664 1212.34 581.167 1193.55 556.719 1176.12C551.531 1172.43 546.335 1168.73 541.062 1165.16C535.34 1161.27 529.453 1157.63 523.688 1153.81C518.911 1150.65 514.195 1147.38 509.438 1144.19C503.265 1140.05 497.202 1135.75 491.062 1131.56C480.941 1124.65 470.682 1117.93 460.406 1111.25C454.338 1107.31 448.19 1103.51 442.062 1099.66C444.823 1099.4 447.583 1099.13 450.344 1098.88C470.069 1097.02 489.806 1095.3 509.531 1093.44C524.957 1091.98 540.376 1090.48 555.75 1088.53C563.226 1087.59 570.615 1086.08 578.062 1084.94C597.986 1081.87 617.937 1078.99 637.844 1075.81C658.452 1072.53 678.982 1068.92 699.438 1064.78C727.013 1059.2 754.46 1052.33 780.875 1042.56C802.605 1040.32 817.781 1014.96 814.781 985.938C811.969 958.726 794.181 937.953 774.062 937.312Z" fill="#769a89" stroke="none"/>
</g>
</g>
<g id="Ebene-1-kopieren-kopieren-kopieren-kopieren" visibility="hidden">
<g opacity="1">
<path d="M1936.38 655.219C1889.73 657.378 1843.25 661.613 1796.84 666.75C1745.62 672.421 1694.51 679.104 1643.47 686.219C1624.36 688.882 1605.24 691.45 1586.12 694.062C1576.12 695.43 1566.07 696.679 1556.09 698.219C1549.19 699.284 1542.32 700.599 1535.44 701.812C1519.58 704.609 1503.73 707.541 1487.91 710.5C1453.61 716.913 1419.35 723.506 1385.09 730.156C1317.04 743.369 1249.05 756.859 1181.47 772.344C1124.91 785.304 1068.65 799.628 1012.5 814.25C977.755 823.298 943.05 832.431 908.344 841.625C876.155 850.152 843.964 858.722 811.938 867.844C780.508 876.795 749.186 886.17 718 895.938C704.718 900.097 691.518 904.484 678.25 908.688C667.492 912.096 656.738 915.534 645.969 918.906C634.887 922.376 623.747 925.645 612.688 929.188C590.76 936.212 568.97 943.672 547.25 951.312C518.344 961.481 489.627 972.179 461.031 983.188C391.527 1009.94 322.986 1039.14 255.812 1071.31C231.261 1076.51 217.523 1109.86 225.125 1145.78C232.727 1181.71 258.792 1206.6 283.344 1201.41C350.297 1169.53 418.682 1140.82 487.781 1113.94C524.967 1099.47 562.408 1085.63 599.875 1071.91C610.619 1067.97 621.358 1064.08 632.094 1060.12C642.946 1056.13 653.736 1051.96 664.625 1048.06C675.171 1044.29 685.805 1040.68 696.406 1037.06C707.826 1033.17 719.342 1029.56 730.812 1025.81C763.227 1015.24 795.728 1004.93 828.219 994.594C858.975 984.808 889.784 975.187 920.688 965.875C934.131 961.824 947.562 957.765 961.062 953.906C983.095 947.609 1005.18 941.404 1027.31 935.469C1093.7 917.665 1160.45 901.154 1227.19 884.719C1294.31 868.19 1361.5 851.868 1429.16 837.656C1456 832.018 1482.87 826.586 1509.81 821.469C1521.8 819.193 1533.79 816.929 1545.78 814.688C1551.87 813.55 1557.96 812.502 1564.03 811.281C1569.7 810.141 1575.34 808.849 1581 807.656C1597.94 804.087 1614.9 800.485 1631.91 797.25C1674.02 789.238 1716.34 782.289 1758.75 776.031C1787.92 771.727 1817.17 767.933 1846.47 764.656C1876.81 761.264 1907.19 758.454 1937.66 756.531C1956.77 756.29 1972.01 733.412 1971.66 705.438C1971.3 677.463 1955.49 654.978 1936.38 655.219Z" fill="#769a89" stroke="none"/>
</g>
<g opacity="1">
<path d="M566.906 792.188C564.331 792.101 561.752 792.359 559.188 792.969C517.401 816.327 477.442 842.703 438.188 870.062C422.392 881.071 406.723 892.263 391 903.375C385.091 907.551 379.016 911.493 373.188 915.781C361.671 924.254 350.492 933.154 339.312 942.062C322.635 955.353 306.106 968.819 289.594 982.312C261.262 1005.47 233.334 1029.12 205.562 1052.94C196.308 1060.88 187.158 1068.91 177.875 1076.81C175.032 1079.23 172.166 1081.66 169.281 1084.03C167.748 1085.29 166.219 1086.6 164.594 1087.75C164.509 1087.81 164.429 1087.88 164.344 1087.94C163.262 1088.67 162.16 1089.36 161.125 1090.16C159.778 1091.19 158.474 1092.26 157.219 1093.41C155.707 1094.79 154.219 1096.2 152.844 1097.72C151.204 1099.53 149.631 1101.41 148.188 1103.38C146.505 1105.67 144.886 1108.03 143.469 1110.5C141.881 1113.26 140.442 1116.1 139.188 1119.03C137.857 1122.14 136.698 1125.32 135.75 1128.56C134.806 1131.79 134.049 1135.09 133.5 1138.41C132.987 1141.51 132.708 1144.64 132.562 1147.78C132.433 1150.56 132.505 1153.38 132.688 1156.16C132.844 1158.53 133.16 1160.87 133.562 1163.22C133.899 1165.18 134.385 1167.11 134.906 1169.03C137.372 1178.11 142.221 1186.55 149.125 1192.97C159.184 1202.32 172.349 1205.59 185.594 1207.16C191.709 1207.88 197.85 1208.26 204 1208.53C218.497 1209.18 232.996 1209.32 247.5 1209.66C266.561 1210.1 285.609 1210.73 304.656 1211.59C324.548 1212.49 344.435 1213.57 364.312 1214.75C370.773 1215.13 377.23 1215.57 383.688 1216C389.252 1216.37 394.852 1216.71 400.406 1217.22C406.586 1217.78 412.752 1218.42 418.906 1219.22C425.168 1220.03 431.418 1221.12 437.656 1222.09C444.551 1223.17 451.441 1224.16 458.344 1225.19C503.427 1231.89 548.333 1241 591.875 1254.59C607.113 1259.35 622.096 1264.75 636.938 1270.62C663.553 1280.23 695.55 1259.21 708.375 1223.66C721.2 1188.11 710.022 1151.48 683.406 1141.88C666.834 1135.23 650.051 1129.15 633.031 1123.75C597.657 1112.53 561.4 1104.11 524.781 1098.12C514.223 1096.4 503.621 1094.93 493 1093.66C483.23 1092.48 473.442 1091.45 463.625 1090.75C456.813 1090.26 449.971 1090.1 443.156 1089.69C436.513 1089.29 429.86 1088.9 423.219 1088.47C416.203 1088.02 409.209 1087.46 402.188 1087.09C389.805 1086.45 377.396 1086.08 365 1085.84C350.546 1085.57 336.11 1085.71 321.656 1086C336.627 1073.15 351.685 1060.44 366.969 1047.97C381.21 1036.34 395.641 1024.92 409.969 1013.41C415.467 1008.99 420.707 1004.27 426.125 999.75C432.816 994.17 439.67 988.765 446.562 983.438C489.833 949.996 535.154 919.102 582.781 892.188C603.294 887.311 614.638 861.149 608.125 833.75C602.426 809.776 584.93 792.79 566.906 792.188Z" fill="#769a89" stroke="none"/>
</g>
</g>
<g id="Ebene-1-kopieren-kopieren_2">
<g opacity="1">
<path d="M1571.19 542.469C1552.05 543.02 1536.84 554.074 1537.22 567.156C1537.11 584.633 1536.53 602.105 1535.16 619.531C1532.48 653.37 1527.24 686.938 1518.88 719.844C1515.14 734.512 1510.84 749.068 1505.72 763.312C1500.64 777.42 1495.08 791.374 1488.75 804.969C1486.17 810.5 1483.42 815.951 1480.56 821.344C1477.22 827.655 1473.84 833.952 1470.19 840.094C1467.51 844.604 1464.72 849.046 1462 853.531C1454.36 866.142 1446.35 878.51 1437.72 890.469C1418.39 917.232 1395.98 941.831 1371.16 963.594C1329.88 999.786 1282.11 1027.92 1231.78 1049.56C1168.56 1076.74 1100.95 1093.82 1032.53 1100.94C982.987 1106.09 933.081 1106.05 883.375 1103.66C863.825 1102.71 844.301 1101.31 824.812 1099.5C814.917 1098.58 804.998 1097.64 795.125 1096.5C785.033 1095.33 774.943 1093.91 764.906 1092.34C755.043 1090.8 745.256 1088.86 735.438 1087.06C725.847 1085.31 716.259 1083.61 706.688 1081.75C663.195 1073.31 619.9 1063.8 577.062 1052.47C549.705 1045.23 522.462 1037.52 495.406 1029.22C468.404 1020.93 441.604 1012.06 414.938 1002.75C389.8 998.324 364.164 1024.56 357.688 1061.34C351.211 1098.12 366.363 1131.51 391.5 1135.94C445.21 1154.85 499.542 1172.11 554.656 1186.47C597.144 1197.54 640.007 1207.14 683.281 1214.59C696.824 1216.93 710.398 1219.11 724.031 1220.84C734.342 1222.16 744.7 1223.17 755.031 1224.31C765.17 1225.43 775.286 1226.59 785.438 1227.59C796.199 1228.66 806.971 1229.8 817.75 1230.69C839.075 1232.44 860.451 1233.6 881.844 1234.03C933.988 1235.08 986.079 1231.88 1037.78 1225.12C1058.19 1222.46 1078.5 1219.23 1098.69 1215.19C1108.63 1213.2 1118.56 1211.12 1128.44 1208.81C1148.9 1204.02 1169.17 1198.4 1189.16 1191.91C1231.85 1178.03 1273.15 1159.71 1311.81 1136.88C1345.68 1116.88 1377.56 1093.33 1406.72 1066.94C1437.65 1038.94 1465.79 1007.88 1490.12 973.969C1498.71 962 1506.87 949.757 1514.5 937.156C1516.68 933.552 1518.91 929.957 1520.97 926.281C1523.85 921.139 1526.52 915.867 1529.22 910.625C1536.99 895.512 1543.95 880.035 1550.53 864.375C1557.91 846.832 1564.6 828.99 1570.44 810.875C1575.39 795.509 1579.9 780.031 1583.84 764.375C1591.91 732.365 1597.64 699.726 1601.41 666.938C1605.28 633.15 1606.77 599.154 1606.53 565.156C1606.15 552.074 1590.33 541.918 1571.19 542.469Z" fill="#769a89" stroke="none"/>
</g>
<g opacity="1">
<path d="M769.812 887.688C768.466 887.62 767.086 887.634 765.719 887.75C713.484 905.331 660.98 922.227 607.75 936.562C595.004 939.995 582.224 943.256 569.375 946.281C562.602 947.876 555.765 949.199 548.969 950.688C542.442 952.118 535.966 953.813 529.469 955.375C520.521 957.526 511.601 959.896 502.656 962.062C485.692 966.171 468.696 970.047 451.625 973.688C419.271 980.588 386.645 986.271 353.969 991.406C339.668 993.654 325.338 995.719 311.062 998.125C295.351 1000.77 278.637 1003.65 265.688 1013.59C262.219 1016.26 258.968 1019.27 256.125 1022.59C254.702 1024.26 253.325 1025.96 252.062 1027.75C250.512 1029.95 249.028 1032.18 247.719 1034.53C246.15 1037.35 244.66 1040.24 243.438 1043.22C242.04 1046.63 240.814 1050.09 239.875 1053.66C238.876 1057.45 238.085 1061.33 237.625 1065.22C237.176 1069.02 237.05 1072.83 237.156 1076.66C237.252 1080.09 237.658 1083.52 238.25 1086.91C238.75 1089.76 239.513 1092.56 240.406 1095.31C241.133 1097.55 242.139 1099.69 243.094 1101.84C243.5 1102.76 244.033 1103.61 244.5 1104.5C244.53 1104.56 244.56 1104.63 244.594 1104.69C245.087 1105.5 245.557 1106.32 246.062 1107.12C249.229 1112.18 253.399 1116.6 258.031 1120.34C263.997 1125.16 270.759 1128.89 277.562 1132.38C284.544 1135.95 291.64 1139.28 298.719 1142.66C316.875 1151.31 334.921 1160.3 352.375 1170.31C360.643 1175.06 368.754 1180.08 376.781 1185.22C396.961 1198.14 416.384 1212.21 435.375 1226.81C445.703 1234.75 455.866 1242.91 465.875 1251.25C471.211 1255.69 476.568 1260.13 481.75 1264.75C486.709 1269.17 491.629 1273.66 496.375 1278.31C501.102 1282.94 505.626 1287.77 510.25 1292.5C519.503 1301.97 528.804 1311.42 537.844 1321.09C550.252 1334.37 562.46 1347.85 574.25 1361.69C601.545 1393.71 626.991 1427.24 650.75 1461.97C670.772 1479.56 706.061 1472.15 729.562 1445.41C753.064 1418.66 755.866 1382.72 735.844 1365.12C708.811 1325.29 679.827 1286.82 648.062 1250.62C636.325 1237.25 624.289 1224.13 611.75 1211.5C601.866 1201.54 591.774 1191.79 581.312 1182.44C575.954 1177.65 570.364 1173.14 564.875 1168.5C559.323 1163.81 553.815 1159.05 548.25 1154.38C541.925 1149.06 535.663 1143.67 529.219 1138.5C513.324 1125.75 496.939 1113.69 480.031 1102.31C472.864 1097.49 465.556 1092.86 458.188 1088.34C475.626 1084.35 493.018 1080.18 510.375 1075.84C524.049 1072.43 537.689 1068.92 551.219 1064.97C558.225 1062.92 565.143 1060.51 572.094 1058.28C585.799 1053.89 599.588 1049.73 613.344 1045.5C667.365 1028.9 721.207 1011.8 774.688 993.531C796.556 991.678 812.288 966.523 809.812 937.312C807.492 909.928 790.009 888.704 769.812 887.688Z" fill="#769a89" stroke="none"/>
</g>
</g>
<g id="Ebene-1-kopieren-kopieren-kopieren" visibility="hidden">
<g opacity="1">
<path d="M1619.72 596.812C1611.26 596.099 1603.74 598.489 1599.12 604.156C1585.88 637.423 1570.71 669.906 1553.09 701.094C1536.33 730.765 1517.31 759.168 1496.31 786C1484.22 801.448 1471.37 816.287 1457.72 830.375C1453.31 834.922 1448.85 839.43 1444.31 843.844C1441.28 846.789 1438.2 849.691 1435.19 852.656C1419.59 868.016 1403.69 883.04 1386.81 897C1368.93 911.789 1350.39 925.755 1331.12 938.688C1306.65 955.117 1280.95 969.693 1254.59 982.875C1213.54 1003.41 1170.79 1020.4 1127.12 1034.5C1109.79 1040.1 1092.24 1045.14 1074.59 1049.66C1064.16 1052.33 1053.69 1054.86 1043.16 1057.09C1025.27 1060.89 1007.27 1064.23 989.188 1066.94C951.681 1072.55 913.814 1075.36 875.938 1076.78C866.515 1077.13 857.085 1077.43 847.656 1077.56C828.355 1077.84 809.082 1077.87 789.781 1077.47C780.264 1077.27 770.728 1077.06 761.219 1076.59C752.678 1076.18 744.12 1075.58 735.594 1074.94C725.536 1074.18 715.52 1072.95 705.5 1071.81C695.386 1070.66 685.268 1069.61 675.156 1068.44C611.436 1061.03 548.164 1050.13 485.625 1035.84C455.128 1028.88 424.858 1021.02 394.75 1012.53C369.376 1008.85 344.444 1035.97 339.062 1073.09C333.681 1110.22 349.876 1143.32 375.25 1147C415.56 1158.49 456.161 1168.87 497.156 1177.62C542.229 1187.25 587.756 1194.92 633.531 1200.31C649.736 1202.22 666.009 1203.77 682.281 1204.97C687.416 1205.35 692.546 1205.75 697.688 1206.03C707.814 1206.58 717.962 1206.75 728.094 1207.16C738.171 1207.56 748.232 1207.87 758.312 1208.19C768.942 1208.52 779.583 1208.82 790.219 1208.91C809.766 1209.06 829.316 1208.75 848.844 1207.84C898.579 1205.53 948.058 1199.5 997.062 1190.78C1046.13 1182.05 1094.74 1170.66 1142.16 1155.25C1184.34 1141.54 1225.47 1124.41 1264.81 1103.94C1289.54 1091.07 1313.57 1076.92 1336.91 1061.69C1364.04 1043.97 1390.21 1024.8 1415.22 1004.19C1432.79 989.703 1449.86 974.533 1466.09 958.562C1470.38 954.343 1474.68 950.093 1478.84 945.75C1481.77 942.702 1484.53 939.52 1487.34 936.375C1491.85 931.346 1496.29 926.246 1500.66 921.094C1512.53 907.078 1524.05 892.726 1535.16 878.094C1569.91 832.31 1600.07 783.089 1625.34 731.469C1637.87 705.889 1649.04 679.698 1659.19 653.094C1668.42 641.758 1662.46 621.606 1645.88 608.094C1637.58 601.338 1628.18 597.526 1619.72 596.812Z" fill="#769a89" stroke="none"/>
</g>
<g opacity="1">
<path d="M741.562 910.656C692.103 924.565 642.492 938.162 592.406 949.656C580.272 952.441 568.131 955.135 555.906 957.5C549.43 958.753 542.873 959.704 536.406 961C530.837 962.116 525.309 963.333 519.75 964.5C512.728 965.974 505.732 967.608 498.719 969.125C484.109 972.286 469.46 975.302 454.781 978.125C421.016 984.618 387.009 989.957 352.875 994.094C340.315 995.616 327.726 996.908 315.156 998.344C306.337 999.351 297.439 1000.36 288.844 1002.66C279.479 1005.16 270.432 1009.29 263.062 1015.69C261.476 1017.06 259.912 1018.47 258.469 1020C256.738 1021.83 255.085 1023.74 253.562 1025.75C251.781 1028.1 250.091 1030.53 248.594 1033.06C246.914 1035.91 245.353 1038.85 244.031 1041.88C242.634 1045.08 241.428 1048.37 240.438 1051.72C239.459 1055.03 238.72 1058.41 238.156 1061.81C237.635 1064.96 237.331 1068.12 237.188 1071.31C237.062 1074.11 237.154 1076.93 237.344 1079.72C237.504 1082.08 237.845 1084.42 238.25 1086.75C238.586 1088.69 239.046 1090.6 239.562 1092.5C243.07 1105.37 251.333 1116.31 262.344 1123.81C268.848 1128.24 276.109 1131.47 283.344 1134.5C290.948 1137.68 298.617 1140.64 306.25 1143.75C321.629 1150.02 336.813 1156.96 351.531 1164.66C376.35 1177.63 400.141 1192.41 423.594 1207.69C434.42 1214.74 445.129 1221.92 455.812 1229.19C460.675 1232.5 465.586 1235.81 470.375 1239.22C474.912 1242.45 479.356 1245.81 483.812 1249.16C489.571 1253.48 495.025 1258.17 500.656 1262.66C510.506 1270.5 520.415 1278.27 530.25 1286.12C542.806 1296.16 555.307 1306.25 567.688 1316.5C599.231 1342.62 630.142 1369.54 660.406 1397.12C683.808 1411.81 718.666 1398.35 738.281 1367.09C757.897 1335.84 754.839 1298.59 731.438 1283.91C699.528 1254.57 667.014 1225.9 633.344 1198.59C620.944 1188.54 608.444 1178.6 595.688 1169C585.164 1161.08 574.516 1153.26 563.625 1145.84C557.964 1141.99 552.135 1138.39 546.438 1134.59C540.99 1130.96 535.547 1127.32 530.125 1123.66C524.437 1119.81 518.799 1115.9 513.062 1112.12C501.117 1104.26 488.925 1096.76 476.594 1089.5C484.793 1087.74 493 1086.03 501.188 1084.22C513.555 1081.48 525.941 1078.69 538.188 1075.44C544.87 1073.66 551.447 1071.53 558.094 1069.62C570.848 1065.98 583.662 1062.52 596.469 1059.06C646.629 1045.52 696.771 1031.91 746.719 1017.59C768.832 1016.53 785.614 991.725 784.188 962.188C782.761 932.65 763.676 909.588 741.562 910.656Z" fill="#769a89" stroke="none"/>
</g>
</g>
<g id="Ebene-1-kopieren-kopieren-kopieren_2" visibility="hidden">
<g opacity="1">
<path d="M1533.03 508.438C1524.48 508.995 1514.94 512.65 1506.44 519.312C1489.43 532.637 1483.02 552.879 1492.12 564.5C1512.49 622.71 1524.84 684.278 1524.06 746.125C1523.96 754.406 1523.76 762.706 1523.16 770.969C1521.83 789.208 1519.49 807.38 1515.72 825.281C1514.56 830.794 1513.18 836.257 1511.69 841.688C1509.49 849.664 1507.14 857.605 1504.38 865.406C1499.21 879.995 1493.63 894.447 1487 908.438C1479.26 924.757 1470.17 940.43 1459.75 955.188C1443.15 978.705 1423.37 999.907 1401.19 1018.25C1371.8 1042.56 1338.54 1061.86 1303.69 1077.19C1272.16 1091.06 1239.15 1101.66 1205.69 1109.75C1174.02 1117.41 1141.83 1122.9 1109.44 1126.34C1091.52 1128.25 1073.5 1129.48 1055.5 1130.28C1028.43 1131.48 1001.29 1131.21 974.219 1130.12C940.912 1128.79 907.681 1125.99 874.531 1122.56C853.939 1120.44 833.39 1117.82 812.875 1115.06C796.814 1112.9 780.814 1110.51 764.844 1107.75C758.617 1106.67 752.384 1105.61 746.188 1104.38C736.376 1102.41 726.573 1100.31 716.781 1098.25C699.566 1094.63 682.34 1091.12 665.156 1087.34C633.504 1080.4 601.956 1072.98 570.531 1065.06C500.396 1047.4 430.923 1027.16 362.062 1005.06C336.82 1000.95 311.488 1027.57 305.469 1064.5C299.449 1101.43 315.008 1134.7 340.25 1138.81C407.913 1160.71 476.116 1180.98 545.125 1198.22C579.377 1206.77 613.788 1214.69 648.406 1221.62C670.926 1226.14 693.53 1230.26 716.25 1233.62C734.401 1236.31 752.556 1238.86 770.719 1241.47C794.188 1244.84 817.713 1248.04 841.312 1250.38C863.029 1252.53 884.769 1254.32 906.562 1255.47C924.714 1256.43 942.887 1256.93 961.062 1257.09C988.994 1257.35 1016.92 1256.79 1044.81 1255.28C1055.07 1254.72 1065.32 1254.12 1075.56 1253.31C1146.63 1247.74 1218.04 1235.56 1285.03 1210.59C1306.12 1202.73 1326.75 1193.55 1346.72 1183.16C1363.9 1174.21 1380.55 1164.17 1396.53 1153.22C1416.89 1139.27 1436.17 1123.71 1454.06 1106.72C1473.93 1087.85 1492.09 1067.19 1508.16 1045C1532.99 1010.7 1552.87 972.857 1567.25 933.031C1569.83 925.875 1572.02 918.581 1574.16 911.281C1578.81 895.393 1582.6 879.257 1585.72 863C1592.46 827.818 1595.88 792.126 1596.28 756.312C1596.64 724.618 1594.38 692.925 1590.09 661.531C1585.41 627.262 1578.05 593.363 1568.28 560.188C1563.92 545.373 1559 530.76 1553.72 516.25C1549.17 510.439 1541.59 507.88 1533.03 508.438Z" fill="#769a89" stroke="none"/>
</g>
<g opacity="1">
<path d="M808.812 895.75C807.481 895.746 806.156 895.821 804.812 896C779.987 906.134 754.893 915.649 729.406 924C705.341 931.886 681.006 939.039 656.438 945.188C643.04 948.54 629.589 951.559 616.031 954.188C609.227 955.506 602.346 956.433 595.531 957.688C589.409 958.814 583.304 960.061 577.188 961.219C563.228 963.861 549.295 966.647 535.281 969C507.895 973.597 480.392 977.325 452.781 980.281C434.693 982.218 416.566 983.896 398.438 985.406C380.661 986.887 362.889 988.188 345.125 989.812C337.614 990.499 330.088 991.24 322.625 992.344C315.451 993.405 308.277 994.843 301.562 997.656C296.165 999.918 291.143 1002.92 286.688 1006.75C285.112 1008.1 283.56 1009.53 282.125 1011.03C280.41 1012.83 278.763 1014.69 277.25 1016.66C275.486 1018.95 273.802 1021.33 272.312 1023.81C270.645 1026.59 269.104 1029.45 267.781 1032.41C266.382 1035.53 265.164 1038.76 264.156 1042.03C263.159 1045.27 262.38 1048.6 261.781 1051.94C261.226 1055.04 260.908 1058.17 260.719 1061.31C260.552 1064.08 260.578 1066.85 260.719 1069.62C260.838 1071.98 261.109 1074.32 261.469 1076.66C261.768 1078.6 262.209 1080.53 262.688 1082.44C263.409 1085.32 264.4 1088.15 265.562 1090.88C268.646 1098.12 273.517 1104.48 278.688 1110.34C283.973 1116.34 289.664 1121.98 295.438 1127.5C306.249 1137.84 317.349 1147.91 328.562 1157.81C355.491 1181.59 382.415 1205.34 410.219 1228.09C421.922 1237.67 433.764 1247.08 445.719 1256.34C451.345 1260.7 457.057 1264.93 462.688 1269.28C466.243 1272.03 469.775 1274.85 473.312 1277.62C481.04 1283.68 488.499 1290.06 496.219 1296.12C506.999 1304.59 517.926 1312.86 528.938 1321.03C578.898 1358.08 630.483 1392.94 682.656 1426.78C707.789 1439.24 741.643 1422.1 758.281 1388.53C774.92 1354.96 768.039 1317.64 742.906 1305.19C707.097 1281.75 671.687 1257.72 636.531 1233.31C627.051 1226.73 617.64 1220.06 608.188 1213.44C591.901 1202.03 575.642 1190.58 559.281 1179.28C553.736 1175.45 548.042 1171.82 542.469 1168.03C537.457 1164.62 532.58 1161 527.656 1157.47C521.113 1152.77 514.756 1147.83 508.312 1143C496.549 1134.18 484.802 1125.31 473.031 1116.5C464.851 1110.37 456.705 1104.21 448.531 1098.06C461.233 1096.39 473.958 1094.8 486.625 1092.84C507.57 1089.62 528.452 1086.13 549.281 1082.22C558.459 1080.5 567.659 1078.81 576.781 1076.81C583.285 1075.39 589.827 1073.98 596.281 1072.34C602.914 1070.66 609.476 1068.69 616.062 1066.84C625.251 1064.26 634.45 1061.74 643.656 1059.22C689.066 1046.78 734.073 1032.56 778.156 1016C791.748 1010.89 805.209 1005.52 818.625 999.969C840.117 997.111 854.442 971.52 850.625 942.812C847.047 915.899 828.79 895.803 808.812 895.75Z" fill="#769a89" stroke="none"/>
</g>
</g>
<g id="Ebene-1-kopieren_2" opacity="0.5" visibility="hidden">
<g opacity="1">
<path d="M1964.47 105.5C1959.85 105.781 1956.02 107.443 1953.66 110.562C1945.17 134.334 1936.43 158.023 1927.31 181.562C1922.21 194.738 1917.12 207.925 1911.69 220.969C1907.82 230.246 1903.79 239.47 1899.72 248.656C1892.21 265.576 1884.38 282.339 1876.19 298.938C1870.96 309.525 1865.71 320.093 1860.44 330.656C1857.33 336.884 1854.09 343.046 1851.06 349.312C1835.43 381.683 1819.1 413.752 1802.06 445.406C1790.83 466.27 1779.36 487.001 1767.31 507.406C1742.03 550.212 1714.57 591.838 1684.38 631.344C1681.26 635.415 1678.04 639.399 1674.84 643.406C1670.46 648.905 1666.08 654.42 1661.56 659.812C1657.42 664.759 1653.13 669.587 1648.84 674.406C1645.2 678.506 1641.61 682.667 1637.88 686.688C1626.29 699.16 1614.53 711.482 1602.53 723.562C1597.75 728.375 1592.84 733.088 1588.03 737.875C1582.55 743.337 1577.08 748.795 1571.53 754.188C1568.45 757.184 1565.3 760.097 1562.22 763.094C1553.77 771.304 1545.22 779.413 1536.59 787.438C1533.06 790.728 1529.56 794.071 1526 797.344C1512.84 809.455 1499.45 821.334 1485.81 832.906C1456.75 857.573 1426.47 880.851 1395.12 902.531C1373.97 917.16 1352.31 931.126 1330.09 944.094C1266.8 981.046 1199.42 1010.86 1129.59 1033.12C1077.54 1049.72 1024.2 1062 970.344 1071.06C957.112 1073.29 943.833 1075.3 930.531 1077.06C923.802 1077.95 917.042 1078.95 910.281 1079.56C906.207 1079.93 902.114 1080.12 898.031 1080.38C889.795 1080.9 881.556 1081.31 873.312 1081.69C848.385 1082.84 823.454 1083.55 798.5 1083.72C751.084 1084.03 703.681 1082.4 656.406 1078.69C628.946 1076.53 601.578 1073.62 574.25 1070.19C550.541 1066.61 526.296 1096.86 520.125 1137.75C513.954 1178.64 528.166 1214.7 551.875 1218.28C590.715 1221.9 629.686 1224.47 668.688 1225.44C691.021 1225.99 713.353 1225.99 735.688 1225.53C752.391 1225.19 769.105 1224.6 785.781 1223.56C811.376 1221.98 836.912 1219.62 862.344 1216.31C871.926 1215.07 881.515 1213.61 891.062 1212.12C894.37 1211.61 897.657 1211.01 900.969 1210.53C905.189 1209.92 909.429 1209.47 913.656 1208.91C921.102 1207.92 928.541 1206.87 935.969 1205.75C963.248 1201.63 990.415 1196.7 1017.34 1190.69C1078.96 1176.93 1139.47 1158.21 1198.09 1134.78C1248.54 1114.62 1297.6 1090.84 1344.72 1063.81C1369.48 1049.61 1393.8 1034.64 1417.44 1018.62C1445.96 999.297 1473.51 978.632 1500.12 956.75C1522.63 938.249 1544.56 918.98 1565.44 898.656C1579.78 884.694 1593.64 870.252 1607.06 855.406C1612.04 849.897 1617.04 844.389 1621.88 838.75C1638.83 818.97 1654.92 798.46 1670.72 777.75C1687.41 755.861 1703.7 733.687 1719.78 711.344C1738.15 685.819 1756.22 660.063 1773.59 633.844C1785.35 616.093 1796.79 598.145 1808.03 580.062C1842.62 524.416 1874.47 467.071 1902.66 407.906C1905.26 402.441 1907.63 396.871 1910.09 391.344C1916.56 376.863 1922.72 362.275 1928.72 347.594C1935.6 330.752 1942.49 313.903 1949.22 297C1953.2 287.002 1957.14 276.995 1961.12 267C1967.29 251.537 1973.49 236.098 1979.47 220.562C1988.49 197.141 1997.16 173.574 2005.59 149.938C2011.9 141.618 2005.38 126.059 1991.03 115.188C1982.06 108.393 1972.17 105.031 1964.47 105.5Z" fill="#769a89" stroke="none"/>
</g>
<g opacity="1">
<path d="M853.938 883.938C852.178 883.865 850.434 884.076 848.75 884.594C841.504 892.274 833.524 899.18 825.219 905.688C820.575 909.326 815.856 912.973 810.969 916.281C809.132 917.525 807.205 918.655 805.312 919.812C802.271 921.673 799.23 923.498 796.125 925.25C792.607 927.234 789.081 929.256 785.469 931.062C780.668 933.463 775.731 935.591 770.875 937.875C768.133 939.165 765.42 940.564 762.688 941.875C760.327 943.007 757.912 944.033 755.594 945.25C753.177 946.519 750.824 947.956 748.438 949.281C743.575 951.981 738.688 954.636 733.812 957.312C725.899 961.656 717.982 965.95 710.062 970.281C699.509 976.054 688.977 981.895 678.25 987.344C666.111 993.51 653.811 999.395 641.375 1004.94C634.794 1007.87 628.184 1010.71 621.5 1013.41C619.062 1014.39 616.653 1015.4 614.188 1016.31C611.405 1017.34 608.579 1018.29 605.781 1019.28C603.424 1020.11 601.065 1020.98 598.688 1021.75C596.008 1022.62 593.269 1023.35 590.562 1024.12C579.836 1027.21 569 1029.83 558.188 1032.59C555.251 1033.34 552.296 1034 549.375 1034.81C546.887 1035.5 544.412 1036.3 541.938 1037.03C539.037 1037.89 536.107 1038.69 533.219 1039.59C530.529 1040.43 527.891 1041.39 525.219 1042.28C520.202 1043.96 515.191 1045.66 510.219 1047.47C505.859 1049.05 501.506 1050.61 497.156 1052.22C493.58 1053.54 489.764 1054.68 486.469 1056.66C485.223 1057.4 483.959 1058.17 482.812 1059.06C480.973 1060.49 479.121 1061.92 477.531 1063.62C474.773 1066.59 471.922 1069.55 469.812 1073C466.099 1079.08 462.418 1085.31 460.156 1092.06C456.955 1101.62 454.548 1111.53 453.562 1121.56C452.697 1130.37 453.443 1139.33 454.625 1148.09C455.338 1153.38 457.289 1158.45 459.188 1163.44C460.248 1166.22 461.888 1168.75 463.469 1171.28C464.411 1172.79 465.592 1174.15 466.75 1175.5C467.5 1176.37 468.344 1177.16 469.188 1177.94C471.67 1180.24 474.44 1181.66 477.312 1183.28C479.203 1184.35 481.083 1185.4 482.969 1186.47C490.727 1190.88 498.465 1195.34 506.219 1199.75C523.225 1209.43 540.271 1219.05 557.125 1229C567.361 1235.04 577.483 1241.27 587.562 1247.56C607.42 1259.97 627.052 1272.79 646.406 1285.97C661.075 1295.96 675.53 1306.24 689.938 1316.59C699.54 1323.5 709.181 1330.37 718.688 1337.41C721.674 1339.62 724.629 1341.85 727.594 1344.09C729.278 1345.37 731.046 1346.57 732.656 1347.94C734.306 1349.34 735.872 1350.85 737.469 1352.31C740.258 1354.86 743.024 1357.42 745.812 1359.97C754.207 1367.64 762.679 1375.25 771.062 1382.94C784.095 1394.88 797.006 1406.92 809.344 1419.59C820.476 1431.03 831.071 1442.9 840.375 1455.88C860.052 1465.97 890.119 1446.66 907.531 1412.72C924.943 1378.78 923.115 1343.06 903.438 1332.97C885.341 1310.56 864.158 1290.98 841.844 1272.84C829.938 1263.17 817.691 1253.83 805.031 1245.16C799.834 1241.6 794.614 1238.07 789.281 1234.72C786.153 1232.75 783.016 1230.79 779.875 1228.84C778.527 1228.01 777.136 1227.22 775.812 1226.34C773.994 1225.14 772.258 1223.79 770.5 1222.5C768.282 1220.88 766.04 1219.27 763.812 1217.66C754.405 1210.86 744.981 1204.09 735.406 1197.53C719.178 1186.41 702.732 1175.6 686.219 1164.91C672.977 1156.33 659.729 1147.76 646.406 1139.31C637.474 1133.65 628.535 1128 619.594 1122.34C621.468 1121.45 623.306 1120.47 625.188 1119.59C645.382 1110.19 665.752 1101.13 686.156 1092.19C696.82 1087.51 707.513 1082.9 718.062 1077.97C729.112 1072.81 740.068 1067.4 750.812 1061.62C754.244 1059.78 757.657 1057.89 761.062 1056C762.756 1055.06 764.468 1054.16 766.125 1053.16C768.674 1051.61 771.144 1049.9 773.625 1048.25C776.485 1046.35 779.348 1044.45 782.156 1042.47C787 1039.06 791.71 1035.44 796.438 1031.88C798.764 1030.12 801.147 1028.47 803.5 1026.75C806.908 1024.26 810.3 1021.74 813.688 1019.22C817.745 1016.2 821.76 1013.12 825.812 1010.09C828.246 1008.28 830.745 1006.59 833.188 1004.78C837.334 1001.72 841.445 998.566 845.469 995.344C855.757 987.107 865.539 978.301 874.594 968.719C888.064 964.58 893.2 942.388 886.062 919.156C879.817 898.829 866.257 884.445 853.938 883.938Z" fill="#769a89" stroke="none"/>
</g>
</g>
</svg>
