<?xml version="1.0" encoding="UTF-8" standalone="no"?>
<!DOCTYPE svg PUBLIC "-//W3C//DTD SVG 1.1//EN" "http://www.w3.org/Graphics/SVG/1.1/DTD/svg11.dtd">
<!-- Created with Vectornator (http://vectornator.io/) -->
<svg height="2000.0px" stroke-miterlimit="10" style="fill-rule:nonzero;clip-rule:evenodd;stroke-linecap:round;stroke-linejoin:round;" version="1.1" viewBox="0 0 2000 2000" width="1999.9999999999995px" xml:space="preserve" xmlns="http://www.w3.org/2000/svg" xmlns:xlink="http://www.w3.org/1999/xlink">
<defs>
<path d="M523.127 528.106C437.358 721.837 538.38 850.585 588.239 868.543C631.814 884.236 676.405 834.803 689.001 793.021C689.753 790.525 711.548 782.294 712.294 798.68C714.258 841.805 786.807 920.263 931.149 908.889C1073.84 897.646 1200.09 814.534 1233.4 667.494C1241.22 632.99 1244.11 554.193 1212.34 489.699C1209.43 483.796 1207.23 482.312 1204.97 481.128C1194.07 475.404 1170.42 432.942 1148.15 418.719C1045.95 353.457 856.953 344.1 761.841 429.499C716.698 470.032 638.448 406.744 600.831 405.102C596.973 404.934 594.758 406.027 592.223 408.946C559.315 446.824 537.792 494.983 523.127 528.106Z" id="Fill"/>
<path d="M1402.28 1544.36C1478.61 1589.3 1502.87 1607.71 1545.97 1609.91C1694.47 1617.48 1609.28 1569.61 1504.5 1509.98C1496.02 1505.16 1473.4 1489.96 1451.59 1479.1C1448.8 1477.71 1447.85 1480.28 1448.13 1483.26C1451.01 1513.95 1450.2 1549.74 1396.34 1535.56C1392.13 1534.45 1398.52 1542.15 1402.28 1544.36Z" id="Fill_2"/>
<path d="M1096.55 910.936C1014.59 937.326 999.705 1010.07 995.387 1065.5C990.913 1122.94 1016.61 1170.41 1044.59 1202.68C1063.37 1224.33 1105.68 1219.87 1100.39 1144.75C1099.71 1135.13 1108.08 1130.16 1110.37 1142.51C1113.24 1158.03 1139.92 1209.03 1174.28 1204.67C1216.32 1199.33 1219.9 1158.86 1213.96 1129.99C1213.16 1126.12 1220.84 1120.73 1222.23 1126.61C1233.43 1173.88 1328.72 1183.44 1299.11 1084.19C1298.46 1082.02 1300.55 1079.73 1304.57 1082.16C1308.75 1084.69 1320.81 1087.06 1319.94 1084.34C1291.5 995.571 1185.91 882.16 1096.55 910.936Z" id="Fill_3"/>
<path d="M1063.1 1261.04C1135.45 1377.83 1263.69 1446.45 1337.84 1479.06C1348.91 1483.92 1288.32 1419.88 1220.84 1289.75C1218.1 1284.47 1222.61 1282.72 1229.09 1291.66C1265.62 1342 1382.27 1484.23 1395.76 1487.39C1398.12 1487.94 1409.61 1487.18 1405.6 1477.3C1393.95 1448.6 1365.88 1385.69 1340.27 1326.4C1325.64 1292.52 1316.4 1269.12 1306.81 1245.56C1306.11 1243.83 1306.94 1240.14 1311.25 1246.54C1329.2 1273.22 1381.64 1357.86 1392.15 1368.81C1403.23 1380.35 1371.04 1201.65 1343.76 1162.83C1340.47 1158.15 1332.22 1188.68 1307.43 1199.68C1280.3 1211.71 1248.46 1198.74 1247.74 1201.52C1241.95 1224.1 1228.53 1245.91 1187.66 1250.71C1155.66 1254.48 1137.37 1234.7 1126.34 1227.39C1122.22 1224.66 1108.65 1256.51 1090.09 1258.82C1070.48 1261.27 1060.67 1257.12 1063.1 1261.04Z" id="Fill_4"/>
<path d="M471.194 968.547C458.417 975.554 431.456 1021.22 421.238 1047.91C407.851 1082.88 388.711 1135.64 405.275 1188.37C414.044 1216.29 461.934 1249.13 458.729 1237.37C442.766 1178.8 448.24 1102.38 453.108 1057.98C458.459 1009.18 481.323 962.993 471.194 968.547Z" id="Fill_5"/>
<path d="M595.629 405.168C593.741 408.262 617.235 420.541 635.727 443.11C654.945 466.566 668.585 499.928 674.083 513.659C676.102 518.7 689.213 514.428 704.074 514.304C720.381 514.169 738.536 517.775 740.255 514.374C747.337 500.363 815.136 406.278 925.194 396.78C1065.39 384.682 1155.97 450.849 1196.69 479.618C1211.73 490.249 1213.1 472.623 1188.08 440.398C1187.11 439.141 1140.06 385.766 1096.85 375.181C1093.63 374.393 1088.63 372.916 1092.72 372.78C1137.39 371.284 1167.62 362.718 1201.87 348.128C1207.68 345.654 1221.81 334.798 1209.83 336.989C1157.31 346.605 1097.2 355.532 1058.02 350.622C1052.84 349.973 1042.96 346.678 1047.17 346.295C1180.23 334.2 1201.69 234.269 1205.86 203.979C1207.89 189.243 1203.38 186.929 1202.58 188.267C1166.55 248.288 1061.46 273.428 1049.77 275.19C1039.93 276.672 1035.26 270.636 1036.21 270.012C1051.69 259.921 1077.37 234.352 1090.39 181.027C1092.88 170.813 1090.17 160.461 1086.4 164.942C997.302 270.773 716.011 207.844 595.629 405.168Z" id="Fill_6"/>
<path d="M739.544 1493.03C762.368 1505.38 766.468 1503.3 755.671 1489.75C722.653 1448.32 654.861 1386.56 638.101 1289.82C635.328 1273.81 652.611 1286.77 655.412 1293.22C707.543 1413.24 850.786 1521.97 868.629 1530.02C884.024 1536.96 913.493 1544.58 931.399 1542.55C938.71 1541.72 932.041 1535.96 928.465 1529.08C918.461 1509.85 909.953 1476.22 920.282 1468.17C926.553 1463.28 953.253 1453.39 952.764 1460.12C950.777 1487.49 991.026 1604.88 1062.32 1595.28C1123.14 1587.09 1125.73 1484.29 1123.23 1469.49C1122.06 1462.54 1141.63 1464.47 1147.23 1471.28C1151.56 1476.56 1154.83 1495 1153.2 1509.25C1152.57 1514.8 1161.06 1512.17 1167.53 1508.82C1187.03 1498.74 1206.92 1486.62 1217.98 1478.17C1227.15 1471.17 1229.22 1465.16 1225.1 1462.68C1166.43 1427.42 1068.16 1345.26 1034.44 1295.32C960.216 1185.36 922.189 1101.3 993.496 945.452C1000.11 931 922.61 943.861 865.434 958.856C831.007 967.886 799.711 990.683 773.133 1010.83C769.489 1013.59 768.513 1003.49 770.916 994.535C774.209 982.261 783.915 968.315 776.899 972.685C758.096 984.396 741.229 1000.04 717.715 1029.61C715.254 1032.71 708.305 1037.48 706.858 1031.95C704.333 1022.31 711.853 999.952 705.106 1005.56C693.395 1015.28 653.025 1062.16 642.154 1095.78C639.601 1103.68 628.229 1090.45 617.053 1061.92C608.064 1038.96 604.597 995.984 611.064 968.089C613.09 959.348 611.725 956.044 605.636 962.287C600.684 967.363 592.321 979.207 588.578 991.33C587.246 995.645 582.982 998.073 580.088 994.175C563.454 971.771 559.472 936.116 577.509 911.557C579.582 908.734 554.544 906.926 545.3 913.586C536.647 919.82 523.966 933.991 516.653 947.438C491.245 994.163 470.513 1078.49 493.53 1191.19C527.485 1357.44 611.707 1423.84 739.544 1493.03Z" id="Fill_7"/>
<path d="M727.673 624.987C707.207 628.05 677.597 628.12 640.846 664.134C625.09 679.574 604.379 707.359 616.738 710.644C654.623 720.715 715.379 724.934 726.787 711.59C756.845 676.43 739.451 623.224 727.673 624.987Z" id="Fill_8"/>
</defs>
<g id="Ebene-2">
<path d="M1131.47 130.665C1128.07 94.6826 1098.74 92.1937 1086.16 113.691C1027.16 214.582 832.236 199.99 720.508 251.483C716.446 253.356 723.841 215.89 706.834 231.028C664.369 268.825 559.705 365.39 517.332 441.232C421.068 613.537 430.608 743.075 504.992 869.021C511.161 879.465 516.449 888.978 498.649 901.135C392.07 973.929 362.615 1104.6 369.769 1161.12C373.102 1187.46 387.31 1230.68 406.336 1250.45C424.424 1269.25 468.361 1286.28 469.393 1289.5C485.269 1339.12 569.827 1457.51 678.329 1502.11C684.026 1504.46 689.297 1501.61 690.939 1509.22C700.906 1555.41 732.195 1622.87 769.905 1631.1C806.182 1639.02 838.143 1607.3 851.303 1583.47C854.904 1576.95 858.284 1577.77 859.595 1578.21C888.628 1587.91 945.812 1589.39 972.83 1584.45C974.429 1584.16 976.453 1586.04 979.872 1590.67C991.72 1606.72 1029.27 1636.66 1066.73 1633.31C1099.91 1630.33 1131.09 1587.19 1141.38 1559.37C1142.88 1555.31 1146.77 1558.64 1147.66 1559.56C1190.58 1603.49 1242.49 1661.46 1306.75 1655.68C1333.6 1653.26 1331.4 1636.76 1336.95 1640.12C1375.73 1663.61 1401.66 1678.05 1450.43 1671.57C1507.97 1663.93 1492.62 1633.99 1500.23 1637.52C1560.48 1665.49 1625.51 1650.39 1648.77 1635.18C1731.27 1581.19 1553.99 1492.61 1480.33 1453.27C1462.94 1443.98 1446.46 1438.84 1446.44 1436.8C1443.57 1202.04 1338.36 1017.67 1277.93 947.613C1230.44 892.561 1198.84 895.535 1211.53 877.927C1347.2 689.763 1280.61 489.734 1217.11 412.598C1204.41 397.174 1192.86 390.26 1200.8 386.757C1245.68 366.953 1273.53 331.89 1280.47 311.601C1296.81 263.904 1270.17 268.589 1244.8 285.33C1219.48 302.043 1203.88 307.389 1213.73 295.724C1255.06 246.757 1251.42 167.261 1247.98 139.71C1241.88 90.755 1213.77 102.374 1208.26 115.342C1189.81 158.77 1122.1 207.795 1124.85 203.182C1138.14 180.902 1133.26 149.684 1131.47 130.665Z" fill="#12253f" fill-rule="nonzero" opacity="1" stroke="none"/>
<path d="M445.348 1830.32C445.348 1800.45 671.704 1776.24 950.93 1776.24C1230.16 1776.24 1456.51 1800.45 1456.51 1830.32C1456.51 1860.18 1230.16 1884.39 950.93 1884.39C671.704 1884.39 445.348 1860.18 445.348 1830.32Z" fill="#12253f" fill-rule="nonzero" opacity="1" stroke="none"/>
<path d="M757.171 1599.82C757.983 1587.18 793.324 1578.7 795.136 1594.29C799.162 1628.92 786.428 1685.44 789.283 1734.43C789.57 1739.35 794.163 1739.18 800.475 1737.47C818.246 1732.65 848.627 1723.3 870.205 1733.14C896.895 1745.32 917.033 1783.21 922.814 1799.26C931.225 1822.62 777.21 1832.75 759.531 1836.9C731.192 1843.55 622.961 1828.27 606.787 1798.01C599.285 1783.97 659.335 1736.88 671.815 1733.53C686.122 1729.69 720.264 1733.91 729.562 1734.97C741.05 1736.28 749.401 1737.27 749.825 1733.15C754.44 1688.33 755.299 1628.94 757.171 1599.82Z" fill="#12253f" fill-rule="nonzero" opacity="1" stroke="none"/>
<path d="M1045.8 1600.55C1045.89 1587.88 1079.77 1579.84 1083.77 1595.01C1093.32 1631.29 1088.98 1689.16 1091.83 1738.15C1092.12 1743.08 1100.37 1741.5 1106.68 1739.79C1124.45 1734.97 1157.24 1720.96 1178.81 1730.81C1205.5 1742.99 1228.22 1767.34 1228.99 1794.84C1229.68 1819.65 1079.76 1836.47 1062.08 1840.62C1033.74 1847.27 922.534 1832.45 906.36 1802.19C898.858 1788.15 961.652 1739.44 974.132 1736.09C988.439 1732.25 1022.81 1737.64 1032.11 1738.69C1043.6 1740 1051.95 1740.99 1052.38 1736.88C1056.99 1692.05 1045.56 1634.84 1045.8 1600.55Z" fill="#12253f" fill-rule="nonzero" opacity="1" stroke="none"/>
</g>
<g id="Ebene-7">
<use fill="#fdfbe4" fill-rule="nonzero" opacity="1" stroke="none" xlink:href="#Fill"/>
<clipPath clip-rule="nonzero" id="ClipPath">
<use xlink:href="#Fill"/>
</clipPath>
<g clip-path="url(#ClipPath)">
<path d="M500.738 832.013C526.215 863.861 601.037 900.924 684.535 929.34C752.303 952.402 1068.74 954.817 1193.58 836.956C1308.86 728.132 1253.72 483.152 1236.54 463.991C1227.54 453.945 1208.38 428.885 1214 461.928C1227.87 543.599 1240.99 680.307 1141.21 779.523C1040.56 879.595 890.452 916.628 720.701 852.212C701.362 844.874 650.106 856.945 647.161 857.874C573.39 881.15 526.767 786.952 494.048 701.908C465.382 627.399 457.336 777.756 500.738 832.013Z" fill="#a5b2b5" fill-rule="nonzero" opacity="1" stroke="none"/>
<path d="M782.298 679.445C788.668 754.661 736.934 790.899 690.825 779.663C629.102 764.622 607.537 726.219 607.537 726.219C607.537 726.219 780.545 658.744 782.298 679.445Z" fill="#a5b2b5" fill-rule="nonzero" opacity="1" stroke="none"/>
</g>
</g>
<g id="Ebene-3">
<path d="M1259.11 1522.02C1246.16 1505.52 1290.91 1510.73 1299.06 1516.23C1396.75 1582.1 1518.39 1648.58 1399.69 1625.26C1381.09 1621.61 1302.47 1577.28 1259.11 1522.02Z" fill="#2558a0" fill-rule="nonzero" opacity="1" stroke="none"/>
<path d="M1194.74 1545.37C1204.4 1561.61 1231.54 1601.97 1286.21 1616.36C1313.05 1623.43 1239.58 1566.26 1219.78 1538.14C1213.27 1528.9 1189.25 1536.14 1194.74 1545.37Z" fill="#2558a0" fill-rule="nonzero" opacity="1" stroke="none"/>
<use fill="#499bff" fill-rule="nonzero" opacity="1" stroke="none" xlink:href="#Fill_2"/>
<clipPath clip-rule="nonzero" id="ClipPath_2">
<use xlink:href="#Fill_2"/>
</clipPath>
<g clip-path="url(#ClipPath_2)">
<path d="M1352.74 1457.52L1459.39 1718.8C1459.39 1718.8 1779.26 1566.5 1655.94 1592.5C1532.62 1618.5 1352.74 1457.52 1352.74 1457.52Z" fill="#2558a0" fill-rule="nonzero" opacity="1" stroke="none"/>
</g>
</g>
<g id="Ebene-11">
<use fill="#499bff" fill-rule="nonzero" opacity="1" stroke="none" xlink:href="#Fill_3"/>
<clipPath clip-rule="nonzero" id="ClipPath_3">
<use xlink:href="#Fill_3"/>
</clipPath>
<g clip-path="url(#ClipPath_3)">
<path d="M928.524 1229.06L1293.65 1262.32C1293.65 1262.32 1353.53 1198.18 1383.15 1163.34C1393.43 1151.25 1400.06 1142.7 1399.29 1141.56C1385.89 1121.69 1333.85 1097.5 1307.63 1128.59C1285.6 1154.72 1236.16 1154.8 1221.13 1126.31C1221.13 1126.31 1219.61 1183.06 1206.56 1186.17C1158.3 1197.66 1123.39 1162.48 1107.56 1140.1C1107.56 1140.1 1108.88 1190.02 1102.42 1191.55C1068.09 1199.67 1033.83 1150.65 1028.22 1142.87C1000.14 1104 1002.14 1038.77 1013.19 980.776C1017.59 957.68 985.34 983.938 985.34 983.938L928.524 1229.06Z" fill="#2558a0" fill-rule="nonzero" opacity="1" stroke="none"/>
<path d="M945.124 1074.86L992.211 1094.01C1010.86 989.742 1046.49 956.938 1094.9 935.888C1137.68 917.287 1227.92 940.549 1262.35 979.413L1280.07 888.708L1041.02 889.856L945.124 1074.86Z" fill="#fbf8e8" fill-rule="nonzero" opacity="1" stroke="none"/>
<path d="M1147.68 985.003C1145.03 1003.27 1181.86 1028.56 1195.64 1018.6C1211.69 1006.99 1211.76 993.637 1197.44 980.602C1185.31 969.561 1150.52 965.512 1147.68 985.003Z" fill="#fbf8e8" fill-rule="nonzero" opacity="1" stroke="none"/>
</g>
</g>
<g id="Ebene-10">
<use fill="#499bff" fill-rule="nonzero" opacity="1" stroke="none" xlink:href="#Fill_4"/>
<clipPath clip-rule="nonzero" id="ClipPath_4">
<use xlink:href="#Fill_4"/>
</clipPath>
<g clip-path="url(#ClipPath_4)">
<path d="M1034.58 1220.61L1376.23 1089.6C1376.23 1089.6 1349.29 1118.13 1341.56 1158.99C1328.05 1230.33 1278.12 1221.41 1250.33 1199.85C1245.26 1195.91 1245.9 1198 1245.82 1200.81C1243.92 1271.23 1175.1 1275.24 1147.93 1249.63C1142.86 1244.86 1139.79 1240.58 1139.3 1242.01C1133.99 1257.28 1128.17 1264.66 1125.71 1280.29C1121.94 1304.24 1124.01 1306.12 1140.99 1327.07C1214.26 1417.47 1257.63 1420.27 1319.74 1444.33C1331.36 1448.83 1221.38 1284.62 1228.69 1291.95C1242.32 1305.61 1274.6 1346.21 1309.19 1376.33C1347.05 1409.31 1388.81 1436.39 1417.16 1451.16C1420.9 1453.11 1299.65 1233.83 1316.23 1253.08C1350.98 1293.4 1360.76 1321.4 1399.39 1339.83C1415.71 1347.61 1425.22 1512.49 1425.22 1512.49L1154.1 1500.46L1034.58 1220.61Z" fill="#2558a0" fill-rule="nonzero" opacity="1" stroke="none"/>
</g>
</g>
<g id="Ebene-9">
<use fill="#499bff" fill-rule="nonzero" opacity="1" stroke="none" xlink:href="#Fill_5"/>
<clipPath clip-rule="nonzero" id="ClipPath_5">
<use xlink:href="#Fill_5"/>
</clipPath>
<g clip-path="url(#ClipPath_5)">
<path d="M397.411 1212.59C397.411 1212.59 390.697 1150.93 424.447 1080.74C455.721 1015.7 529.91 967.422 529.91 967.422L479.863 1335.39L397.411 1212.59Z" fill="#2558a0" fill-rule="nonzero" opacity="1" stroke="none"/>
</g>
</g>
<g id="Ebene-8">
<use fill="#499bff" fill-rule="nonzero" opacity="1" stroke="none" xlink:href="#Fill_6"/>
<clipPath clip-rule="nonzero" id="ClipPath_6">
<use xlink:href="#Fill_6"/>
</clipPath>
<g clip-path="url(#ClipPath_6)">
<path d="M810.922 280.586C935.593 246.958 1123.74 209.077 1087.53 125.783L752.981 106.706L680.584 305.262C629.416 369.322 635.809 382.097 635.809 382.097C666.163 352.216 686.251 314.214 810.922 280.586Z" fill="#fbf8e8" fill-rule="nonzero" opacity="1" stroke="none"/>
<path d="M1264.62 145.739L1093.89 148.126C1078.07 259.294 1006.07 260.734 1030.14 273.504C1035.67 276.439 1051.48 277.787 1069.02 269.195C1123.08 242.704 1212.21 160.777 1211.27 166.769C1204.22 211.424 1175.87 268.14 1134.62 297.712C1081.26 335.965 1016.26 341.768 1045.22 348.552C1048.21 349.25 1057.36 351.5 1064.79 350.618C1091.21 347.487 1136.26 333.949 1164.17 329.651L1155.25 339.836C1133 359.733 1090.97 364.809 1068.63 368.844C1042.54 373.555 1140.05 381.11 1204.15 455.264C1225.37 479.821 1315.76 386.102 1315.76 386.102L1264.62 145.739Z" fill="#2558a0" fill-rule="nonzero" opacity="1" stroke="none"/>
</g>
</g>
<g id="Ebene-6">
<path d="M743.03 1526.79C764.592 1537.01 791.899 1547.68 828.631 1560.03C836.508 1562.68 809.654 1606.87 780.317 1595.86C741.639 1581.34 735.675 1523.31 743.03 1526.79Z" fill="#b28302" fill-rule="nonzero" opacity="1" stroke="none"/>
<use fill="#f9d15b" fill-rule="nonzero" opacity="1" stroke="none" xlink:href="#Fill_7"/>
<clipPath clip-rule="nonzero" id="ClipPath_7">
<use xlink:href="#Fill_7"/>
</clipPath>
<g clip-path="url(#ClipPath_7)">
<path d="M366.226 1544.55L1156.21 1703.84L1391.3 1412.69C1391.3 1412.69 973.904 1003.89 967.953 1135.89C963.773 1228.58 1009.08 1309.03 1053.02 1360.42C1092.54 1406.64 1131.26 1427.45 1118.31 1427.91C967.161 1433.3 815.383 1465.79 649.451 1287.42C646.923 1284.71 642.247 1282.36 641.115 1289.5C638.657 1304.97 647.915 1336.74 635.577 1331.64C553.904 1297.9 502.275 1232.93 482.216 1166.92L366.226 1544.55Z" fill="#b28302" fill-rule="nonzero" opacity="1" stroke="none"/>
<path d="M596.176 893.092C596.176 893.092 551.584 916.273 527.575 979.822C503.567 1043.37 503.435 1109.08 515.927 1211.54C528.418 1314 623.916 1432.29 623.916 1432.29L463.699 1325.24L416.781 1070.41L509.197 902.582L596.176 893.092Z" fill="#fbf8e8" fill-rule="nonzero" opacity="1" stroke="none"/>
</g>
</g>
<g id="Ebene-4">
<path d="M486.329 565.978C439.98 563.9 399.734 563.392 354.634 564.951C354.634 564.951 355.699 619.355 355.699 619.355C376.245 617.957 427.608 617.687 476.208 618.547L486.329 565.978Z" fill="#12253f" fill-rule="nonzero" opacity="1" stroke="none"/>
<path d="M508.794 544.994C488.588 572.968 483.469 645.662 528.108 659.292C570.837 672.339 597.19 613.398 595.065 577.015C592.727 536.997 546.979 492.132 508.794 544.994Z" fill="#12253f" fill-rule="nonzero" opacity="1" stroke="none"/>
<path d="M532.402 561.045C527.873 572.391 533.464 596.14 551.376 595.92C568.521 595.709 572.212 574.248 567.614 562.489C562.557 549.555 540.962 539.605 532.402 561.045Z" fill="#e7ecf3" fill-rule="nonzero" opacity="1" stroke="none"/>
<path d="M879.974 547.553C854.93 583.032 862.398 665.157 933.71 673.758C1001.97 681.991 1029.96 612.339 1019 570.724C1006.93 524.949 927.301 480.507 879.974 547.553Z" fill="#12253f" fill-rule="nonzero" opacity="1" stroke="none"/>
<path d="M925.736 552.684C916.862 564.919 919.508 593.239 944.778 596.205C968.967 599.044 978.888 575.025 975.001 560.674C970.726 544.889 942.507 529.563 925.736 552.684Z" fill="#e7ecf3" fill-rule="nonzero" opacity="1" stroke="none"/>
<g opacity="1">
<path d="M781.489 613.667C776.315 510.878 867.499 443.278 946.87 443.278C1026.24 443.278 1095.73 550.552 1095.73 624.095C1095.73 697.639 1011.08 766.206 931.709 766.206C852.339 766.206 786.663 716.456 781.489 613.667Z" fill="#bcb9c2" fill-opacity="0.202865" fill-rule="nonzero" opacity="1" stroke="none"/>
<path d="M351.892 597.007C347.152 500.489 430.704 437.013 503.432 437.013C576.159 437.013 639.837 537.742 639.837 606.798C639.837 675.855 562.268 740.239 489.54 740.239C416.812 740.239 356.633 693.524 351.892 597.007Z" fill="#bcb9c2" fill-opacity="0.202865" fill-rule="nonzero" opacity="1" stroke="none"/>
</g>
<path d="M956.433 416.826C773.295 418.488 724.815 584.787 780.973 699.499C838.933 817.891 1041.51 824.874 1102.39 677.43C1151.17 559.317 1075.96 415.742 956.433 416.826ZM954.867 464.679C1048.56 463.868 1097.87 580.311 1063.02 657.386C1013.53 766.833 862.788 764.481 817.354 675.973C773.333 590.216 811.309 465.921 954.867 464.679Z" fill="#12253f" fill-rule="nonzero" opacity="1" stroke="none"/>
<path d="M1288.34 565.618C1229.33 555.981 1161.23 561.507 1097.19 566.618L1099.06 621C1135.24 615.443 1265.66 614.201 1294.36 619.933C1310.41 623.138 1313.3 609.162 1312.32 594.339C1310.76 570.99 1298.38 567.258 1288.34 565.618Z" fill="#12253f" fill-rule="nonzero" opacity="1" stroke="none"/>
<path d="M791.691 573.034C732.291 544.945 674.139 554.175 626.562 567.106C615.184 570.199 612.985 579.445 614.523 592.619C616.588 610.298 618.566 622.529 631.543 617.142C693.023 591.624 754.52 611.84 789.934 621.166C801.826 624.298 810.861 612.861 809.875 598.038C808.322 574.689 800.892 577.385 791.691 573.034Z" fill="#12253f" fill-rule="nonzero" opacity="1" stroke="none"/>
<path d="M508.461 427.861C421.064 426.129 327.502 501.917 337.845 601.026C349.904 716.583 433.167 803.698 553.983 758.787C712.749 699.768 678.925 532.046 589.709 457.432C566.017 437.618 537.593 428.438 508.461 427.861ZM504.492 471.89C526.693 471.976 548.283 478.49 566.11 492.939C633.243 547.351 657.026 671.605 535.301 717.344C442.672 752.149 380.238 688.383 372.405 602.628C365.687 529.079 437.888 471.631 504.492 471.89Z" fill="#12253f" fill-rule="nonzero" opacity="1" stroke="none"/>
<path d="M756.328 595.907C727.905 591.441 687.147 588.904 656.237 611.42C612.515 643.267 583.807 706.889 597.017 727.278C619.566 762.081 712.584 764.835 741.623 753.748C795.543 733.16 775.375 598.9 756.328 595.907Z" fill="#12253f" fill-rule="nonzero" opacity="1" stroke="none"/>
<path d="M1107.82 426.321C1097.31 424.439 1155.63 452.002 1194.91 481.928C1225.5 505.222 1218.6 503.556 1230.57 516.08C1236.55 522.34 1218.46 477.187 1217.07 476.252C1172.93 446.636 1123.65 429.153 1107.82 426.321Z" fill="#12253f" fill-rule="nonzero" opacity="1" stroke="none"/>
</g>
<g id="Ebene-5">
<path d="M685.118 1783.59C679.803 1786.03 671.827 1794.59 661.774 1798.55C657.097 1800.39 644.519 1806.81 647.132 1799.64C652.243 1785.63 666.013 1770.16 677.497 1764.08C686.013 1759.57 736.821 1760.08 750.905 1765.11C752.514 1765.69 749.498 1771.22 733.546 1771.96C720.73 1772.55 693.41 1779.79 685.118 1783.59Z" fill="#4f657b" fill-rule="nonzero" opacity="1" stroke="none"/>
<path d="M992.763 1787.65C987.375 1789.93 974.979 1799.86 964.927 1803.82C960.249 1805.66 947.671 1812.08 950.284 1804.91C955.396 1790.9 974.516 1771.08 986.001 1764.99C994.517 1760.48 1038.22 1762.74 1052.3 1767.77C1053.91 1768.34 1052.65 1776.49 1036.7 1777.23C1023.88 1777.82 1004.96 1782.51 992.763 1787.65Z" fill="#4f657b" fill-rule="nonzero" opacity="1" stroke="none"/>
<path d="M840.476 1775.27C855.288 1777.12 874.824 1788.41 873.1 1780.9C872.051 1776.34 862.434 1766.56 848.047 1763.17C829.414 1758.78 811.057 1764.71 797.74 1767.8C796.075 1768.18 794.723 1772.56 807.596 1773.21C820.409 1773.87 829.437 1773.9 840.476 1775.27Z" fill="#4f657b" fill-rule="nonzero" opacity="1" stroke="none"/>
<path d="M1149.52 1775.37C1164.36 1776.96 1184.09 1787.91 1182.23 1780.43C1181.11 1775.89 1171.32 1766.28 1156.88 1763.14C1138.17 1759.07 1119.92 1765.32 1106.66 1768.64C1105 1769.06 1103.72 1773.45 1116.61 1773.88C1129.43 1774.31 1138.46 1774.19 1149.52 1775.37Z" fill="#4f657b" fill-rule="nonzero" opacity="1" stroke="none"/>
<use fill="#4f657b" fill-rule="nonzero" opacity="1" stroke="none" xlink:href="#Fill_8"/>
<clipPath clip-rule="nonzero" id="ClipPath_8">
<use xlink:href="#Fill_8"/>
</clipPath>
<g clip-path="url(#ClipPath_8)">
<path d="M756.385 628.564C720.412 640.159 691.656 640.993 650.425 671.699C609.194 702.405 610.761 724.672 610.761 724.672L579.843 713.817L690.302 588.443L756.385 628.564Z" fill="#e7e8f1" fill-rule="nonzero" opacity="1" stroke="none"/>
<path d="M749.68 663.644C710.23 670.099 636.287 698.912 610.63 713.472L611.783 718.923C629.069 713.449 728.853 692.633 751.078 697.508L749.68 663.644Z" fill="#12253f" fill-rule="nonzero" opacity="1" stroke="none"/>
</g>
</g>
</svg>
