<?xml version="1.0" encoding="UTF-8" standalone="no"?>
<!DOCTYPE svg PUBLIC "-//W3C//DTD SVG 1.1//EN" "http://www.w3.org/Graphics/SVG/1.1/DTD/svg11.dtd">
<!-- Created with Vectornator (http://vectornator.io/) -->
<svg height="2000.0px" stroke-miterlimit="10" style="fill-rule:nonzero;clip-rule:evenodd;stroke-linecap:round;stroke-linejoin:round;" version="1.1" viewBox="0 0 2000 2000" width="2000.0px" xml:space="preserve" xmlns="http://www.w3.org/2000/svg" xmlns:xlink="http://www.w3.org/1999/xlink">
<defs>
<path d="M469.661 893.092C335.829 1195.38 493.461 1396.28 571.26 1424.3C639.252 1448.79 708.831 1371.65 728.484 1306.46C729.659 1302.56 763.666 1289.72 764.83 1315.29C767.894 1382.58 881.098 1505 1106.32 1487.25C1328.97 1469.71 1525.97 1340.02 1577.95 1110.59C1590.14 1056.75 1594.66 933.799 1545.08 833.164C1540.54 823.954 1537.11 821.638 1533.59 819.79C1516.57 810.859 1479.67 744.603 1444.92 722.409C1285.46 620.577 990.551 605.977 842.141 739.231C771.702 802.476 649.604 703.724 590.908 701.163C584.888 700.9 581.432 702.606 577.475 707.16C526.127 766.263 492.543 841.409 469.661 893.092Z" id="Fill"/>
<path d="M1404.19 1483.47C1390.79 1483.99 1377.48 1486.23 1364.41 1490.44C1236.52 1531.62 1213.3 1645.13 1206.56 1731.62C1202.33 1785.9 1215.39 1834.42 1236.03 1875.47C1393.97 1833.01 1534.88 1748.99 1646.31 1635.84C1583.51 1550.86 1491.77 1480.04 1404.19 1483.47Z" id="Fill_2"/>
<path d="M391 1579.66C390.395 1579.59 389.613 1579.8 388.625 1580.34C378.692 1585.79 363.265 1606.23 348.313 1630.5C356.433 1638.88 364.689 1647.12 373.125 1655.19C384.401 1612.43 397.186 1580.38 391 1579.66Z" id="Fill_3"/>
<path d="M582.79 701.265C579.845 706.093 616.504 725.253 645.358 760.469C675.345 797.068 696.628 849.125 705.208 870.55C708.358 878.416 728.815 871.75 752.004 871.558C777.449 871.346 805.777 876.972 808.459 871.666C819.51 849.804 925.301 702.996 1097.03 688.177C1315.78 669.3 1457.13 772.544 1520.66 817.434C1544.14 834.022 1546.27 806.519 1507.23 756.236C1505.71 754.276 1432.31 670.99 1364.88 654.475C1359.86 653.245 1352.06 650.941 1358.44 650.727C1428.14 648.394 1475.3 635.028 1528.75 612.262C1537.82 608.401 1559.85 591.462 1541.17 594.882C1459.22 609.885 1365.42 623.815 1304.29 616.154C1296.21 615.141 1280.79 610 1287.36 609.403C1494.98 590.53 1528.47 434.6 1534.97 387.337C1538.14 364.344 1531.1 360.734 1529.85 362.821C1473.63 456.475 1309.65 495.703 1291.41 498.452C1276.07 500.765 1268.77 491.346 1270.26 490.372C1294.41 474.627 1334.48 434.73 1354.8 351.524C1358.69 335.586 1354.46 319.433 1348.57 326.425C1209.55 491.561 770.631 393.368 582.79 701.265Z" id="Fill_4"/>
<path d="M536 1487.44C524.834 1487.48 511.461 1489.4 504.25 1494.59C490.747 1504.32 470.973 1526.42 459.563 1547.41C440.465 1582.53 423.147 1631.39 414.25 1692.12C572.295 1825.87 776.684 1906.56 999.938 1906.56C1055.38 1906.56 1109.65 1901.56 1162.34 1892.03C1131.61 1794.4 1137.28 1689.26 1203.59 1544.31C1213.91 1521.76 1093 1541.82 1003.78 1565.22C950.062 1579.31 901.221 1614.88 859.75 1646.31C854.064 1650.62 852.563 1634.88 856.313 1620.91C861.45 1601.75 876.573 1579.99 865.625 1586.81C836.286 1605.09 809.971 1629.48 773.281 1675.62C769.442 1680.45 758.601 1687.9 756.344 1679.28C752.404 1664.23 764.152 1629.35 753.625 1638.09C735.351 1653.27 672.339 1726.4 655.375 1778.88C651.391 1791.2 633.657 1770.56 616.219 1726.03C602.192 1690.21 596.785 1623.15 606.875 1579.62C610.037 1565.99 607.908 1560.82 598.406 1570.56C590.679 1578.48 577.621 1596.99 571.781 1615.91C569.703 1622.64 563.047 1626.43 558.531 1620.34C532.575 1585.39 526.387 1529.73 554.531 1491.41C556.149 1489.2 547.166 1487.39 536 1487.44Z" id="Fill_5"/>
<path d="M788.828 1044.26C756.892 1049.04 710.691 1049.15 653.345 1105.35C628.76 1129.44 596.443 1172.79 615.729 1177.92C674.843 1193.63 769.644 1200.22 787.444 1179.39C834.345 1124.53 807.205 1041.51 788.828 1044.26Z" id="Fill_6"/>
</defs>
<g id="Ebene-2">
<path d="M92.7057 999.332C92.7057 498.285 498.884 92.1069 999.931 92.1069C1500.98 92.1069 1907.16 498.285 1907.16 999.332C1907.16 1500.38 1500.98 1906.56 999.931 1906.56C498.884 1906.56 92.7057 1500.38 92.7057 999.332Z" fill="#edf2f8" fill-rule="nonzero" opacity="1" stroke="#262626" stroke-linecap="butt" stroke-linejoin="round" stroke-width="36.3976"/>
<path d="M1383.38 225.156C1370.36 224.262 1356.77 231.793 1348.19 246.469C1256.12 403.895 951.992 381.121 777.656 461.469C771.317 464.39 782.851 405.91 756.312 429.531C690.052 488.508 526.741 639.19 460.625 757.531C310.418 1026.39 325.308 1228.51 441.375 1425.03C451 1441.33 459.242 1456.19 431.469 1475.16C382.559 1508.56 344.137 1549.81 314.438 1593.59C480.778 1785.3 726.198 1906.56 999.938 1906.56C1273.02 1906.56 1517.9 1785.88 1684.22 1594.97C1671.22 1576.78 1658.81 1560.87 1647.44 1547.69C1573.33 1461.79 1524 1466.41 1543.81 1438.94C1755.51 1145.33 1651.61 833.203 1552.53 712.844C1532.72 688.776 1514.7 677.998 1527.09 672.531C1597.12 641.63 1640.56 586.939 1651.41 555.281C1676.9 480.857 1635.34 488.159 1595.75 514.281C1556.23 540.36 1531.88 548.702 1547.25 530.5C1611.75 454.094 1606.05 330.052 1600.69 287.063C1591.16 210.675 1547.32 228.796 1538.72 249.031C1509.92 316.794 1404.27 393.292 1408.56 386.094C1429.3 351.328 1421.71 302.614 1418.91 272.938C1415.92 241.356 1400.11 226.306 1383.38 225.156Z" fill="#12253f" fill-rule="nonzero" opacity="1" stroke="none"/>
</g>
<g id="Ebene-7">
<use fill="#fdfbe4" fill-rule="nonzero" opacity="1" stroke="none" xlink:href="#Fill"/>
<clipPath clip-rule="nonzero" id="ClipPath">
<use xlink:href="#Fill"/>
</clipPath>
<g clip-path="url(#ClipPath)">
<path d="M434.727 1367.3C474.479 1416.99 591.228 1474.82 721.517 1519.16C827.258 1555.15 1321.01 1558.92 1515.82 1375.01C1695.69 1205.21 1609.65 822.948 1582.85 793.05C1568.8 777.374 1538.91 738.272 1547.67 789.832C1569.32 917.268 1589.8 1130.58 1434.09 1285.4C1277.05 1441.54 1042.82 1499.33 777.949 1398.82C747.773 1387.37 667.794 1406.2 663.198 1407.65C548.09 1443.97 475.34 1296.99 424.287 1164.29C379.558 1048.03 367.003 1282.64 434.727 1367.3Z" fill="#a5b2b5" fill-rule="nonzero" opacity="1" stroke="none"/>
<path d="M874.062 1129.24C884.002 1246.6 803.277 1303.15 731.33 1285.61C635.021 1262.14 601.372 1202.22 601.372 1202.22C601.372 1202.22 871.326 1096.94 874.062 1129.24Z" fill="#a5b2b5" fill-rule="nonzero" opacity="1" stroke="none"/>
</g>
</g>
<clipPath id="ArtboardFrame">
<rect height="2000" width="2000" x="0" y="0"/>
</clipPath>
<g clip-path="url(#ArtboardFrame)" id="Ebene-11">
<use fill="#499bff" fill-rule="nonzero" opacity="1" stroke="none" xlink:href="#Fill_2"/>
<clipPath clip-rule="nonzero" id="ClipPath_2">
<use xlink:href="#Fill_2"/>
</clipPath>
<g clip-path="url(#ClipPath_2)">
<path d="M1102.23 1986.84L1671.95 2038.73C1671.95 2038.73 1765.39 1938.65 1811.61 1884.29C1827.64 1865.43 1838 1852.08 1836.8 1850.31C1815.88 1819.3 1734.69 1781.55 1693.78 1830.07C1659.4 1870.85 1582.26 1870.97 1558.79 1826.51C1558.79 1826.51 1556.42 1915.06 1536.07 1919.91C1460.76 1937.84 1406.29 1882.95 1381.59 1848.03C1381.59 1848.03 1383.65 1925.92 1373.56 1928.31C1320 1940.97 1266.55 1864.49 1257.79 1852.36C1213.98 1791.7 1217.09 1689.92 1234.34 1599.42C1241.21 1563.39 1190.88 1604.36 1190.88 1604.36L1102.23 1986.84Z" fill="#2558a0" fill-rule="nonzero" opacity="1" stroke="none"/>
<path d="M1128.13 1746.23L1201.6 1776.1C1230.69 1613.41 1286.3 1562.23 1361.84 1529.38C1428.58 1500.36 1569.4 1536.65 1623.11 1597.3L1650.77 1455.76L1277.76 1457.55L1128.13 1746.23Z" fill="#fbf8e8" fill-rule="nonzero" opacity="1" stroke="none"/>
<path d="M1444.2 1606.02C1440.06 1634.52 1497.53 1673.98 1519.03 1658.44C1544.08 1640.32 1544.17 1619.49 1521.83 1599.15C1502.9 1581.92 1448.62 1575.61 1444.2 1606.02Z" fill="#fbf8e8" fill-rule="nonzero" opacity="1" stroke="none"/>
</g>
</g>
<g clip-path="url(#ArtboardFrame)" id="Ebene-9">
<use fill="#499bff" fill-rule="nonzero" opacity="1" stroke="none" xlink:href="#Fill_3"/>
<clipPath clip-rule="nonzero" id="ClipPath_3">
<use xlink:href="#Fill_3"/>
</clipPath>
<g clip-path="url(#ClipPath_3)">
<path d="M273.499 1961.14C273.499 1961.14 263.023 1864.93 315.685 1755.41C364.483 1653.92 480.245 1578.59 480.245 1578.59L402.154 2152.74L273.499 1961.14Z" fill="#2558a0" fill-rule="nonzero" opacity="1" stroke="none"/>
</g>
</g>
<g id="Ebene-8">
<use fill="#499bff" fill-rule="nonzero" opacity="1" stroke="none" xlink:href="#Fill_4"/>
<clipPath clip-rule="nonzero" id="ClipPath_4">
<use xlink:href="#Fill_4"/>
</clipPath>
<g clip-path="url(#ClipPath_4)">
<path d="M918.726 506.872C1113.26 454.4 1406.84 395.292 1350.34 265.324L828.318 235.556L715.351 545.375C635.511 645.332 645.486 665.266 645.486 665.266C692.849 618.64 724.193 559.344 918.726 506.872Z" fill="#fbf8e8" fill-rule="nonzero" opacity="1" stroke="none"/>
<path d="M1626.66 296.461L1360.27 300.186C1335.58 473.648 1223.23 475.896 1260.78 495.821C1269.41 500.4 1294.08 502.505 1321.45 489.097C1405.81 447.761 1544.89 319.927 1543.41 329.277C1532.41 398.955 1488.19 487.451 1423.82 533.595C1340.55 593.284 1239.13 602.339 1284.32 612.923C1288.98 614.013 1303.25 617.523 1314.86 616.148C1356.08 611.262 1426.37 590.137 1469.91 583.431L1456 599.323C1421.29 630.37 1355.71 638.29 1320.84 644.586C1280.14 651.937 1432.29 663.727 1532.3 779.433C1565.42 817.751 1706.45 671.515 1706.45 671.515L1626.66 296.461Z" fill="#2558a0" fill-rule="nonzero" opacity="1" stroke="none"/>
</g>
</g>
<g clip-path="url(#ArtboardFrame)" id="Ebene-6">
<use fill="#f9d15b" fill-rule="nonzero" opacity="1" stroke="none" xlink:href="#Fill_5"/>
<clipPath clip-rule="nonzero" id="ClipPath_5">
<use xlink:href="#Fill_5"/>
</clipPath>
<g clip-path="url(#ClipPath_5)">
<path d="M224.838 2479.11L1457.51 2727.67L1824.33 2273.36C1824.33 2273.36 1173.04 1635.49 1163.75 1841.45C1157.23 1986.08 1227.93 2111.61 1296.49 2191.8C1358.16 2263.92 1418.57 2296.4 1398.36 2297.12C1162.51 2305.53 925.686 2356.22 666.772 2077.91C662.828 2073.67 655.531 2070.01 653.764 2081.14C649.93 2105.28 664.376 2154.85 645.124 2146.9C517.684 2094.25 437.125 1992.88 405.825 1889.88L224.838 2479.11Z" fill="#b28302" fill-rule="nonzero" opacity="1" stroke="none"/>
<path d="M583.644 1462.6C583.644 1462.6 514.064 1498.77 476.602 1597.93C439.14 1697.09 438.935 1799.63 458.426 1959.5C477.917 2119.37 626.929 2303.96 626.929 2303.96L376.932 2136.92L303.723 1739.29L447.925 1477.41L583.644 1462.6Z" fill="#fbf8e8" fill-rule="nonzero" opacity="1" stroke="none"/>
</g>
</g>
<g id="Ebene-4">
<path d="M412.243 952.187C339.922 948.945 277.123 948.152 206.751 950.585C206.751 950.585 208.413 1035.48 208.413 1035.48C240.471 1033.29 320.616 1032.87 396.451 1034.21L412.243 952.187Z" fill="#12253f" fill-rule="nonzero" opacity="1" stroke="none"/>
<path d="M447.297 919.445C415.768 963.093 407.78 1076.52 477.433 1097.79C544.105 1118.15 585.226 1026.18 581.91 969.409C578.263 906.966 506.879 836.96 447.297 919.445Z" fill="#12253f" fill-rule="nonzero" opacity="1" stroke="none"/>
<path d="M484.134 944.49C477.066 962.194 485.79 999.252 513.739 998.907C540.492 998.578 546.252 965.092 539.077 946.744C531.185 926.562 497.49 911.036 484.134 944.49Z" fill="#e7ecf3" fill-rule="nonzero" opacity="1" stroke="none"/>
<path d="M1026.47 923.438C987.395 978.798 999.046 1106.94 1110.32 1120.36C1216.83 1133.21 1260.51 1024.53 1243.4 959.592C1224.57 888.167 1100.32 818.821 1026.47 923.438Z" fill="#12253f" fill-rule="nonzero" opacity="1" stroke="none"/>
<path d="M1097.88 931.443C1084.03 950.534 1088.16 994.725 1127.59 999.353C1165.33 1003.78 1180.81 966.304 1174.75 943.911C1168.08 919.28 1124.05 895.366 1097.88 931.443Z" fill="#e7ecf3" fill-rule="nonzero" opacity="1" stroke="none"/>
<g opacity="1">
<path d="M872.8 1026.6C864.727 866.212 1007.01 760.73 1130.85 760.73C1254.7 760.73 1363.14 928.116 1363.14 1042.87C1363.14 1157.63 1231.04 1264.62 1107.2 1264.62C983.351 1264.62 880.873 1186.99 872.8 1026.6Z" fill="#bcb9c2" fill-opacity="0.202865" fill-rule="nonzero" opacity="1" stroke="none"/>
<path d="M202.473 1000.6C195.075 850 325.448 750.954 438.929 750.954C552.411 750.954 651.771 908.128 651.771 1015.88C651.771 1123.64 530.734 1224.1 417.253 1224.1C303.772 1224.1 209.871 1151.21 202.473 1000.6Z" fill="#bcb9c2" fill-opacity="0.202865" fill-rule="nonzero" opacity="1" stroke="none"/>
</g>
<path d="M1145.78 719.456C860.015 722.049 784.368 981.537 871.995 1160.53C962.433 1345.26 1278.53 1356.16 1373.53 1126.09C1449.63 941.793 1332.28 717.764 1145.78 719.456ZM1143.33 794.124C1289.53 792.859 1366.47 974.552 1312.09 1094.82C1234.87 1265.59 999.655 1261.92 928.763 1123.82C860.074 990.008 919.33 796.062 1143.33 794.124Z" fill="#12253f" fill-rule="nonzero" opacity="1" stroke="none"/>
<path d="M1663.67 951.625C1571.6 936.589 1465.34 945.211 1365.4 953.185L1368.33 1038.04C1424.78 1029.37 1628.29 1027.43 1673.07 1036.38C1698.11 1041.38 1702.62 1019.57 1701.08 996.44C1698.66 960.008 1679.34 954.184 1663.67 951.625Z" fill="#12253f" fill-rule="nonzero" opacity="1" stroke="none"/>
<path d="M888.719 963.197C796.033 919.368 705.294 933.771 631.057 953.948C613.304 958.773 609.872 973.201 612.272 993.757C615.494 1021.34 618.58 1040.43 638.829 1032.02C734.76 992.204 830.718 1023.75 885.977 1038.3C904.532 1043.19 918.63 1025.34 917.092 1002.21C914.669 965.78 903.076 969.987 888.719 963.197Z" fill="#12253f" fill-rule="nonzero" opacity="1" stroke="none"/>
<path d="M446.777 736.674C310.406 733.972 164.415 852.228 180.554 1006.87C199.371 1187.19 329.291 1323.12 517.808 1253.04C765.54 1160.95 712.763 899.241 573.552 782.816C536.586 751.9 492.234 737.575 446.777 736.674ZM440.583 805.375C475.225 805.51 508.914 815.674 536.73 838.22C641.482 923.123 678.592 1117 488.657 1188.37C344.122 1242.68 246.702 1143.18 234.48 1009.38C223.998 894.612 336.657 804.971 440.583 805.375Z" fill="#12253f" fill-rule="nonzero" opacity="1" stroke="none"/>
<path d="M833.54 998.888C789.189 991.918 725.593 987.96 677.361 1023.09C609.138 1072.79 564.345 1172.06 584.956 1203.87C620.141 1258.18 765.283 1262.48 810.594 1245.18C894.729 1213.05 863.259 1003.56 833.54 998.888Z" fill="#12253f" fill-rule="nonzero" opacity="1" stroke="none"/>
<path d="M1382 734.271C1365.59 731.335 1456.59 774.343 1517.89 821.039C1565.61 857.386 1554.85 854.787 1573.53 874.327C1582.87 884.095 1554.63 813.641 1552.46 812.182C1483.59 765.97 1406.69 738.69 1382 734.271Z" fill="#12253f" fill-rule="nonzero" opacity="1" stroke="none"/>
</g>
<g id="Ebene-5">
<use fill="#4f657b" fill-rule="nonzero" opacity="1" stroke="none" xlink:href="#Fill_6"/>
<clipPath clip-rule="nonzero" id="ClipPath_6">
<use xlink:href="#Fill_6"/>
</clipPath>
<g clip-path="url(#ClipPath_6)">
<path d="M833.629 1049.84C777.497 1067.94 732.628 1069.24 668.293 1117.15C603.958 1165.06 606.403 1199.81 606.403 1199.81L558.159 1182.87L730.515 987.24L833.629 1049.84Z" fill="#e7e8f1" fill-rule="nonzero" opacity="1" stroke="none"/>
<path d="M823.166 1104.58C761.609 1114.65 646.231 1159.61 606.197 1182.33L607.997 1190.84C634.969 1182.29 790.668 1149.81 825.347 1157.42L823.166 1104.58Z" fill="#12253f" fill-rule="nonzero" opacity="1" stroke="none"/>
</g>
</g>
<g id="Ebene-12">
<path d="M92.7057 999.332C92.7057 498.285 498.884 92.1069 999.931 92.1069C1500.98 92.1069 1907.16 498.285 1907.16 999.332C1907.16 1500.38 1500.98 1906.56 999.931 1906.56C498.884 1906.56 92.7057 1500.38 92.7057 999.332Z" fill="none" opacity="1" stroke="#262626" stroke-linecap="butt" stroke-linejoin="round" stroke-width="36.3976"/>
</g>
</svg>
