<?xml version="1.0" encoding="UTF-8" standalone="no"?>
<!DOCTYPE svg PUBLIC "-//W3C//DTD SVG 1.1//EN" "http://www.w3.org/Graphics/SVG/1.1/DTD/svg11.dtd">
<!-- Created with Vectornator (http://vectornator.io/) -->
<svg height="100%" stroke-miterlimit="10" style="fill-rule:nonzero;clip-rule:evenodd;stroke-linecap:round;stroke-linejoin:round;" version="1.1" viewBox="0 0 2000 2000" width="100%" xml:space="preserve" xmlns="http://www.w3.org/2000/svg" xmlns:xlink="http://www.w3.org/1999/xlink">
<defs>
<path d="M523.128 528.106C466.984 654.921 488.766 755.758 527.335 812.84C531.717 819.326 566.794 872.2 566.666 886.735C566.593 895.081 545.912 907.222 532.771 925.504C517.296 947.033 460.719 1078.25 495.293 1179.7C519.644 1251.16 617.357 1289.44 620.185 1280.05C620.938 1277.56 851.715 1167.6 852.461 1183.98C853.408 1204.79 875.463 1174.77 917.875 1146.93C951.031 1125.16 959.851 1034.8 970.883 999.49C985.151 953.815 1026.82 893 1086.01 870.436C1174.74 836.611 1210.33 769.339 1233.4 667.494C1241.22 632.99 1244.11 554.194 1212.33 489.699C1209.43 483.797 1207.23 482.313 1204.97 481.129C1194.07 475.405 1170.42 432.943 1148.15 418.719C1045.95 353.458 810.973 256.72 715.861 342.119C670.718 382.651 638.449 406.745 600.832 405.103C596.973 404.935 594.759 406.028 592.223 408.946C559.315 446.824 537.792 494.983 523.128 528.106Z" id="Fill"/>
<path d="M1402.28 1544.35C1478.61 1589.3 1502.87 1607.71 1545.97 1609.91C1694.46 1617.48 1609.27 1569.6 1504.5 1509.98C1496.02 1505.16 1473.4 1489.96 1451.59 1479.1C1448.8 1477.71 1447.85 1480.28 1448.13 1483.26C1451.01 1513.95 1450.19 1549.74 1396.34 1535.56C1392.13 1534.45 1398.52 1542.14 1402.28 1544.35Z" id="Fill_2"/>
<path d="M1096.55 910.936C1014.59 937.326 999.705 1010.07 995.387 1065.5C990.913 1122.94 1016.61 1170.41 1044.59 1202.68C1063.37 1224.33 1105.68 1219.87 1100.39 1144.75C1099.71 1135.13 1108.08 1130.16 1110.37 1142.51C1113.24 1158.03 1139.92 1209.03 1174.28 1204.67C1216.32 1199.33 1219.9 1158.86 1213.96 1129.99C1213.16 1126.12 1220.84 1120.73 1222.23 1126.61C1233.43 1173.88 1328.72 1183.44 1299.11 1084.19C1298.46 1082.02 1300.55 1079.73 1304.57 1082.16C1308.75 1084.69 1320.81 1087.06 1319.94 1084.34C1291.5 995.571 1185.91 882.16 1096.55 910.936Z" id="Fill_3"/>
<path d="M1063.1 1261.04C1135.45 1377.82 1263.69 1446.45 1337.84 1479.06C1348.91 1483.92 1288.32 1419.88 1220.84 1289.75C1218.1 1284.46 1222.61 1282.72 1229.09 1291.66C1265.62 1342 1382.27 1484.22 1395.76 1487.39C1398.12 1487.94 1409.61 1487.18 1405.6 1477.3C1393.95 1448.6 1365.87 1385.69 1340.27 1326.4C1325.64 1292.52 1316.4 1269.12 1306.81 1245.56C1306.11 1243.83 1306.94 1240.14 1311.25 1246.54C1329.2 1273.21 1381.64 1357.86 1392.15 1368.81C1403.23 1380.35 1371.04 1201.65 1343.76 1162.83C1340.47 1158.15 1332.22 1188.68 1307.43 1199.68C1280.3 1211.71 1248.46 1198.74 1247.74 1201.52C1241.95 1224.1 1228.53 1245.91 1187.66 1250.71C1155.65 1254.48 1137.37 1234.7 1126.34 1227.39C1122.22 1224.66 1108.65 1256.51 1090.09 1258.82C1070.48 1261.26 1060.67 1257.12 1063.1 1261.04Z" id="Fill_4"/>
<path d="M471.195 968.547C458.418 975.554 431.456 1021.22 421.239 1047.91C407.851 1082.88 388.712 1135.64 405.276 1188.37C414.045 1216.29 461.935 1249.13 458.729 1237.37C442.767 1178.8 448.24 1102.38 453.108 1057.98C458.46 1009.18 481.324 962.993 471.195 968.547Z" id="Fill_5"/>
<path d="M592.298 409.137C590.411 412.231 614.408 423.192 635.727 443.111C642.683 449.61 640.499 389.295 709.704 354.438C778.339 319.87 858.035 313.655 929.395 353.458C1035.95 412.893 1131.02 434.646 1177.81 466.439C1184.99 471.312 1218.8 507.302 1216.65 501.036C1211.79 486.889 1202.56 460.237 1188.08 440.398C1187.14 439.114 1140.06 385.766 1096.85 375.182C1093.63 374.394 1088.63 372.917 1092.72 372.78C1137.39 371.285 1167.62 362.719 1201.87 348.129C1207.68 345.654 1221.81 334.799 1209.83 336.99C1157.31 346.605 1097.19 355.533 1058.02 350.623C1052.84 349.974 1042.96 346.679 1047.17 346.296C1180.23 334.201 1201.69 234.269 1205.86 203.98C1207.89 189.244 1203.38 186.93 1202.58 188.268C1166.55 248.289 1061.46 273.429 1049.77 275.191C1039.93 276.673 1035.26 270.636 1036.21 270.013C1051.69 259.922 1077.37 234.353 1090.39 181.028C1092.88 170.814 1090.17 160.462 1086.4 164.943C997.302 270.774 712.681 211.813 592.298 409.137Z" id="Fill_6"/>
<path d="M739.544 1493.03C762.368 1505.38 797.092 1518.02 854.452 1532.62C880.201 1539.17 913.493 1544.58 931.4 1542.55C938.71 1541.72 932.041 1535.96 928.465 1529.08C918.461 1509.85 909.953 1476.22 920.282 1468.17C926.553 1463.28 953.253 1453.39 952.764 1460.12C950.777 1487.49 991.027 1604.88 1062.32 1595.28C1123.14 1587.09 1125.73 1484.29 1123.23 1469.49C1122.06 1462.54 1141.63 1464.47 1147.23 1471.28C1151.56 1476.56 1154.83 1495 1153.2 1509.25C1152.57 1514.79 1161.06 1512.16 1167.53 1508.82C1187.03 1498.74 1206.92 1486.62 1217.98 1478.17C1227.15 1471.16 1229.22 1465.16 1225.1 1462.68C1166.43 1427.42 1068.16 1345.26 1034.44 1295.32C979.738 1214.28 944.409 1147.2 958.157 1055.14C958.379 1053.65 955.355 1044.06 953.916 1034.3C952.799 1026.72 953.855 1017.58 950.325 1021.45C941.269 1031.39 874.495 1086.49 842.264 1108.81C840.44 1110.08 848.636 1071.55 844.958 1065.91C843.998 1064.44 839.169 1079.72 820.885 1100.2C798.292 1125.51 764.859 1149.26 753.222 1158.08C749.577 1160.84 753.646 1137.16 753.59 1130.62C753.51 1121.23 752.888 1110.36 751.517 1112.25C743.577 1123.19 715.295 1151.92 683.41 1188.76C660.456 1215.28 646.31 1239.26 644.076 1238.47C637.651 1236.19 597.462 1194.17 580.864 1152.84C572.839 1132.85 570.756 1094.62 568.331 1098.37C566.114 1101.79 561.525 1107.9 559.287 1114.69C553.846 1131.21 555.919 1143.55 554.099 1141.1C546.303 1130.6 520.098 1094.22 521.186 1060.79C521.493 1051.34 521.363 1043.39 523.25 1032.51C523.346 1031.96 513.65 1048.09 504.542 1059.9C500.179 1065.56 485.765 1077.49 485.497 1080.01C484.214 1092.06 483.476 1107.34 484.319 1121.78C485.589 1143.51 488.525 1166.68 493.531 1191.19C527.486 1357.44 611.707 1423.84 739.544 1493.03Z" id="Fill_7"/>
<path d="M727.674 624.987C707.207 628.05 677.598 628.12 640.846 664.135C625.09 679.575 604.379 707.359 616.739 710.645C654.623 720.715 715.379 724.934 726.787 711.59C756.845 676.43 739.451 623.225 727.674 624.987Z" id="Fill_8"/>
</defs>
<g id="Ebene-2">
<path d="M1131.47 130.666C1128.06 94.6837 1098.73 92.1948 1086.16 113.692C1027.16 214.583 832.236 199.991 720.509 251.484C716.446 253.357 723.842 215.891 706.834 231.029C664.369 268.826 559.705 365.391 517.333 441.233C421.069 613.537 430.609 743.075 504.993 869.021C511.161 879.465 516.449 888.978 498.65 901.135C392.071 973.929 362.616 1104.6 369.77 1161.12C373.103 1187.46 387.311 1230.68 406.337 1250.45C424.425 1269.25 468.361 1286.28 469.394 1289.5C485.27 1339.12 569.827 1457.51 678.33 1502.11C684.027 1504.46 689.298 1501.61 690.94 1509.22C700.906 1555.41 732.195 1622.87 769.905 1631.1C806.182 1639.01 838.143 1607.3 851.303 1583.47C854.904 1576.95 858.284 1577.77 859.595 1578.21C888.628 1587.91 945.812 1589.39 972.83 1584.45C974.429 1584.16 976.453 1586.04 979.872 1590.67C991.72 1606.72 1029.27 1636.66 1066.73 1633.3C1099.91 1630.33 1131.09 1587.19 1141.38 1559.37C1142.88 1555.31 1146.77 1558.64 1147.66 1559.55C1190.58 1603.49 1242.49 1661.46 1306.75 1655.68C1333.59 1653.26 1331.4 1636.76 1336.95 1640.12C1375.73 1663.61 1401.66 1678.05 1450.43 1671.57C1507.97 1663.93 1492.62 1633.99 1500.23 1637.52C1560.48 1665.49 1625.51 1650.39 1648.76 1635.18C1731.27 1581.19 1553.99 1492.61 1480.33 1453.27C1462.94 1443.98 1446.46 1438.84 1446.44 1436.8C1443.57 1202.04 1338.36 1017.67 1277.93 947.613C1230.44 892.561 1198.84 895.536 1211.53 877.927C1347.2 689.763 1280.61 489.734 1217.11 412.599C1204.41 397.174 1192.86 390.261 1200.8 386.757C1245.68 366.954 1273.52 331.89 1280.47 311.601C1296.81 263.905 1270.17 268.59 1244.8 285.331C1219.48 302.044 1203.88 307.39 1213.73 295.725C1255.06 246.758 1251.42 167.262 1247.98 139.711C1241.88 90.7561 1213.77 102.375 1208.26 115.343C1189.81 158.771 1122.1 207.796 1124.85 203.183C1138.14 180.903 1133.26 149.685 1131.47 130.666Z" fill="#262626" fill-rule="nonzero" opacity="1" stroke="none"/>
<path d="M445.348 1830.32C445.348 1800.45 671.705 1776.24 950.93 1776.24C1230.16 1776.24 1456.51 1800.45 1456.51 1830.32C1456.51 1860.18 1230.16 1884.39 950.93 1884.39C671.705 1884.39 445.348 1860.18 445.348 1830.32Z" fill="#262626" fill-rule="nonzero" opacity="1" stroke="none"/>
<path d="M757.171 1599.82C757.983 1587.18 793.324 1578.7 795.136 1594.29C799.163 1628.92 786.428 1685.44 789.283 1734.43C789.57 1739.35 794.163 1739.18 800.475 1737.47C818.246 1732.65 848.628 1723.3 870.205 1733.14C896.895 1745.32 917.033 1783.21 922.814 1799.26C931.225 1822.62 777.21 1832.75 759.531 1836.9C731.192 1843.55 622.961 1828.27 606.788 1798.01C599.286 1783.97 659.336 1736.88 671.816 1733.53C686.122 1729.69 720.265 1733.91 729.563 1734.97C741.05 1736.27 749.402 1737.27 749.825 1733.15C754.44 1688.33 755.299 1628.94 757.171 1599.82Z" fill="#262626" fill-rule="nonzero" opacity="1" stroke="none"/>
<path d="M1045.8 1600.55C1045.89 1587.88 1079.77 1579.83 1083.77 1595.01C1093.32 1631.29 1088.98 1689.16 1091.83 1738.15C1092.12 1743.07 1100.37 1741.5 1106.68 1739.79C1124.45 1734.97 1157.24 1720.96 1178.81 1730.81C1205.5 1742.99 1228.22 1767.34 1228.99 1794.84C1229.68 1819.65 1079.76 1836.47 1062.08 1840.62C1033.74 1847.27 922.534 1832.45 906.36 1802.19C898.858 1788.15 961.652 1739.44 974.132 1736.09C988.439 1732.25 1022.81 1737.63 1032.11 1738.69C1043.6 1740 1051.95 1740.99 1052.37 1736.87C1056.99 1692.05 1045.56 1634.84 1045.8 1600.55Z" fill="#262626" fill-rule="nonzero" opacity="1" stroke="none"/>
</g>
<g id="Ebene-7-kopieren">
<use fill="#d95656" fill-rule="nonzero" opacity="1" stroke="none" xlink:href="#Fill"/>
<clipPath clip-rule="nonzero" id="ClipPath">
<use xlink:href="#Fill"/>
</clipPath>
<g clip-path="url(#ClipPath)">
<path d="M595.34 720.755C595.34 720.755 614.818 749.163 602.253 784.335C601.667 785.977 611.324 781.893 615.908 774.58C619.876 768.25 619.121 758.653 619.286 759.459C619.497 760.486 625.367 771.987 626.342 782.008C628.161 800.69 621.446 812.843 623.71 811.426C627.045 809.338 633.619 805.779 637.06 801.442C642.029 795.18 647.075 786.441 646.924 788.818C646.367 797.585 645.124 806.089 650.487 829.573C653.655 843.444 671.29 860.511 670.88 857.744C669.068 845.495 680.672 801.916 682.315 800.633C683.93 799.373 681.962 828.483 681.054 837.153C679.747 849.641 674.37 869.513 675.741 869.12C686.17 866.129 704.977 848.502 708.638 843.305C719.557 827.803 720.135 813.851 720.22 814.067C725.227 826.773 716.521 856.311 716.521 856.311C716.521 856.311 729.54 846.373 736.392 827.686C740.602 816.204 739.882 801.153 740.498 790.069C740.582 788.567 746.573 795.277 749.08 801.924C752.183 810.148 752.327 821.935 753.345 820.385C762.069 807.103 764.328 787.994 764.226 771.927C764.219 770.847 767.325 779.783 768.678 785.816C770.513 794.001 768.509 805.127 768.579 803.941C768.627 803.105 780.823 786.024 781.65 776.29C782.417 767.269 781.124 751.832 781.124 751.832C781.124 751.832 785.025 753.952 787.571 757.117C790.666 760.964 795.951 770.993 795.978 770.659C799.396 728.84 786.178 729.611 794.368 707.984C810.01 666.679 764.665 653.308 799.157 626.302C813.526 615.051 817.726 585.755 820.445 567.961C820.797 565.66 806.861 578.806 807.156 576.494C809.549 557.725 817.896 540.765 826.03 528.187C828.968 523.645 781.263 532.111 778.178 523.192C776.212 517.509 775.914 509.225 776.454 504.96C777.482 496.858 783.113 487.892 781.814 488.396C774.029 491.415 764.347 513.663 764.169 512.03C763.389 504.892 772.19 482.261 775.57 475.809C780.091 467.179 781.954 459.894 791.222 451.956C792.762 450.636 772.582 462.229 763.562 471.466C748.226 487.17 742.043 518.885 742.979 515.637C745.649 506.372 746.236 487.547 751.777 462.911C757.478 437.56 771.4 412.751 777.89 402.409C779.224 400.285 760.887 415.851 754.033 425.305C747.514 434.299 732.29 464.257 732.78 461.869C735.232 449.928 754.389 398.999 767.161 382.798C781.253 364.92 795.005 353.575 801.952 347.429C804.289 345.362 775.593 348.163 755.883 362.937C715.865 392.934 699.463 439.25 699.734 437.84C700.581 433.429 712.245 396.816 715.116 390.003C719.304 380.062 727.234 369.93 727.234 369.93C727.234 369.93 713.401 372.126 691.93 395.605C661.828 428.521 658.993 462.226 655.914 489.521C655.573 492.548 653.442 481.615 653.56 466.949C653.713 447.915 656.134 423.566 655.496 425.324C649.307 442.377 635.606 484.552 636.883 501.813C636.94 502.589 636.142 480.856 634.702 475.587C633.841 472.436 629.17 459.892 629.085 461.399C628.64 469.307 630.047 480.558 620.944 495.75C614.761 506.068 604.769 529.157 613.505 545.413C614.727 547.688 617.256 545.603 607.663 541.623C603.198 539.77 597.413 539.1 597.806 539.568C605.616 548.864 605.2 577.584 618.888 593.663C630.746 607.592 615.086 653.144 615.086 653.144L595.34 720.755Z" fill="#c04848" fill-rule="nonzero" opacity="1" stroke="none"/>
<path d="M1193.58 836.957C1308.86 728.132 1253.72 483.152 1236.54 463.992C1227.54 453.945 1208.38 428.885 1214 461.929C1219.92 496.778 1225.7 541.648 1222.63 589.35C1221.93 600.336 1091.67 590.622 1085.24 627.233C1085.18 627.578 1049.68 754.432 971.967 758.364C957.356 759.103 944.036 758.766 931.869 757.561C843.992 748.858 816.237 694.833 796.283 673.312C793.392 670.194 691.125 684.036 615.707 698.329C601.523 701.018 458.535 762.578 483.477 775.094C510.428 788.618 558.801 780.343 583.869 765.191C640.786 730.788 767.169 681.652 770.586 693.06C774.929 707.56 784.453 723.4 788.113 730.292C816.924 784.555 913.353 807.832 970.81 798.756C1121.14 775.01 1131.96 631.42 1136.63 631.214C1171.86 629.663 1216.22 638.237 1215.36 642.174C1204.91 690.002 1182.93 738.04 1141.21 779.524C1112.5 808.066 1070.79 840.205 1077.24 886.75C1078.93 898.928 1119.24 892.479 1130.62 884.168C1144.47 874.048 1175.46 854.064 1193.58 836.957Z" fill="#b14441" fill-rule="nonzero" opacity="1" stroke="none"/>
<path d="M782.298 679.445C788.669 754.661 736.934 790.899 690.825 779.663C629.103 764.622 607.538 726.22 607.538 726.22C607.538 726.22 780.545 658.745 782.298 679.445Z" fill="#b14441" fill-rule="nonzero" opacity="1" stroke="none"/>
<path d="M566.494 908.394C566.494 908.394 537.438 953.717 527.576 979.822C503.568 1043.37 503.436 1109.08 515.928 1211.54C528.419 1314 623.917 1432.29 623.917 1432.29L463.7 1325.24L416.782 1070.41C416.782 1070.41 479.747 1006.02 504.256 954.62C528.765 903.22 566.494 908.394 566.494 908.394Z" fill="#fbf8e8" fill-rule="nonzero" opacity="1" stroke="none"/>
</g>
</g>
<g id="Ebene-3">
<path d="M1259.11 1522.02C1246.16 1505.52 1290.9 1510.73 1299.06 1516.23C1396.74 1582.1 1518.39 1648.58 1399.69 1625.26C1381.09 1621.61 1302.47 1577.28 1259.11 1522.02Z" fill="#674533" fill-rule="nonzero" opacity="1" stroke="none"/>
<path d="M1194.74 1545.37C1204.4 1561.61 1231.54 1601.97 1286.21 1616.36C1313.05 1623.43 1239.58 1566.26 1219.78 1538.14C1213.27 1528.9 1189.25 1536.14 1194.74 1545.37Z" fill="#674533" fill-rule="nonzero" opacity="1" stroke="none"/>
<use fill="#8e5c45" fill-rule="nonzero" opacity="1" stroke="none" xlink:href="#Fill_2"/>
<clipPath clip-rule="nonzero" id="ClipPath_2">
<use xlink:href="#Fill_2"/>
</clipPath>
<g clip-path="url(#ClipPath_2)">
<path d="M1352.74 1457.52L1459.39 1718.79C1459.39 1718.79 1779.26 1566.5 1655.94 1592.5C1532.62 1618.5 1352.74 1457.52 1352.74 1457.52Z" fill="#674533" fill-rule="nonzero" opacity="1" stroke="none"/>
</g>
</g>
<g id="Ebene-11">
<use fill="#8e5c45" fill-rule="nonzero" opacity="1" stroke="none" xlink:href="#Fill_3"/>
<clipPath clip-rule="nonzero" id="ClipPath_3">
<use xlink:href="#Fill_3"/>
</clipPath>
<g clip-path="url(#ClipPath_3)">
<path d="M928.524 1229.06L1293.65 1262.32C1293.65 1262.32 1353.53 1198.18 1383.15 1163.34C1393.43 1151.25 1400.06 1142.7 1399.29 1141.56C1385.89 1121.69 1333.85 1097.5 1307.63 1128.59C1285.6 1154.72 1236.16 1154.8 1221.13 1126.31C1221.13 1126.31 1219.61 1183.06 1206.56 1186.17C1158.3 1197.66 1123.39 1162.48 1107.56 1140.1C1107.56 1140.1 1108.88 1190.02 1102.41 1191.55C1068.09 1199.67 1033.83 1150.65 1028.22 1142.87C1000.14 1104 1002.14 1038.77 1013.19 980.776C1017.59 957.68 985.34 983.938 985.34 983.938L928.524 1229.06Z" fill="#674533" fill-rule="nonzero" opacity="1" stroke="none"/>
<path d="M945.124 1074.86L992.211 1094.01C1010.86 989.742 1046.49 956.938 1094.9 935.888C1137.68 917.287 1227.92 940.549 1262.35 979.413L1280.07 888.708L1041.02 889.856L945.124 1074.86Z" fill="#f2d8d8" fill-rule="nonzero" opacity="1" stroke="none"/>
<path d="M1147.68 985.003C1145.03 1003.27 1181.86 1028.56 1195.64 1018.6C1211.69 1006.99 1211.76 993.637 1197.44 980.602C1185.31 969.561 1150.52 965.512 1147.68 985.003Z" fill="#f2d8d8" fill-rule="nonzero" opacity="1" stroke="none"/>
</g>
</g>
<g id="Ebene-10">
<use fill="#8e5c45" fill-rule="nonzero" opacity="1" stroke="none" xlink:href="#Fill_4"/>
<clipPath clip-rule="nonzero" id="ClipPath_4">
<use xlink:href="#Fill_4"/>
</clipPath>
<g clip-path="url(#ClipPath_4)">
<path d="M1034.58 1220.61L1376.23 1089.6C1376.23 1089.6 1349.29 1118.13 1341.56 1158.99C1328.05 1230.33 1278.12 1221.41 1250.33 1199.85C1245.26 1195.91 1245.9 1198 1245.82 1200.81C1243.92 1271.23 1175.1 1275.24 1147.93 1249.63C1142.86 1244.86 1139.79 1240.58 1139.3 1242.01C1133.99 1257.28 1128.17 1264.66 1125.71 1280.29C1121.94 1304.24 1124.01 1306.12 1140.99 1327.07C1214.26 1417.47 1257.63 1420.27 1319.74 1444.33C1331.36 1448.83 1221.38 1284.62 1228.69 1291.95C1242.32 1305.61 1274.6 1346.21 1309.19 1376.33C1347.05 1409.31 1388.81 1436.39 1417.16 1451.16C1420.9 1453.11 1299.65 1233.83 1316.23 1253.08C1350.98 1293.4 1360.75 1321.4 1399.39 1339.82C1415.71 1347.61 1425.22 1512.49 1425.22 1512.49L1154.1 1500.46L1034.58 1220.61Z" fill="#674533" fill-rule="nonzero" opacity="1" stroke="none"/>
</g>
</g>
<g id="Ebene-9">
<use fill="#8e5c45" fill-rule="nonzero" opacity="1" stroke="none" xlink:href="#Fill_5"/>
<clipPath clip-rule="nonzero" id="ClipPath_5">
<use xlink:href="#Fill_5"/>
</clipPath>
<g clip-path="url(#ClipPath_5)">
<path d="M397.412 1212.59C397.412 1212.59 390.698 1150.93 424.448 1080.74C455.721 1015.7 529.911 967.422 529.911 967.422L479.864 1335.39L397.412 1212.59Z" fill="#674533" fill-rule="nonzero" opacity="1" stroke="none"/>
</g>
</g>
<g id="Ebene-8">
<use fill="#d95656" fill-rule="nonzero" opacity="1" stroke="none" xlink:href="#Fill_6"/>
<clipPath clip-rule="nonzero" id="ClipPath_6">
<use xlink:href="#Fill_6"/>
</clipPath>
<g clip-path="url(#ClipPath_6)">
<path d="M810.922 280.587C935.593 246.959 1123.74 209.078 1087.53 125.785L752.982 106.707L680.584 305.263C629.417 369.323 635.809 382.098 635.809 382.098C666.164 352.217 686.251 314.215 810.922 280.587Z" fill="#fbe8e8" fill-rule="nonzero" opacity="1" stroke="none"/>
<path d="M1264.62 145.74L1093.89 148.127C1087.4 193.776 1053.72 223.648 1038.11 240.025C1022.69 256.208 958.651 279.408 960.862 280.578C977.3 289.275 1051.48 277.788 1069.02 269.196C1123.08 242.704 1212.21 160.778 1211.27 166.77C1204.22 211.425 1162.95 262.274 1121.7 291.847C1068.33 330.1 929.512 327.538 946.36 334.636C968.055 343.775 1057.36 351.501 1064.79 350.619C1091.21 347.488 1136.26 333.949 1164.17 329.651L1186.81 335.712C1164.78 366.525 1025.02 368.587 1002.68 372.621C976.589 377.333 1140.05 381.111 1204.14 455.265C1225.37 479.822 1315.76 386.103 1315.76 386.103L1264.62 145.74Z" fill="#b14441" fill-rule="nonzero" opacity="1" stroke="none"/>
</g>
</g>
<g id="Ebene-6">
<path d="M743.03 1526.79C764.593 1537.01 791.899 1547.68 828.632 1560.03C836.509 1562.68 809.654 1606.87 780.317 1595.86C741.639 1581.34 735.676 1523.31 743.03 1526.79Z" fill="#be8760" fill-rule="nonzero" opacity="1" stroke="none"/>
<use fill="#f3ca98" fill-rule="nonzero" opacity="1" stroke="none" xlink:href="#Fill_7"/>
<clipPath clip-rule="nonzero" id="ClipPath_7">
<use xlink:href="#Fill_7"/>
</clipPath>
<g clip-path="url(#ClipPath_7)">
<path d="M366.226 1544.55L1156.21 1703.84L1391.3 1412.69C1391.3 1412.69 1036.73 1103.19 1013.07 1233.18C1004.34 1281.16 947.379 1193.94 963.908 1231.25C998.135 1308.53 915.155 1360.74 863.545 1304.69C855.865 1296.35 859.478 1341.15 859.339 1354.08C858.615 1421.5 795.757 1409.09 778.078 1386.68C770.358 1376.89 759.732 1381.37 762.155 1387.96C782.153 1442.35 728.334 1429.25 696.035 1388.94C682.275 1371.77 662.141 1353.66 661.008 1360.79C658.551 1376.26 638.762 1390.1 584.217 1336.46C559.603 1312.26 530.305 1310.39 510.071 1278.56C494.259 1253.68 491.016 1195.88 482.216 1166.92L366.226 1544.55Z" fill="#d3a57a" fill-rule="nonzero" opacity="1" stroke="none"/>
<path d="M949 1162.42C952.975 1174.3 972.741 1208.4 1011.38 1245.07C1027.38 1260.25 1047.79 1300.57 1067.76 1316.33C1106.93 1347.22 1311.14 1444.21 1326.91 1476.62C1334.07 1491.34 1153.55 1542.99 1154.04 1545.47C1154.07 1545.62 1117.62 1614.66 1063.25 1616.41C936.773 1620.46 707.941 1550.63 572.176 1382.41C571.339 1381.37 552.894 1366.47 544.338 1338.09C536.908 1313.45 533.965 1286.06 531.692 1272.42C527.403 1246.69 532.785 1229.81 533.734 1225.09C533.876 1224.38 548.882 1279.03 596.35 1317.97C601.383 1322.09 612.536 1330.28 618.174 1334.03C619.457 1334.88 611.747 1336.29 600.631 1332.84C588.967 1329.22 580.579 1323.84 581.553 1325.23C612.585 1369.36 661.657 1423.09 687.056 1434.85C687.962 1435.27 670.057 1413.39 659.098 1368.57C651.794 1338.69 651.704 1309.87 655.712 1318.08C667.798 1342.84 705.509 1407.06 756.122 1442.3C774.929 1455.39 794.783 1466.14 814.096 1474.9C816.384 1475.94 810.718 1471.08 807.232 1465.41C803.091 1458.69 800.884 1450.98 802.741 1452.86C813.124 1463.36 841.058 1482.02 848.225 1484.89C878.39 1497 899.927 1494.12 897.232 1492.6C895.97 1491.88 887.906 1483.48 872.639 1467.56C860.978 1455.4 854.419 1436.72 856.774 1438.74C879.689 1458.41 924.955 1449.55 922.772 1447.7C856.294 1391.28 850.793 1341.75 832.432 1298.6C809.252 1244.13 821.683 1207.22 822.882 1197.63C823.491 1192.76 840.663 1239.67 868.132 1264.59C875.168 1270.97 843.452 1253.51 843.656 1253.91C874.481 1313.95 923.873 1332.39 918.923 1332.53C899.884 1333.1 876.463 1322.35 876.703 1322.7C936.007 1409.1 991.353 1433.78 988.286 1433.82C972.286 1434.04 947.143 1427.9 950.287 1430.27C975.653 1449.4 1001.67 1470.44 1021.27 1476.33C1091.63 1497.49 1110.94 1457.91 1106.57 1457.19C1063.59 1450.08 1030.25 1417.18 1018.54 1394.44C1016.64 1390.74 1037.47 1404.73 1063.88 1410.47C1087.99 1415.7 1098.69 1399.27 1097.32 1398.89C1026.82 1379.38 991.151 1333.23 974.489 1301.47C970.948 1294.72 994.951 1312.89 1006.92 1306.65C1007.77 1306.2 969.697 1267.3 957.853 1241.37C940.505 1203.39 942.72 1143.65 949 1162.42Z" fill="#be8760" fill-rule="nonzero" opacity="1" stroke="none"/>
<path d="M717.005 1268.72C718.898 1265.45 720.175 1286.34 744.7 1315.06C760.509 1333.58 783.776 1351.61 805.006 1357.49C806.643 1357.94 791.565 1358.21 777.798 1355.23C767.585 1353.02 756.673 1347.82 757.789 1350.08C779.142 1393.47 829.736 1432.49 832.579 1434.96C840.11 1441.51 767.241 1417.81 739.139 1369.59C711.037 1321.36 712.764 1276.05 717.005 1268.72Z" fill="#be8760" fill-rule="nonzero" opacity="1" stroke="none"/>
<path d="M596.177 893.092C596.177 893.092 551.584 916.273 527.576 979.822C503.568 1043.37 503.436 1109.08 515.928 1211.54C528.419 1314 623.917 1432.29 623.917 1432.29L463.7 1325.24L416.782 1070.41L509.198 902.582L596.177 893.092Z" fill="#fbf8e8" fill-rule="nonzero" opacity="1" stroke="none"/>
</g>
</g>
<g id="Ebene-4">
<path d="M486.33 565.978C439.981 563.901 399.735 563.392 354.635 564.952C354.635 564.952 355.7 619.356 355.7 619.356C376.246 617.958 427.608 617.688 476.209 618.547L486.33 565.978Z" fill="#262626" fill-rule="nonzero" opacity="1" stroke="none"/>
<path d="M508.795 544.995C488.589 572.968 483.469 645.662 528.108 659.292C570.837 672.339 597.191 613.399 595.065 577.016C592.728 536.998 546.98 492.132 508.795 544.995Z" fill="#262626" fill-rule="nonzero" opacity="1" stroke="none"/>
<path d="M532.403 561.046C527.873 572.391 533.464 596.141 551.376 595.92C568.521 595.709 572.213 574.249 567.615 562.49C562.557 549.556 540.962 539.606 532.403 561.046Z" fill="#e7ecf3" fill-rule="nonzero" opacity="1" stroke="none"/>
<path d="M879.974 547.554C854.93 583.033 862.398 665.158 933.71 673.758C1001.97 681.991 1029.96 612.34 1019 570.724C1006.93 524.95 927.301 480.508 879.974 547.554Z" fill="#262626" fill-rule="nonzero" opacity="1" stroke="none"/>
<path d="M925.737 552.684C916.862 564.919 919.508 593.24 944.778 596.206C968.967 599.045 978.888 575.026 975.001 560.674C970.726 544.889 942.507 529.563 925.737 552.684Z" fill="#e7ecf3" fill-rule="nonzero" opacity="1" stroke="none"/>
<g opacity="1">
<path d="M781.489 613.668C776.316 510.879 867.5 443.278 946.87 443.278C1026.24 443.278 1095.73 550.552 1095.73 624.096C1095.73 697.639 1011.08 766.206 931.709 766.206C852.339 766.206 786.663 716.457 781.489 613.668Z" fill="#bcb9c2" fill-opacity="0.344757" fill-rule="nonzero" opacity="1" stroke="none"/>
<path d="M351.893 597.007C347.152 500.49 430.705 437.013 503.432 437.013C576.16 437.013 639.838 537.742 639.838 606.799C639.838 675.855 562.268 740.239 489.541 740.239C416.813 740.239 356.634 693.525 351.893 597.007Z" fill="#bcb9c2" fill-opacity="0.344757" fill-rule="nonzero" opacity="1" stroke="none"/>
</g>
<g opacity="1">
<path d="M810.419 692.221L987.963 432.586L1016.3 445.668L832.867 741.002L810.419 692.221Z" fill="#f6f2ff" fill-opacity="0.344757" fill-rule="nonzero" opacity="1" stroke="none"/>
<path d="M791.628 647.436L931.903 434.465L954.292 445.196L809.365 687.45L791.628 647.436Z" fill="#f6f2ff" fill-opacity="0.344757" fill-rule="nonzero" opacity="1" stroke="none"/>
</g>
<g opacity="1">
<path d="M392.829 682.036L551.992 449.28L577.396 461.007L412.953 725.767L392.829 682.036Z" fill="#f6f2ff" fill-opacity="0.344757" fill-rule="nonzero" opacity="1" stroke="none"/>
<path d="M375.984 641.887L501.736 450.964L521.807 460.584L391.884 677.759L375.984 641.887Z" fill="#f6f2ff" fill-opacity="0.344757" fill-rule="nonzero" opacity="1" stroke="none"/>
</g>
<path d="M956.433 416.827C773.296 418.489 724.816 584.788 780.974 699.499C838.933 817.891 1041.51 824.874 1102.39 677.43C1151.17 559.317 1075.96 415.743 956.433 416.827ZM954.867 464.68C1048.56 463.869 1097.87 580.311 1063.02 657.386C1013.53 766.833 862.788 764.482 817.355 675.974C773.334 590.217 811.309 465.922 954.867 464.68Z" fill="#262626" fill-rule="nonzero" opacity="1" stroke="none"/>
<path d="M1288.34 565.618C1229.33 555.982 1161.23 561.508 1097.18 566.618L1099.06 621C1135.24 615.443 1265.66 614.201 1294.36 619.933C1310.41 623.138 1313.3 609.163 1312.32 594.339C1310.76 570.99 1298.38 567.258 1288.34 565.618Z" fill="#262626" fill-rule="nonzero" opacity="1" stroke="none"/>
<path d="M791.691 573.035C732.291 544.946 674.139 554.176 626.563 567.107C615.185 570.199 612.985 579.446 614.524 592.619C616.588 610.298 618.566 622.529 631.543 617.143C693.023 591.624 754.52 611.841 789.934 621.167C801.826 624.298 810.861 612.862 809.875 598.038C808.322 574.69 800.892 577.386 791.691 573.035Z" fill="#262626" fill-rule="nonzero" opacity="1" stroke="none"/>
<path d="M508.462 427.862C421.065 426.13 327.503 501.917 337.846 601.027C349.905 716.584 433.168 803.698 553.984 758.787C712.749 699.768 678.925 532.046 589.709 457.433C566.018 437.619 537.594 428.439 508.462 427.862ZM504.492 471.89C526.693 471.977 548.284 478.491 566.111 492.94C633.244 547.352 657.026 671.605 535.301 717.344C442.673 752.15 380.239 688.384 372.406 602.629C365.688 529.08 437.888 471.631 504.492 471.89Z" fill="#262626" fill-rule="nonzero" opacity="1" stroke="none"/>
<path d="M756.329 595.908C727.906 591.441 687.148 588.905 656.237 611.42C612.515 643.267 583.808 706.889 597.018 727.278C619.566 762.081 712.584 764.836 741.623 753.748C795.544 733.16 775.375 598.901 756.329 595.908Z" fill="#262626" fill-rule="nonzero" opacity="1" stroke="none"/>
</g>
<g id="Ebene-5">
<path d="M685.118 1783.59C679.803 1786.03 671.827 1794.59 661.775 1798.55C657.097 1800.39 644.519 1806.81 647.132 1799.64C652.244 1785.63 666.013 1770.16 677.498 1764.08C686.014 1759.56 736.821 1760.08 750.905 1765.11C752.514 1765.69 749.498 1771.22 733.546 1771.96C720.731 1772.55 693.41 1779.79 685.118 1783.59Z" fill="#4f657b" fill-rule="nonzero" opacity="1" stroke="none"/>
<path d="M992.763 1787.65C987.375 1789.93 974.979 1799.86 964.927 1803.82C960.249 1805.66 947.671 1812.07 950.284 1804.91C955.396 1790.9 974.516 1771.08 986.001 1764.99C994.517 1760.48 1038.22 1762.74 1052.3 1767.76C1053.91 1768.34 1052.65 1776.49 1036.7 1777.23C1023.88 1777.82 1004.96 1782.51 992.763 1787.65Z" fill="#4f657b" fill-rule="nonzero" opacity="1" stroke="none"/>
<path d="M840.476 1775.27C855.288 1777.12 874.824 1788.4 873.1 1780.9C872.052 1776.34 862.435 1766.56 848.047 1763.17C829.414 1758.78 811.057 1764.71 797.74 1767.8C796.076 1768.18 794.724 1772.56 807.596 1773.21C820.409 1773.86 829.437 1773.89 840.476 1775.27Z" fill="#4f657b" fill-rule="nonzero" opacity="1" stroke="none"/>
<path d="M1149.52 1775.37C1164.36 1776.96 1184.09 1787.9 1182.23 1780.43C1181.11 1775.89 1171.32 1766.28 1156.88 1763.14C1138.17 1759.07 1119.92 1765.32 1106.66 1768.64C1105 1769.06 1103.72 1773.45 1116.61 1773.88C1129.43 1774.31 1138.46 1774.19 1149.52 1775.37Z" fill="#4f657b" fill-rule="nonzero" opacity="1" stroke="none"/>
<use fill="#6d6361" fill-rule="nonzero" opacity="1" stroke="none" xlink:href="#Fill_8"/>
<clipPath clip-rule="nonzero" id="ClipPath_8">
<use xlink:href="#Fill_8"/>
</clipPath>
<g clip-path="url(#ClipPath_8)">
<path d="M756.386 628.564C720.412 640.16 691.657 640.993 650.426 671.699C609.195 702.405 610.762 724.673 610.762 724.673L579.844 713.817L690.303 588.443L756.386 628.564Z" fill="#f1e9e7" fill-rule="nonzero" opacity="1" stroke="none"/>
<path d="M749.681 663.645C710.23 670.099 636.287 698.912 610.63 713.472L611.784 718.924C629.07 713.449 728.853 692.633 751.078 697.508L749.681 663.645Z" fill="#262626" fill-rule="nonzero" opacity="1" stroke="none"/>
</g>
</g>
</svg>
