<?xml version="1.0" encoding="UTF-8" standalone="no"?>
<!DOCTYPE svg PUBLIC "-//W3C//DTD SVG 1.1//EN" "http://www.w3.org/Graphics/SVG/1.1/DTD/svg11.dtd">
<!-- Created with Vectornator (http://vectornator.io/) -->
<svg height="100%" stroke-miterlimit="10" style="fill-rule:nonzero;clip-rule:evenodd;stroke-linecap:round;stroke-linejoin:round;" version="1.1" viewBox="0 0 2000 2000" width="100%" xml:space="preserve" xmlns="http://www.w3.org/2000/svg" xmlns:xlink="http://www.w3.org/1999/xlink">
<defs>
<path d="M937.938 550.469C871.135 550.4 812.147 565.397 770.406 602.875C699.967 666.121 649.603 703.717 590.906 701.156C584.886 700.894 581.425 702.602 577.469 707.156C526.12 766.259 492.538 841.41 469.656 893.094C382.051 1090.97 416.038 1248.31 476.219 1337.38C483.057 1347.5 537.793 1430.01 537.594 1452.69C537.479 1465.71 505.223 1484.66 484.719 1513.19C470.995 1532.28 436.583 1606.69 419.312 1696.41C419.311 1696.42 419.314 1696.43 419.312 1696.44C419.477 1696.57 419.648 1696.71 419.812 1696.84C428.997 1704.49 438.358 1711.93 447.844 1719.22C448.834 1719.98 449.82 1720.74 450.813 1721.5C460.202 1728.65 469.734 1735.62 479.406 1742.41C480.227 1742.98 481.052 1743.55 481.875 1744.12C491.909 1751.12 502.081 1757.94 512.406 1764.53C522.765 1771.15 533.266 1777.55 543.906 1783.75C544.604 1784.16 545.301 1784.56 546 1784.97C556.089 1790.81 566.326 1796.45 576.656 1801.91C578.157 1802.7 579.651 1803.5 581.156 1804.28C591.379 1809.61 601.71 1814.74 612.156 1819.69C613.547 1820.35 614.949 1820.97 616.344 1821.62C626.931 1826.57 637.601 1831.36 648.406 1835.91C649.586 1836.4 650.787 1836.85 651.969 1837.34C662.691 1841.8 673.512 1846.1 684.438 1850.16C685.075 1850.39 685.706 1850.64 686.344 1850.88C697.342 1854.93 708.462 1858.71 719.656 1862.34C721.408 1862.91 723.15 1863.5 724.906 1864.06C736.177 1867.64 747.544 1871.01 759 1874.16C760.238 1874.5 761.479 1874.82 762.719 1875.16C774.217 1878.26 785.794 1881.18 797.469 1883.84C799.148 1884.23 800.848 1884.56 802.531 1884.94C813.266 1887.32 824.063 1889.53 834.938 1891.53C836.4 1891.8 837.848 1892.11 839.313 1892.38C839.323 1892.38 839.334 1892.37 839.344 1892.38C851.015 1894.46 862.773 1896.27 874.594 1897.91C876.252 1898.14 877.902 1898.37 879.563 1898.59C891.3 1900.15 903.125 1901.46 915 1902.56C917.135 1902.76 919.267 1902.94 921.406 1903.12C932.973 1904.12 944.595 1904.95 956.281 1905.5C958.684 1905.61 961.093 1905.65 963.5 1905.75C975.595 1906.23 987.725 1906.56 999.938 1906.56C1007.47 1906.56 1014.98 1906.43 1022.47 1906.25C1038.76 1893.05 1058.9 1876.23 1085.62 1858.69C1137.36 1824.72 1151.1 1683.73 1168.31 1628.62C1190.58 1557.35 1255.61 1462.46 1347.97 1427.25C1486.42 1374.47 1541.94 1269.51 1577.94 1110.59C1590.13 1056.75 1594.65 933.791 1545.06 833.156C1540.52 823.946 1537.11 821.629 1533.59 819.781C1516.58 810.85 1479.66 744.599 1444.91 722.406C1330.29 649.215 1108.65 550.644 937.938 550.469Z" id="Fill"/>
<path d="M1404.19 1483.47C1390.79 1483.99 1377.48 1486.23 1364.41 1490.44C1236.52 1531.62 1213.3 1645.13 1206.56 1731.62C1202.33 1785.9 1215.39 1834.42 1236.03 1875.47C1393.97 1833.01 1534.88 1748.99 1646.31 1635.84C1583.51 1550.86 1491.77 1480.04 1404.19 1483.47Z" id="Fill_2"/>
<path d="M391 1579.66C390.395 1579.59 389.613 1579.8 388.625 1580.34C378.692 1585.79 363.265 1606.23 348.313 1630.5C356.433 1638.88 364.689 1647.12 373.125 1655.19C384.401 1612.43 397.186 1580.38 391 1579.66Z" id="Fill_3"/>
<path d="M577.594 707.459C574.648 712.286 612.093 729.388 645.358 760.47C656.212 770.611 652.804 676.497 760.789 622.109C867.884 568.168 992.239 558.472 1103.59 620.579C1269.86 713.32 1418.2 747.261 1491.21 796.87C1502.4 804.473 1555.17 860.631 1551.81 850.854C1544.22 828.779 1529.83 787.192 1507.23 756.237C1505.77 754.233 1432.31 670.991 1364.88 654.476C1359.86 653.246 1352.06 650.942 1358.44 650.728C1428.14 648.395 1475.3 635.029 1528.75 612.263C1537.82 608.402 1559.85 591.463 1541.17 594.883C1459.22 609.886 1365.42 623.816 1304.29 616.155C1296.21 615.142 1280.79 610.001 1287.36 609.404C1494.97 590.531 1528.47 434.601 1534.97 387.339C1538.14 364.345 1531.1 360.735 1529.85 362.823C1473.63 456.477 1309.65 495.704 1291.41 498.453C1276.07 500.766 1268.77 491.347 1270.26 490.374C1294.41 474.628 1334.48 434.731 1354.8 351.526C1358.69 335.588 1354.46 319.435 1348.57 326.427C1209.55 491.562 765.434 399.561 577.594 707.459Z" id="Fill_4"/>
<path d="M1138 1661.53C1137.51 1661.7 1136.94 1662.15 1136.25 1662.91C1122.12 1678.41 1017.92 1764.38 967.625 1799.22C964.779 1801.19 977.583 1741.05 971.844 1732.25C970.345 1729.95 962.811 1753.83 934.281 1785.78C899.029 1825.27 846.846 1862.3 828.688 1876.06C823.001 1880.37 829.368 1843.46 829.281 1833.25C829.157 1818.6 828.171 1801.62 826.031 1804.56C817.477 1816.35 793.284 1841.97 763.063 1875.25C838.579 1895.62 917.982 1906.56 999.938 1906.56C1055.32 1906.56 1109.54 1901.57 1162.19 1892.06C1144.84 1837.41 1138.77 1780.45 1148.47 1715.47C1148.81 1713.15 1144.09 1698.16 1141.84 1682.94C1140.32 1672.58 1141.4 1660.37 1138 1661.53ZM469.844 1680.16C469.978 1679.38 457.733 1699.51 444.938 1717C452.123 1722.57 459.426 1727.99 466.781 1733.34C466.609 1730.31 466.527 1727.29 466.625 1724.28C467.105 1709.54 466.899 1697.13 469.844 1680.16Z" id="Fill_5"/>
<path d="M788.828 1044.26C756.893 1049.04 710.692 1049.15 653.346 1105.35C628.76 1129.44 596.444 1172.79 615.729 1177.92C674.843 1193.63 769.645 1200.22 787.445 1179.4C834.346 1124.53 807.206 1041.51 788.828 1044.26Z" id="Fill_6"/>
</defs>
<g id="Ebene-2">
<path d="M92.7057 999.332C92.7057 498.285 498.884 92.1069 999.931 92.1069C1500.98 92.1069 1907.16 498.285 1907.16 999.332C1907.16 1500.38 1500.98 1906.56 999.931 1906.56C498.884 1906.56 92.7057 1500.38 92.7057 999.332Z" fill="#f8f4f4" fill-rule="nonzero" opacity="1" stroke="#262626" stroke-linecap="butt" stroke-linejoin="round" stroke-width="36.3976"/>
<path d="M1383.38 225.156C1370.36 224.262 1356.77 231.793 1348.19 246.469C1256.12 403.895 951.991 381.121 777.656 461.469C771.317 464.39 782.851 405.91 756.312 429.531C690.052 488.508 526.741 639.19 460.625 757.531C310.418 1026.39 325.308 1228.51 441.375 1425.03C451 1441.33 459.242 1456.19 431.469 1475.16C382.559 1508.56 344.137 1549.81 314.438 1593.59C480.778 1785.3 726.198 1906.56 999.938 1906.56C1273.02 1906.56 1517.9 1785.88 1684.22 1594.97C1671.22 1576.78 1658.81 1560.87 1647.44 1547.69C1573.33 1461.79 1524 1466.41 1543.81 1438.94C1755.51 1145.33 1651.61 833.235 1552.53 712.875C1532.72 688.807 1514.7 677.998 1527.09 672.531C1597.12 641.63 1640.56 586.939 1651.41 555.281C1676.9 480.857 1635.34 488.159 1595.75 514.281C1556.23 540.36 1531.88 548.702 1547.25 530.5C1611.75 454.094 1606.05 330.051 1600.69 287.063C1591.16 210.675 1547.32 228.796 1538.72 249.031C1509.92 316.794 1404.27 393.292 1408.56 386.094C1429.3 351.328 1421.71 302.614 1418.91 272.938C1415.92 241.356 1400.11 226.306 1383.38 225.156Z" fill="#262626" fill-rule="nonzero" opacity="1" stroke="none"/>
</g>
<clipPath id="ArtboardFrame">
<rect height="2000" width="2000" x="0" y="0"/>
</clipPath>
<g clip-path="url(#ArtboardFrame)" id="Ebene-7-kopieren">
<use fill="#d95656" fill-rule="nonzero" opacity="1" stroke="none" xlink:href="#Fill"/>
<clipPath clip-rule="nonzero" id="ClipPath">
<use xlink:href="#Fill"/>
</clipPath>
<g clip-path="url(#ClipPath)">
<path d="M582.339 1193.7C582.339 1193.7 612.733 1238.02 593.127 1292.9C592.212 1295.47 607.281 1289.09 614.433 1277.68C620.625 1267.8 619.447 1252.83 619.704 1254.09C620.033 1255.69 629.192 1273.64 630.714 1289.27C633.552 1318.42 623.074 1337.39 626.607 1335.17C631.81 1331.92 642.069 1326.36 647.439 1319.6C655.191 1309.83 663.065 1296.19 662.829 1299.9C661.96 1313.58 660.021 1326.85 668.389 1363.49C673.333 1385.14 700.849 1411.77 700.21 1407.45C697.382 1388.34 715.488 1320.34 718.053 1318.33C720.572 1316.37 717.502 1361.79 716.085 1375.32C714.045 1394.8 705.654 1425.81 707.795 1425.2C724.067 1420.53 753.414 1393.03 759.126 1384.92C776.163 1360.73 777.065 1338.96 777.198 1339.3C785.011 1359.12 771.426 1405.21 771.426 1405.21C771.426 1405.21 791.741 1389.7 802.433 1360.55C809.002 1342.63 807.877 1319.15 808.839 1301.85C808.969 1299.51 818.318 1309.98 822.23 1320.35C827.071 1333.18 827.296 1351.57 828.885 1349.15C842.498 1328.43 846.023 1298.61 845.863 1273.54C845.853 1271.86 850.699 1285.8 852.81 1295.21C855.674 1307.99 852.547 1325.35 852.655 1323.5C852.731 1322.19 871.76 1295.54 873.051 1280.35C874.247 1266.27 872.23 1242.19 872.23 1242.19C872.23 1242.19 878.317 1245.49 882.29 1250.43C887.119 1256.44 895.366 1272.08 895.408 1271.56C900.742 1206.31 880.116 1207.51 892.896 1173.77C917.302 1109.32 846.548 1088.45 900.368 1046.31C922.789 1028.76 929.343 983.047 933.586 955.281C934.135 951.69 912.39 972.203 912.85 968.597C916.584 939.309 929.607 912.846 942.3 893.22C946.884 886.132 872.447 899.342 867.633 885.426C864.565 876.557 864.1 863.632 864.944 856.978C866.547 844.335 875.334 830.345 873.306 831.132C861.16 835.842 846.052 870.556 845.774 868.009C844.558 856.871 858.291 821.558 863.564 811.49C870.619 798.024 873.525 786.657 887.987 774.271C890.39 772.212 858.902 790.302 844.827 804.714C820.897 829.218 811.25 878.705 812.71 873.636C816.877 859.179 817.792 829.806 826.438 791.365C835.334 751.808 857.058 713.097 867.184 696.961C869.265 693.645 840.653 717.935 829.959 732.687C819.786 746.72 796.031 793.466 796.797 789.739C800.622 771.107 830.514 691.639 850.442 666.359C872.432 638.464 893.889 620.761 904.729 611.172C908.375 607.946 863.599 612.316 832.845 635.37C770.403 682.176 744.809 754.446 745.232 752.245C746.554 745.362 764.755 688.234 769.234 677.602C775.769 662.09 788.142 646.282 788.142 646.282C788.142 646.282 766.558 649.707 733.055 686.343C686.084 737.705 681.661 790.297 676.857 832.886C676.325 837.61 673 820.55 673.184 797.666C673.423 767.966 677.2 729.973 676.204 732.716C666.548 759.325 645.168 825.133 647.161 852.066C647.251 853.278 646.005 819.365 643.759 811.145C642.415 806.228 635.126 786.654 634.994 789.005C634.3 801.344 636.495 818.901 622.291 842.606C612.643 858.706 597.053 894.733 610.683 920.098C612.591 923.648 616.537 920.395 601.567 914.184C594.601 911.294 585.574 910.248 586.188 910.978C598.374 925.484 597.725 970.297 619.083 995.385C637.585 1017.12 613.151 1088.2 613.151 1088.2L582.339 1193.7Z" fill="#c04848" fill-rule="nonzero" opacity="1" stroke="none"/>
<path d="M1515.82 1375.01C1695.69 1205.21 1609.65 822.949 1582.85 793.051C1568.8 777.375 1538.91 738.273 1547.67 789.833C1556.91 844.21 1565.93 914.223 1561.15 988.655C1560.04 1005.8 1356.8 990.641 1346.76 1047.77C1346.67 1048.31 1291.27 1246.24 1170.01 1252.38C1147.22 1253.53 1126.43 1253.01 1107.45 1251.13C970.327 1237.55 927.019 1153.25 895.884 1119.67C891.373 1114.8 731.799 1136.4 614.12 1158.7C591.987 1162.9 368.874 1258.95 407.793 1278.48C449.846 1299.59 525.326 1286.67 564.44 1263.03C653.252 1209.35 850.455 1132.68 855.787 1150.48C862.564 1173.11 877.425 1197.82 883.135 1208.58C928.09 1293.25 1078.56 1329.57 1168.21 1315.41C1402.77 1278.35 1419.65 1054.3 1426.96 1053.98C1481.92 1051.56 1551.13 1064.94 1549.79 1071.08C1533.5 1145.71 1499.19 1220.67 1434.09 1285.4C1389.3 1329.93 1324.22 1380.08 1334.28 1452.71C1336.91 1471.71 1399.82 1461.65 1417.57 1448.68C1439.18 1432.89 1487.54 1401.71 1515.82 1375.01Z" fill="#b14441" fill-rule="nonzero" opacity="1" stroke="none"/>
<path d="M874.062 1129.24C884.003 1246.6 803.278 1303.15 731.331 1285.61C635.022 1262.14 601.372 1202.22 601.372 1202.22C601.372 1202.22 871.326 1096.94 874.062 1129.24Z" fill="#b14441" fill-rule="nonzero" opacity="1" stroke="none"/>
<path d="M537.33 1486.48C537.33 1486.48 491.992 1557.2 476.603 1597.93C439.141 1697.09 438.936 1799.63 458.427 1959.5C477.918 2119.37 626.93 2303.95 626.93 2303.95L376.933 2136.92L303.724 1739.29C303.724 1739.29 401.973 1638.81 440.215 1558.61C478.458 1478.41 537.33 1486.48 537.33 1486.48Z" fill="#fbf8e8" fill-rule="nonzero" opacity="1" stroke="none"/>
</g>
</g>
<g clip-path="url(#ArtboardFrame)" id="Ebene-11">
<use fill="#8e5c45" fill-rule="nonzero" opacity="1" stroke="none" xlink:href="#Fill_2"/>
<clipPath clip-rule="nonzero" id="ClipPath_2">
<use xlink:href="#Fill_2"/>
</clipPath>
<g clip-path="url(#ClipPath_2)">
<path d="M1102.23 1986.84L1671.95 2038.73C1671.95 2038.73 1765.39 1938.65 1811.61 1884.29C1827.64 1865.43 1838 1852.08 1836.8 1850.31C1815.88 1819.3 1734.69 1781.55 1693.78 1830.07C1659.4 1870.85 1582.26 1870.97 1558.79 1826.51C1558.79 1826.51 1556.42 1915.06 1536.07 1919.9C1460.76 1937.84 1406.29 1882.95 1381.59 1848.03C1381.59 1848.03 1383.65 1925.92 1373.56 1928.31C1320 1940.97 1266.55 1864.49 1257.79 1852.36C1213.98 1791.7 1217.09 1689.92 1234.34 1599.42C1241.21 1563.39 1190.88 1604.36 1190.88 1604.36L1102.23 1986.84Z" fill="#674533" fill-rule="nonzero" opacity="1" stroke="none"/>
<path d="M1128.13 1746.23L1201.6 1776.1C1230.69 1613.41 1286.3 1562.23 1361.84 1529.38C1428.58 1500.36 1569.4 1536.65 1623.11 1597.3L1650.77 1455.76L1277.76 1457.55L1128.13 1746.23Z" fill="#f2d8d8" fill-rule="nonzero" opacity="1" stroke="none"/>
<path d="M1444.2 1606.02C1440.06 1634.52 1497.53 1673.98 1519.02 1658.44C1544.08 1640.32 1544.17 1619.49 1521.83 1599.15C1502.9 1581.92 1448.62 1575.61 1444.2 1606.02Z" fill="#f2d8d8" fill-rule="nonzero" opacity="1" stroke="none"/>
</g>
</g>
<g clip-path="url(#ArtboardFrame)" id="Ebene-9">
<use fill="#8e5c45" fill-rule="nonzero" opacity="1" stroke="none" xlink:href="#Fill_3"/>
<clipPath clip-rule="nonzero" id="ClipPath_3">
<use xlink:href="#Fill_3"/>
</clipPath>
<g clip-path="url(#ClipPath_3)">
<path d="M273.5 1961.13C273.5 1961.13 263.024 1864.93 315.686 1755.41C364.484 1653.92 480.246 1578.59 480.246 1578.59L402.155 2152.74L273.5 1961.13Z" fill="#674533" fill-rule="nonzero" opacity="1" stroke="none"/>
</g>
</g>
<g id="Ebene-8">
<use fill="#d95656" fill-rule="nonzero" opacity="1" stroke="none" xlink:href="#Fill_4"/>
<clipPath clip-rule="nonzero" id="ClipPath_4">
<use xlink:href="#Fill_4"/>
</clipPath>
<g clip-path="url(#ClipPath_4)">
<path d="M918.726 506.873C1113.26 454.402 1406.84 395.294 1350.34 265.325L828.318 235.558L715.351 545.376C635.512 645.334 645.486 665.267 645.486 665.267C692.85 618.642 724.194 559.345 918.726 506.873Z" fill="#fbe8e8" fill-rule="nonzero" opacity="1" stroke="none"/>
<path d="M1626.66 296.463L1360.27 300.188C1350.13 371.416 1297.59 418.027 1273.23 443.582C1249.15 468.834 1149.24 505.034 1152.69 506.859C1178.34 520.43 1294.08 502.506 1321.45 489.099C1405.81 447.763 1544.89 319.928 1543.41 329.278C1532.41 398.956 1468.01 478.299 1403.64 524.443C1320.38 584.131 1103.77 580.134 1130.06 591.209C1163.91 605.47 1303.25 617.524 1314.86 616.149C1356.08 611.264 1426.37 590.138 1469.91 583.432L1505.25 592.889C1470.88 640.967 1252.79 644.185 1217.93 650.481C1177.23 657.832 1432.29 663.728 1532.3 779.434C1565.42 817.752 1706.45 671.517 1706.45 671.517L1626.66 296.463Z" fill="#b14441" fill-rule="nonzero" opacity="1" stroke="none"/>
</g>
</g>
<g clip-path="url(#ArtboardFrame)" id="Ebene-6">
<use fill="#f3ca98" fill-rule="nonzero" opacity="1" stroke="none" xlink:href="#Fill_5"/>
<clipPath clip-rule="nonzero" id="ClipPath_5">
<use xlink:href="#Fill_5"/>
</clipPath>
<g clip-path="url(#ClipPath_5)">
<path d="M1134.18 1882.85C1140.38 1901.39 1171.22 1954.61 1231.52 2011.82C1256.48 2035.51 1288.32 2098.42 1319.49 2123C1380.6 2171.21 1699.24 2322.54 1723.85 2373.12C1735.02 2396.09 1453.35 2476.68 1454.11 2480.54C1454.16 2480.79 1397.29 2588.52 1312.44 2591.24C1115.1 2597.57 758.038 2488.61 546.196 2226.11C544.89 2224.49 516.108 2201.25 502.758 2156.97C491.164 2118.51 486.572 2075.78 483.025 2054.5C476.332 2014.35 484.732 1988 486.212 1980.63C486.433 1979.54 509.848 2064.8 583.916 2125.56C591.768 2132 609.172 2144.78 617.969 2150.63C619.971 2151.96 607.94 2154.15 590.595 2148.77C572.395 2143.13 559.307 2134.73 560.827 2136.89C609.248 2205.76 685.818 2289.6 725.451 2307.94C726.864 2308.59 698.925 2274.45 681.826 2204.52C670.428 2157.9 670.288 2112.92 676.541 2125.74C695.401 2164.38 754.243 2264.58 833.218 2319.56C862.564 2339.99 893.543 2356.77 923.678 2370.44C927.248 2372.06 918.407 2364.47 912.968 2355.63C906.506 2345.14 903.063 2333.12 905.96 2336.05C922.162 2352.43 965.749 2381.54 976.932 2386.03C1024 2404.92 1057.61 2400.43 1053.4 2398.05C1051.43 2396.94 1038.85 2383.83 1015.03 2358.99C996.831 2340.01 986.597 2310.87 990.272 2314.02C1026.03 2344.7 1096.66 2330.88 1093.25 2327.99C989.522 2239.96 980.939 2162.68 952.289 2095.35C916.12 2010.34 935.518 1952.76 937.388 1937.8C938.339 1930.2 965.132 2003.4 1007.99 2042.28C1018.97 2052.24 969.484 2024.99 969.803 2025.61C1017.9 2119.3 1094.97 2148.06 1087.25 2148.29C1057.54 2149.17 1020.99 2132.41 1021.37 2132.95C1113.9 2267.76 1200.26 2306.27 1195.48 2306.34C1170.51 2306.68 1131.28 2297.09 1136.19 2300.79C1175.77 2330.65 1216.36 2363.47 1246.94 2372.67C1356.74 2405.69 1386.86 2343.93 1380.04 2342.8C1312.99 2331.71 1260.96 2280.38 1242.69 2244.89C1239.71 2239.11 1272.22 2260.94 1313.44 2269.9C1351.06 2278.07 1367.74 2252.42 1365.62 2251.83C1255.61 2221.39 1199.95 2149.38 1173.95 2099.82C1168.42 2089.28 1205.88 2117.64 1224.55 2107.9C1225.88 2107.21 1166.47 2046.5 1147.99 2006.05C1120.92 1946.78 1124.38 1853.56 1134.18 1882.85Z" fill="#be8760" fill-rule="nonzero" opacity="1" stroke="none"/>
<path d="M583.645 1462.6C583.645 1462.6 514.065 1498.77 476.603 1597.93C439.141 1697.09 438.936 1799.63 458.427 1959.5C477.918 2119.37 626.93 2303.95 626.93 2303.95L376.933 2136.92L303.724 1739.29L447.926 1477.41L583.645 1462.6Z" fill="#fbf8e8" fill-rule="nonzero" opacity="1" stroke="none"/>
</g>
</g>
<g id="Ebene-4">
<path d="M412.244 952.188C339.923 948.946 277.125 948.153 206.752 950.586C206.752 950.586 208.414 1035.48 208.414 1035.48C240.473 1033.29 320.617 1032.87 396.452 1034.21L412.244 952.188Z" fill="#262626" fill-rule="nonzero" opacity="1" stroke="none"/>
<path d="M447.298 919.446C415.769 963.094 407.781 1076.52 477.434 1097.79C544.106 1118.15 585.227 1026.18 581.911 969.41C578.263 906.967 506.88 836.961 447.298 919.446Z" fill="#262626" fill-rule="nonzero" opacity="1" stroke="none"/>
<path d="M484.135 944.491C477.067 962.194 485.791 999.252 513.74 998.908C540.493 998.578 546.252 965.093 539.078 946.744C531.186 926.563 497.49 911.037 484.135 944.491Z" fill="#e7ecf3" fill-rule="nonzero" opacity="1" stroke="none"/>
<path d="M1026.47 923.439C987.395 978.799 999.047 1106.94 1110.32 1120.36C1216.83 1133.21 1260.51 1024.53 1243.4 959.593C1224.57 888.168 1100.32 818.822 1026.47 923.439Z" fill="#262626" fill-rule="nonzero" opacity="1" stroke="none"/>
<path d="M1097.88 931.444C1084.03 950.535 1088.16 994.725 1127.59 999.353C1165.33 1003.78 1180.81 966.305 1174.75 943.912C1168.08 919.281 1124.05 895.367 1097.88 931.444Z" fill="#e7ecf3" fill-rule="nonzero" opacity="1" stroke="none"/>
<g opacity="1">
<path d="M872.8 1026.6C864.727 866.213 1007.01 760.731 1130.85 760.731C1254.7 760.731 1363.14 928.117 1363.14 1042.87C1363.14 1157.63 1231.04 1264.62 1107.2 1264.62C983.351 1264.62 880.874 1186.99 872.8 1026.6Z" fill="#bcb9c2" fill-opacity="0.344757" fill-rule="nonzero" opacity="1" stroke="none"/>
<path d="M202.474 1000.6C195.077 850.001 325.449 750.955 438.93 750.955C552.411 750.955 651.772 908.129 651.772 1015.88C651.772 1123.64 530.735 1224.1 417.254 1224.1C303.773 1224.1 209.872 1151.21 202.474 1000.6Z" fill="#bcb9c2" fill-opacity="0.344757" fill-rule="nonzero" opacity="1" stroke="none"/>
</g>
<g opacity="1">
<path d="M917.94 1149.17L1194.97 744.047L1239.19 764.459L952.969 1225.29L917.94 1149.17Z" fill="#f6f2ff" fill-opacity="0.344757" fill-rule="nonzero" opacity="1" stroke="none"/>
<path d="M888.621 1079.29L1107.5 746.979L1142.44 763.723L916.296 1141.73L888.621 1079.29Z" fill="#f6f2ff" fill-opacity="0.344757" fill-rule="nonzero" opacity="1" stroke="none"/>
</g>
<g opacity="1">
<path d="M266.348 1133.28L514.701 770.096L554.34 788.395L297.75 1201.52L266.348 1133.28Z" fill="#f6f2ff" fill-opacity="0.344757" fill-rule="nonzero" opacity="1" stroke="none"/>
<path d="M240.064 1070.63L436.284 772.724L467.602 787.734L264.874 1126.61L240.064 1070.63Z" fill="#f6f2ff" fill-opacity="0.344757" fill-rule="nonzero" opacity="1" stroke="none"/>
</g>
<path d="M1145.78 719.457C860.015 722.05 784.369 981.538 871.995 1160.53C962.433 1345.26 1278.53 1356.16 1373.53 1126.09C1449.63 941.794 1332.28 717.765 1145.78 719.457ZM1143.33 794.125C1289.53 792.86 1366.47 974.552 1312.09 1094.82C1234.87 1265.59 999.655 1261.92 928.763 1123.82C860.074 990.009 919.33 796.063 1143.33 794.125Z" fill="#262626" fill-rule="nonzero" opacity="1" stroke="none"/>
<path d="M1663.67 951.625C1571.6 936.59 1465.34 945.212 1365.4 953.186L1368.33 1038.04C1424.78 1029.37 1628.29 1027.43 1673.07 1036.38C1698.11 1041.38 1702.62 1019.57 1701.08 996.441C1698.66 960.008 1679.34 954.185 1663.67 951.625Z" fill="#262626" fill-rule="nonzero" opacity="1" stroke="none"/>
<path d="M888.719 963.198C796.033 919.369 705.295 933.772 631.058 953.948C613.305 958.774 609.873 973.202 612.273 993.758C615.495 1021.34 618.581 1040.43 638.83 1032.02C734.761 992.205 830.719 1023.75 885.977 1038.3C904.532 1043.19 918.631 1025.34 917.092 1002.21C914.669 965.781 903.076 969.987 888.719 963.198Z" fill="#262626" fill-rule="nonzero" opacity="1" stroke="none"/>
<path d="M446.778 736.675C310.407 733.973 164.417 852.229 180.555 1006.88C199.372 1187.19 329.292 1323.12 517.808 1253.04C765.541 1160.95 712.763 899.242 573.553 782.817C536.586 751.901 492.235 737.576 446.778 736.675ZM440.584 805.376C475.226 805.511 508.914 815.675 536.731 838.221C641.483 923.124 678.592 1117 488.657 1188.37C344.123 1242.68 246.704 1143.18 234.482 1009.38C223.999 894.613 336.658 804.972 440.584 805.376Z" fill="#262626" fill-rule="nonzero" opacity="1" stroke="none"/>
<path d="M833.54 998.888C789.19 991.919 725.593 987.961 677.361 1023.09C609.139 1072.79 564.345 1172.06 584.957 1203.87C620.141 1258.18 765.283 1262.48 810.594 1245.18C894.73 1213.05 863.259 1003.56 833.54 998.888Z" fill="#262626" fill-rule="nonzero" opacity="1" stroke="none"/>
</g>
<g id="Ebene-1">
<use fill="#6d6361" fill-rule="nonzero" opacity="1" stroke="none" xlink:href="#Fill_6"/>
<clipPath clip-rule="nonzero" id="ClipPath_6">
<use xlink:href="#Fill_6"/>
</clipPath>
<g clip-path="url(#ClipPath_6)">
<path d="M833.629 1049.84C777.498 1067.94 732.628 1069.24 668.293 1117.15C603.958 1165.06 606.403 1199.81 606.403 1199.81L558.159 1182.87L730.516 987.241L833.629 1049.84Z" fill="#f1e9e7" fill-rule="nonzero" opacity="1" stroke="none"/>
<path d="M823.167 1104.58C761.61 1114.65 646.232 1159.61 606.198 1182.33L607.998 1190.84C634.97 1182.3 790.669 1149.81 825.348 1157.42L823.167 1104.58Z" fill="#262626" fill-rule="nonzero" opacity="1" stroke="none"/>
</g>
</g>
<g id="Ebene-12-kopieren">
<path d="M92.7057 999.332C92.7057 498.285 498.884 92.1069 999.931 92.1069C1500.98 92.1069 1907.16 498.285 1907.16 999.332C1907.16 1500.38 1500.98 1906.56 999.931 1906.56C498.884 1906.56 92.7057 1500.38 92.7057 999.332Z" fill="none" opacity="1" stroke="#262626" stroke-linecap="butt" stroke-linejoin="round" stroke-width="36.3976"/>
</g>
</svg>
